<svg width="207" height="114" viewBox="0 0 207 114" fill="none" xmlns="http://www.w3.org/2000/svg">
<rect x="0.333344" width="206.667" height="114" rx="4" fill="#382A50"/>
<path fill-rule="evenodd" clip-rule="evenodd" d="M94.074 45.0739C94.7616 44.3863 95.6943 44 96.6667 44H106C106.265 44 106.52 44.1054 106.707 44.2929L113.374 50.9596C113.561 51.1471 113.667 51.4015 113.667 51.6667L113.667 66.3333C113.667 67.3058 113.28 68.2384 112.593 68.9261C111.905 69.6137 110.973 70 110 70H96.6667C95.6943 70 94.7616 69.6137 94.074 68.9261C93.3864 68.2384 93.0001 67.3058 93.0001 66.3333V47.6667C93.0001 46.6942 93.3864 45.7616 94.074 45.0739ZM105.683 51.9832C106.121 52.4208 106.715 52.6667 107.333 52.6667H111.667V66.3333C111.667 66.7754 111.491 67.1993 111.179 67.5118C110.866 67.8244 110.442 68 110 68H96.6667C96.2247 68 95.8008 67.8244 95.4882 67.5118C95.1757 67.1993 95.0001 66.7754 95.0001 66.3333V47.6667C95.0001 47.2246 95.1757 46.8007 95.4882 46.4882C95.8008 46.1756 96.2247 46 96.6667 46H105V50.3333C105 50.9522 105.246 51.5457 105.683 51.9832ZM104.333 63.6667C104.333 64.219 103.886 64.6667 103.333 64.6667C102.781 64.6667 102.333 64.219 102.333 63.6667V58.0809L100.707 59.7071C100.317 60.0976 99.6835 60.0976 99.293 59.7071C98.9024 59.3166 98.9024 58.6834 99.293 58.2929L102.626 54.9596C103.017 54.569 103.65 54.569 104.041 54.9596L107.374 58.2929C107.764 58.6834 107.764 59.3166 107.374 59.7071C106.983 60.0976 106.35 60.0976 105.96 59.7071L104.333 58.0809V63.6667ZM107 50.3333C107 50.4217 107.035 50.5065 107.098 50.569C107.16 50.6315 107.245 50.6667 107.333 50.6667H110.253L107 47.4142V50.3333Z" fill="white"/>
</svg>
