<?xml version="1.0" encoding="utf-8"?><!-- Uploaded to: SVG Repo, www.svgrepo.com, Generator: SVG Repo Mixer Tools -->
<svg width="800px" height="800px" viewBox="0 0 24 24" fill="none" xmlns="http://www.w3.org/2000/svg">
<path d="M17 12C17 14.7614 14.7614 17 12 17C9.23858 17 7 14.7614 7 12C7 9.23858 9.23858 7 12 7C14.7614 7 17 9.23858 17 12ZM9.00543 12C9.00543 13.6539 10.3461 14.9946 12 14.9946C13.6539 14.9946 14.9946 13.6539 14.9946 12C14.9946 10.3461 13.6539 9.00543 12 9.00543C10.3461 9.00543 9.00543 10.3461 9.00543 12Z" fill="#0F0F0F"/>
<path d="M11 1C11 0.447715 11.4477 0 12 0C12.5523 0 13 0.447715 13 1V4C13 4.55228 12.5523 5 12 5C11.4477 5 11 4.55228 11 4V1Z" fill="#0F0F0F"/>
<path d="M1 13C0.447715 13 2.41411e-08 12.5523 0 12C-2.41411e-08 11.4477 0.447715 11 1 11H4C4.55228 11 5 11.4477 5 12C5 12.5523 4.55228 13 4 13H1Z" fill="#0F0F0F"/>
<path d="M3.51472 4.92894C3.1242 4.53841 3.1242 3.90525 3.51472 3.51473C3.90525 3.1242 4.53841 3.1242 4.92894 3.51473L7.05026 5.63605C7.44078 6.02657 7.44078 6.65974 7.05026 7.05026C6.65973 7.44078 6.02657 7.44078 5.63604 7.05026L3.51472 4.92894Z" fill="#0F0F0F"/>
<path d="M4.92891 20.4853C4.53838 20.8758 3.90522 20.8758 3.51469 20.4853C3.12417 20.0948 3.12417 19.4616 3.51469 19.0711L5.63601 16.9497C6.02654 16.5592 6.6597 16.5592 7.05023 16.9497C7.44075 17.3403 7.44075 17.9734 7.05023 18.364L4.92891 20.4853Z" fill="#0F0F0F"/>
<path d="M11 20C11 19.4477 11.4477 19 12 19C12.5523 19 13 19.4477 13 20V23C13 23.5523 12.5523 24 12 24C11.4477 24 11 23.5523 11 23V20Z" fill="#0F0F0F"/>
<path d="M20 13C19.4477 13 19 12.5523 19 12C19 11.4477 19.4477 11 20 11H23C23.5523 11 24 11.4477 24 12C24 12.5523 23.5523 13 23 13H20Z" fill="#0F0F0F"/>
<path d="M16.9497 18.364C16.5592 17.9734 16.5592 17.3403 16.9497 16.9498C17.3402 16.5592 17.9734 16.5592 18.3639 16.9498L20.4853 19.0711C20.8758 19.4616 20.8758 20.0948 20.4853 20.4853C20.0947 20.8758 19.4616 20.8758 19.071 20.4853L16.9497 18.364Z" fill="#0F0F0F"/>
<path d="M18.364 7.05025C17.9734 7.44077 17.3403 7.44077 16.9498 7.05025C16.5592 6.65972 16.5592 6.02656 16.9498 5.63603L19.0711 3.51471C19.4616 3.12419 20.0948 3.12419 20.4853 3.51471C20.8758 3.90524 20.8758 4.5384 20.4853 4.92893L18.364 7.05025Z" fill="#0F0F0F"/>
</svg>