<?xml version="1.0" encoding="utf-8"?>

<!DOCTYPE svg PUBLIC "-//W3C//DTD SVG 1.1//EN" "http://www.w3.org/Graphics/SVG/1.1/DTD/svg11.dtd">
<!-- Uploaded to: SVG Repo, www.svgrepo.com, Generator: SVG Repo Mixer Tools -->
<svg version="1.1" id="_x32_" xmlns="http://www.w3.org/2000/svg" xmlns:xlink="http://www.w3.org/1999/xlink" 
	 viewBox="0 0 512 512"  xml:space="preserve">
<style type="text/css">
	.st0{fill:#000000;}
</style>
<g>
	<path class="st0" d="M425.797,130.088c-12.509,0-22.646,10.136-22.646,22.629v15.163l-62.255,12.053
		c-22.642,0-50.941-14.16-84.892-14.16c-33.965,0-62.259,14.16-84.901,14.16l-62.258-12.053v-15.163
		c0-12.493-10.133-22.629-22.638-22.629S63.57,140.224,63.57,152.718v70.757c0,12.492,10.132,22.63,22.637,22.63
		s22.638-10.137,22.638-22.63v-13.338c18.087,3.782,43.018,8.959,59.43,12.244c25.968,5.193,35.346,41.26,76.046,47.191v37.477
		c-6.533,0.547-11.68,5.964-11.68,12.634c0,0.099,0.029,0.191,0.029,0.29c-23.036,9.257-39.315,31.762-39.315,58.107
		c0,34.598,28.046,62.645,62.645,62.645c34.599,0,62.645-28.046,62.645-62.645c0-26.346-16.279-48.85-39.314-58.107
		c0-0.1,0.029-0.191,0.029-0.29c0-6.67-5.148-12.086-11.68-12.634v-37.477c40.696-5.932,50.082-41.998,76.045-47.191
		c16.407-3.285,41.343-8.461,59.426-12.244v13.338c0,12.492,10.137,22.63,22.646,22.63c12.501,0,22.629-10.137,22.629-22.63v-70.757
		C448.426,140.224,438.298,130.088,425.797,130.088z M297.409,378.079c0,22.87-18.539,41.409-41.409,41.409
		c-22.87,0-41.409-18.54-41.409-41.409c0-22.87,18.54-41.409,41.409-41.409C278.87,336.67,297.409,355.209,297.409,378.079z"/>
	<rect y="90.993" class="st0" width="172.414" height="29.556"/>
	<rect x="339.577" y="90.993" class="st0" width="172.423" height="29.556"/>
	<path class="st0" d="M86.207,71.276c-7.142,0-12.928,5.79-12.928,12.94h25.86C99.139,77.066,93.344,71.276,86.207,71.276z"/>
	<path class="st0" d="M425.797,71.276c-7.15,0-12.94,5.79-12.94,12.94h25.864C438.72,77.066,432.931,71.276,425.797,71.276z"/>
	<path class="st0" d="M267.555,354.28c-3.509-1.7-7.395-2.745-11.555-2.745c-14.662,0-26.544,11.887-26.544,26.544
		s11.883,26.544,26.544,26.544c14.661,0,26.544-11.887,26.544-26.544c0-3.584-0.73-7.001-2.02-10.12
		c-1.506,4.031-5.317,6.934-9.875,6.934c-5.864,0-10.618-4.753-10.618-10.618C260.032,359.515,263.229,355.624,267.555,354.28z"/>
</g>
</svg>