<svg width="30" height="30" viewBox="0 0 30 30" fill="none" xmlns="http://www.w3.org/2000/svg">
<path d="M17.5543 11.9076C15.0656 11.3456 14.6802 10.9601 14.1182 8.47142C14.0924 8.35767 13.9912 8.27667 13.8742 8.27667C13.7572 8.27667 13.6559 8.35767 13.6302 8.47142C13.0679 10.9601 12.6827 11.3456 10.194 11.9076C10.08 11.9336 9.99902 12.0346 9.99902 12.1516C9.99902 12.2686 10.08 12.3696 10.194 12.3956C12.6827 12.9578 13.0679 13.3433 13.6302 15.8317C13.6559 15.9455 13.7572 16.0265 13.8742 16.0265C13.9912 16.0265 14.0924 15.9455 14.1182 15.8317C14.6804 13.3433 15.0656 12.9578 17.5543 12.3956C17.6683 12.3696 17.7491 12.2686 17.7491 12.1516C17.7491 12.0346 17.6681 11.9336 17.5543 11.9076Z" fill="white"/>
<path d="M19.8043 8.03295C18.4813 7.73421 18.2956 7.54847 17.9968 6.22575C17.9708 6.11175 17.8698 6.03101 17.7528 6.03101C17.6358 6.03101 17.5348 6.11175 17.5088 6.22575C17.2101 7.54847 17.0244 7.73421 15.7016 8.03295C15.5876 8.05895 15.5069 8.15995 15.5069 8.27695C15.5069 8.39395 15.5876 8.49494 15.7016 8.52094C17.0244 8.81969 17.2101 9.00543 17.5088 10.3284C17.5348 10.4421 17.6358 10.5231 17.7528 10.5231C17.8698 10.5231 17.9708 10.4421 17.9968 10.3284C18.2956 9.00543 18.4813 8.81969 19.8043 8.52094C19.918 8.49494 19.999 8.39395 19.999 8.27695C19.999 8.15995 19.918 8.05895 19.8043 8.03295Z" fill="white"/>
<path d="M14.1288 21.0452V27.4083C14.1288 27.7591 14.414 28.0443 14.7647 28.0443H15.4007C15.7515 28.0443 16.0366 27.7591 16.0366 27.4083V21.0452H14.1276H14.1288Z" fill="white"/>
<path d="M10.5266 21.0452L7.93265 28.5776C7.89924 28.6754 7.91475 28.7816 7.97441 28.8663C8.03407 28.9499 8.13072 29 8.23333 29H9.12583C9.53269 29 9.89541 28.741 10.029 28.3568L12.5466 21.0462H10.5278L10.5266 21.0452Z" fill="white"/>
<path d="M19.9587 21.0452H17.9398L20.4574 28.3558C20.5898 28.7412 20.9526 28.999 21.3606 28.999H22.2531C22.4643 29.0049 22.629 28.7758 22.5538 28.5778L19.9599 21.0454L19.9587 21.0452Z" fill="white"/>
<path d="M22.5608 18.1816H22.4021L22.4009 3.22643C22.4009 3.05104 22.2589 2.90785 22.0823 2.90785H18.2058C18.0746 2.53798 17.7238 2.2719 17.3098 2.2719H16.0367V1.63595C16.0367 1.28517 15.7515 1 15.4007 1H14.7648C14.414 1 14.1288 1.28517 14.1288 1.63595V2.2719H12.8557C12.4416 2.2719 12.0909 2.53917 11.9596 2.90785H8.08314C7.90774 2.90785 7.76455 3.04983 7.76455 3.22643V18.1804C6.19078 18.0659 6.0273 20.3233 7.60586 20.408H22.5598C24.0262 20.3639 24.0358 18.2293 22.5598 18.1804L22.5608 18.1816ZM8.40137 3.54502H11.9595C12.0908 3.91489 12.4415 4.18097 12.8556 4.18097H17.3097C17.7237 4.18097 18.0745 3.9137 18.2057 3.54502H21.7636V18.1816H8.40137V3.54502Z" fill="white"/>
</svg>
