<svg width="52" height="22" viewBox="0 0 52 22" fill="none" xmlns="http://www.w3.org/2000/svg">
<path d="M0 11C0 4.92487 4.92487 0 11 0H41C47.0751 0 52 4.92487 52 11C52 17.0751 47.0751 22 41 22H11C4.92487 22 0 17.0751 0 11Z" fill="#8941FF"/>
<path d="M11.636 15.12C11.036 15.12 10.508 14.996 10.052 14.748C9.596 14.5 9.24 14.144 8.984 13.68C8.736 13.208 8.612 12.648 8.612 12C8.612 11.352 8.736 10.796 8.984 10.332C9.24 9.86 9.592 9.5 10.04 9.252C10.488 9.004 10.996 8.88 11.564 8.88C12.148 8.88 12.644 9 13.052 9.24C13.46 9.48 13.772 9.808 13.988 10.224C14.204 10.64 14.312 11.112 14.312 11.64C14.312 11.784 14.308 11.92 14.3 12.048C14.292 12.176 14.28 12.288 14.264 12.384H9.44V11.4H13.7L13.064 11.592C13.064 11.048 12.928 10.632 12.656 10.344C12.384 10.048 12.012 9.9 11.54 9.9C11.196 9.9 10.896 9.98 10.64 10.14C10.384 10.3 10.188 10.54 10.052 10.86C9.916 11.172 9.848 11.556 9.848 12.012C9.848 12.46 9.92 12.84 10.064 13.152C10.208 13.464 10.412 13.7 10.676 13.86C10.94 14.02 11.252 14.1 11.612 14.1C12.012 14.1 12.336 14.024 12.584 13.872C12.832 13.72 13.028 13.508 13.172 13.236L14.192 13.716C14.048 14.004 13.852 14.256 13.604 14.472C13.364 14.68 13.076 14.84 12.74 14.952C12.404 15.064 12.036 15.12 11.636 15.12ZM18.2375 15.12C17.7415 15.12 17.2895 14.996 16.8815 14.748C16.4815 14.5 16.1655 14.144 15.9335 13.68C15.7015 13.216 15.5855 12.66 15.5855 12.012C15.5855 11.34 15.7095 10.772 15.9575 10.308C16.2055 9.844 16.5375 9.492 16.9535 9.252C17.3695 9.004 17.8255 8.88 18.3215 8.88C18.8335 8.88 19.2655 9.02 19.6175 9.3C19.9695 9.58 20.2055 9.944 20.3255 10.392L20.1815 10.524V6.3H21.4655V15H20.3255L20.2295 13.368L20.3975 13.38C20.3415 13.74 20.2095 14.052 20.0015 14.316C19.7935 14.572 19.5335 14.772 19.2215 14.916C18.9175 15.052 18.5895 15.12 18.2375 15.12ZM18.5135 14.088C18.8575 14.088 19.1535 14 19.4015 13.824C19.6495 13.648 19.8415 13.4 19.9775 13.08C20.1135 12.76 20.1815 12.376 20.1815 11.928C20.1815 11.512 20.1135 11.156 19.9775 10.86C19.8415 10.556 19.6495 10.324 19.4015 10.164C19.1615 10.004 18.8815 9.924 18.5615 9.924C18.0255 9.924 17.6095 10.108 17.3135 10.476C17.0175 10.844 16.8695 11.352 16.8695 12C16.8695 12.648 17.0135 13.16 17.3015 13.536C17.5895 13.904 17.9935 14.088 18.5135 14.088ZM24.1049 7.992C23.8249 7.992 23.6089 7.924 23.4569 7.788C23.3129 7.644 23.2409 7.444 23.2409 7.188C23.2409 6.932 23.3129 6.736 23.4569 6.6C23.6089 6.464 23.8249 6.396 24.1049 6.396C24.3769 6.396 24.5849 6.464 24.7289 6.6C24.8809 6.736 24.9569 6.932 24.9569 7.188C24.9569 7.444 24.8809 7.644 24.7289 7.788C24.5849 7.924 24.3769 7.992 24.1049 7.992ZM24.7409 9V15H23.4569V9H24.7409ZM28.5019 7.236V13.2C28.5019 13.496 28.5779 13.712 28.7299 13.848C28.8899 13.984 29.1019 14.052 29.3659 14.052C29.5819 14.052 29.7699 14.02 29.9299 13.956C30.0899 13.884 30.2379 13.788 30.3739 13.668L30.6619 14.604C30.4779 14.764 30.2499 14.892 29.9779 14.988C29.7139 15.076 29.4179 15.12 29.0899 15.12C28.7459 15.12 28.4299 15.064 28.1419 14.952C27.8539 14.84 27.6299 14.66 27.4699 14.412C27.3099 14.156 27.2259 13.824 27.2179 13.416V7.596L28.5019 7.236ZM30.5659 9V10.008H26.0659V9H30.5659ZM34.4398 8.88C35.0238 8.88 35.5398 9.004 35.9878 9.252C36.4358 9.5 36.7838 9.86 37.0318 10.332C37.2878 10.796 37.4158 11.352 37.4158 12C37.4158 12.648 37.2878 13.208 37.0318 13.68C36.7838 14.144 36.4358 14.5 35.9878 14.748C35.5398 14.996 35.0238 15.12 34.4398 15.12C33.8558 15.12 33.3398 14.996 32.8918 14.748C32.4438 14.5 32.0918 14.144 31.8358 13.68C31.5798 13.208 31.4518 12.648 31.4518 12C31.4518 11.352 31.5798 10.796 31.8358 10.332C32.0918 9.86 32.4438 9.5 32.8918 9.252C33.3398 9.004 33.8558 8.88 34.4398 8.88ZM34.4398 9.888C34.0798 9.888 33.7718 9.972 33.5158 10.14C33.2678 10.3 33.0758 10.536 32.9398 10.848C32.8038 11.16 32.7358 11.544 32.7358 12C32.7358 12.448 32.8038 12.832 32.9398 13.152C33.0758 13.464 33.2678 13.704 33.5158 13.872C33.7718 14.032 34.0798 14.112 34.4398 14.112C34.7998 14.112 35.1038 14.032 35.3518 13.872C35.5998 13.704 35.7918 13.464 35.9278 13.152C36.0638 12.832 36.1318 12.448 36.1318 12C36.1318 11.544 36.0638 11.16 35.9278 10.848C35.7918 10.536 35.5998 10.3 35.3518 10.14C35.1038 9.972 34.7998 9.888 34.4398 9.888ZM39.0312 15V9H40.1232L40.2432 10.08C40.4032 9.688 40.6392 9.392 40.9512 9.192C41.2712 8.984 41.6632 8.88 42.1272 8.88C42.2472 8.88 42.3672 8.892 42.4872 8.916C42.6072 8.932 42.7072 8.96 42.7872 9L42.6072 10.128C42.5192 10.096 42.4192 10.072 42.3072 10.056C42.2032 10.032 42.0592 10.02 41.8752 10.02C41.6272 10.02 41.3832 10.088 41.1432 10.224C40.9032 10.352 40.7032 10.548 40.5432 10.812C40.3912 11.076 40.3152 11.412 40.3152 11.82V15H39.0312Z" fill="white"/>
</svg>
