<svg width="272" height="204" viewBox="0 0 272 204" fill="none" xmlns="http://www.w3.org/2000/svg">
<rect width="272" height="204" rx="2" fill="#323232" fill-opacity="0.4"/>
<path fill-rule="evenodd" clip-rule="evenodd" d="M75.7398 122.501C75.0886 122.484 74.4523 122.698 73.9444 123.106C73.4364 123.514 73.0899 124.089 72.9664 124.729C72.8429 125.368 72.9505 126.031 73.2701 126.599C73.4654 126.946 73.3556 127.385 73.0199 127.599C72.6553 127.832 72.3507 128.147 72.131 128.52C71.9112 128.892 71.7826 129.311 71.7554 129.743C71.7283 130.175 71.8034 130.607 71.9747 131.004C72.146 131.401 72.4087 131.752 72.7413 132.029C72.9606 132.211 73.0575 132.502 72.9915 132.779C72.8984 133.17 72.892 133.576 72.9729 133.97C73.0538 134.363 73.2199 134.735 73.4596 135.057C73.6993 135.379 74.0067 135.645 74.3602 135.836C74.7106 136.025 75.0979 136.136 75.4953 136.161L75.678 136.166H77.2507V133.727L75.137 131.613C74.8441 131.32 74.8441 130.845 75.137 130.553C75.4299 130.26 75.9048 130.26 76.1977 130.553L77.2507 131.606V127.583C77.2507 127.169 77.5865 126.833 78.0007 126.833C78.4149 126.833 78.7507 127.169 78.7507 127.583V130.439L79.8037 129.386C80.0966 129.093 80.5715 129.093 80.8644 129.386C81.1573 129.679 81.1573 130.154 80.8644 130.447L78.7507 132.56V136.166H80.334C80.7494 136.166 81.1595 136.072 81.5334 135.891C81.9072 135.71 82.2352 135.447 82.4926 135.121C82.7501 134.795 82.9304 134.415 83.02 134.009C83.1096 133.604 83.1062 133.183 83.0099 132.779C82.9439 132.502 83.0409 132.211 83.2603 132.028C83.593 131.752 83.8557 131.401 84.027 131.004C84.1984 130.607 84.2735 130.175 84.2462 129.743C84.219 129.311 84.0902 128.892 83.8703 128.52C83.6504 128.147 83.3456 127.832 82.9808 127.599C82.645 127.386 82.5348 126.946 82.7299 126.599C83.0489 126.032 83.1561 125.369 83.0325 124.73C82.9089 124.091 82.5625 123.516 82.0549 123.108C81.5473 122.7 80.9115 122.486 80.2606 122.503C79.6097 122.52 78.9859 122.768 78.5004 123.201C78.2156 123.456 77.7851 123.456 77.5005 123.201C77.0151 122.766 76.3911 122.518 75.7398 122.501ZM77.2507 137.666V142.75C77.2507 143.164 77.5865 143.5 78.0007 143.5C78.4149 143.5 78.7507 143.164 78.7507 142.75V137.666H80.3339C80.9758 137.666 81.6095 137.521 82.1872 137.241C82.7649 136.961 83.2717 136.554 83.6697 136.051C84.0676 135.547 84.3462 134.96 84.4847 134.333C84.5906 133.853 84.6124 133.36 84.5502 132.876C84.9094 132.506 85.1992 132.073 85.4044 131.598C85.6693 130.984 85.7854 130.316 85.7433 129.648C85.7011 128.981 85.502 128.333 85.162 127.757C84.9348 127.372 84.6491 127.027 84.3162 126.733C84.5864 126.006 84.654 125.215 84.5052 124.445C84.3142 123.457 83.7789 122.569 82.9944 121.939C82.2099 121.309 81.2273 120.977 80.2213 121.004C79.4269 121.024 78.6587 121.267 78.0011 121.699C77.3435 121.266 76.5748 121.023 75.7798 121.002C74.7733 120.975 73.79 121.306 73.005 121.937C72.22 122.567 71.6844 123.456 71.4936 124.444C71.3449 125.215 71.413 126.006 71.6839 126.734C71.3513 127.028 71.0659 127.373 70.8389 127.758C70.4993 128.334 70.3004 128.982 70.2584 129.649C70.2164 130.316 70.3326 130.984 70.5974 131.598C70.8024 132.073 71.0921 132.506 71.4512 132.876C71.3916 133.34 71.409 133.812 71.5036 134.272C71.6286 134.88 71.8854 135.454 72.2558 135.952C72.6262 136.45 73.1013 136.861 73.6476 137.156C74.194 137.451 74.7984 137.623 75.4182 137.659C75.4257 137.659 75.4332 137.66 75.4407 137.66L75.6461 137.666C75.6532 137.666 75.6603 137.666 75.6674 137.666H77.2507Z" fill="#B6B6B6"/>
<path fill-rule="evenodd" clip-rule="evenodd" d="M100.305 121.22C100.598 120.927 101.072 120.927 101.365 121.22L111.865 131.72C112.08 131.934 112.144 132.257 112.028 132.537C111.912 132.817 111.638 133 111.335 133H109.752V140.417C109.752 141.234 109.427 142.019 108.849 142.597C108.27 143.175 107.486 143.5 106.668 143.5H95.0016C94.1839 143.5 93.3996 143.175 92.8214 142.597C92.2431 142.019 91.9183 141.234 91.9183 140.417V133H90.335C90.0316 133 89.7581 132.817 89.6421 132.537C89.526 132.257 89.5901 131.934 89.8046 131.72L100.305 121.22ZM98.085 142H103.585V135.75C103.585 135.33 103.418 134.927 103.121 134.63C102.824 134.333 102.422 134.167 102.002 134.167H99.6683C99.2484 134.167 98.8456 134.333 98.5487 134.63C98.2518 134.927 98.085 135.33 98.085 135.75V142ZM105.085 142V135.75C105.085 134.932 104.76 134.148 104.182 133.57C103.604 132.992 102.819 132.667 102.002 132.667H99.6683C98.8505 132.667 98.0663 132.992 97.488 133.57C96.9098 134.148 96.585 134.932 96.585 135.75V142H95.0016C94.5817 142 94.179 141.833 93.882 141.536C93.5851 141.239 93.4183 140.837 93.4183 140.417V132.25C93.4183 131.836 93.0825 131.5 92.6683 131.5H92.1456L100.835 122.811L109.524 131.5H109.002C108.587 131.5 108.252 131.836 108.252 132.25V140.417C108.252 140.837 108.085 141.239 107.788 141.536C107.491 141.833 107.088 142 106.668 142H105.085Z" fill="#B6B6B6"/>
<path fill-rule="evenodd" clip-rule="evenodd" d="M193.168 121C193.367 121 193.558 121.079 193.699 121.22L198.365 125.886C198.536 126.057 198.614 126.299 198.575 126.537C198.537 126.775 198.386 126.98 198.17 127.087L196.768 127.789L200.699 131.72C200.883 131.903 200.958 132.169 200.898 132.422C200.839 132.675 200.652 132.879 200.406 132.962L198.057 133.744L201.865 137.553C202.08 137.767 202.144 138.09 202.028 138.37C201.912 138.651 201.638 138.833 201.335 138.833H196.252V141.583C196.252 142.092 196.05 142.579 195.69 142.939C195.331 143.298 194.843 143.5 194.335 143.5H192.002C191.493 143.5 191.006 143.298 190.646 142.939C190.287 142.579 190.085 142.092 190.085 141.583V138.833H185.002C184.698 138.833 184.425 138.651 184.309 138.37C184.193 138.09 184.257 137.767 184.471 137.553L188.28 133.744L185.931 132.962C185.685 132.879 185.498 132.675 185.438 132.422C185.379 132.169 185.454 131.903 185.638 131.72L189.569 127.789L188.166 127.087C187.951 126.98 187.8 126.775 187.761 126.537C187.723 126.299 187.801 126.057 187.971 125.886L192.638 121.22C192.779 121.079 192.969 121 193.168 121ZM190.84 137.333L190.835 137.333L190.83 137.333H186.812L190.199 133.947C190.382 133.763 190.458 133.497 190.398 133.244C190.339 132.991 190.152 132.787 189.906 132.705L187.557 131.922L191.365 128.114C191.536 127.943 191.614 127.701 191.575 127.463C191.537 127.225 191.386 127.02 191.17 126.913L189.768 126.211L193.168 122.811L196.569 126.211L195.166 126.913C194.951 127.02 194.8 127.225 194.761 127.463C194.723 127.701 194.801 127.943 194.971 128.114L198.78 131.922L196.431 132.705C196.185 132.787 195.998 132.991 195.938 133.244C195.879 133.497 195.954 133.763 196.138 133.947L199.524 137.333H195.507L195.502 137.333L195.496 137.333H190.84ZM191.585 138.833V141.583C191.585 141.694 191.629 141.8 191.707 141.878C191.785 141.956 191.891 142 192.002 142H194.335C194.446 142 194.551 141.956 194.63 141.878C194.708 141.8 194.752 141.694 194.752 141.583V138.833H191.585Z" fill="#B6B6B6"/>
<path fill-rule="evenodd" clip-rule="evenodd" d="M167.167 122.5C167.056 122.5 166.95 122.544 166.872 122.622C166.794 122.7 166.75 122.806 166.75 122.917V129.606L171.197 134.053C171.338 134.194 171.417 134.384 171.417 134.583V142H179.25V122.917C179.25 122.806 179.206 122.7 179.128 122.622C179.05 122.544 178.944 122.5 178.833 122.5H167.167ZM169.917 142V134.894L164.833 129.811L159.75 134.894V142H164.083V138.083C164.083 137.669 164.419 137.333 164.833 137.333C165.248 137.333 165.583 137.669 165.583 138.083V142H169.917ZM165.25 128.126C164.959 127.931 164.56 127.962 164.303 128.22L158.47 134.053C158.329 134.194 158.25 134.384 158.25 134.583V142.75C158.25 143.164 158.586 143.5 159 143.5H180C180.414 143.5 180.75 143.164 180.75 142.75V122.917C180.75 122.408 180.548 121.921 180.189 121.561C179.829 121.202 179.342 121 178.833 121H167.167C166.658 121 166.171 121.202 165.811 121.561C165.452 121.921 165.25 122.408 165.25 122.917V128.126ZM170.667 125.667C171.081 125.667 171.417 126.002 171.417 126.417V126.427C171.417 126.841 171.081 127.177 170.667 127.177C170.252 127.177 169.917 126.841 169.917 126.427V126.417C169.917 126.002 170.252 125.667 170.667 125.667ZM175.333 125.667C175.748 125.667 176.083 126.002 176.083 126.417V126.427C176.083 126.841 175.748 127.177 175.333 127.177C174.919 127.177 174.583 126.841 174.583 126.427V126.417C174.583 126.002 174.919 125.667 175.333 125.667ZM175.333 130.333C175.748 130.333 176.083 130.669 176.083 131.083V131.093C176.083 131.508 175.748 131.843 175.333 131.843C174.919 131.843 174.583 131.508 174.583 131.093V131.083C174.583 130.669 174.919 130.333 175.333 130.333ZM175.333 135C175.748 135 176.083 135.336 176.083 135.75V135.76C176.083 136.174 175.748 136.51 175.333 136.51C174.919 136.51 174.583 136.174 174.583 135.76V135.75C174.583 135.336 174.919 135 175.333 135Z" fill="#B6B6B6"/>
<path d="M65 146.75H207V147.75H65V146.75Z" fill="#B6B6B6"/>
<path d="M124.5 145C122.015 145 120 142.985 120 140.5C120 138.015 122.015 136 124.5 136C126.985 136 129 138.015 129 140.5C129 142.985 126.985 145 124.5 145ZM124.5 143C125.881 143 127 141.881 127 140.5C127 139.119 125.881 138 124.5 138C123.119 138 122 139.119 122 140.5C122 141.881 123.119 143 124.5 143ZM137.5 145C135.015 145 133 142.985 133 140.5C133 138.015 135.015 136 137.5 136C139.985 136 142 138.015 142 140.5C142 142.985 139.985 145 137.5 145ZM137.5 143C138.881 143 140 141.881 140 140.5C140 139.119 138.881 138 137.5 138C136.119 138 135 139.119 135 140.5C135 141.881 136.119 143 137.5 143ZM130.023 134.305L131.651 135.701C131.872 135.891 132 136.168 132 136.46V141C132 141.552 131.552 142 131 142C130.448 142 130 141.552 130 141V137.468C130 137.172 129.868 136.89 129.64 136.7L127.281 134.734C127.182 134.666 127.088 134.588 127 134.5C126.219 133.719 126.219 132.453 127 131.672L129.828 128.843C130.609 128.062 131.876 128.062 132.657 128.843L134.071 130.257C134.955 131.141 136.016 131.739 137.141 132.052C137.62 132.185 137.986 132.601 137.984 133.099L137.984 133.131C137.981 133.726 137.458 134.192 136.879 134.05C135.332 133.673 133.865 132.88 132.657 131.672L130.023 134.305ZM135 129C133.895 129 133 128.105 133 127C133 125.895 133.895 125 135 125C136.105 125 137 125.895 137 127C137 128.105 136.105 129 135 129Z" fill="#B6B6B6"/>
</svg>