<svg width="32" height="32" viewBox="0 0 32 32" fill="none" xmlns="http://www.w3.org/2000/svg">
<path fill-rule="evenodd" clip-rule="evenodd" d="M25.1865 8C27.0476 8 28.4908 8.45253 29.5159 9.35758C30.5569 10.2465 31.0773 11.4343 31.0773 12.9212C31.0773 14.5535 30.5648 15.798 29.5396 16.6545C29.0857 17.0337 28.55 17.329 27.9323 17.5403L32 24H27.505L24.1709 18.1576H21.7325V24H17.7343V8H25.1865ZM26.3931 14.7152C25.9988 15.0384 25.4073 15.2 24.6188 15.2H21.7325V11.1515H24.6188C25.4073 11.1515 25.9988 11.3131 26.3931 11.6364C26.7874 11.9596 26.9845 12.4687 26.9845 13.1636C26.9845 13.8747 26.7874 14.3919 26.3931 14.7152Z" fill="white"/>
<path fill-rule="evenodd" clip-rule="evenodd" d="M10.3385 24L15.8744 8H11.7343L8.82438 17.7212L7.99635 20.8242L7.14467 17.6727L4.28207 8H0L5.55959 24H10.3385Z" fill="white"/>
</svg>
