<svg width="27" height="21" viewBox="0 0 27 21" fill="none" xmlns="http://www.w3.org/2000/svg">
<path d="M5.76831 10.5003H4.01831V4.66695H1.68498V2.33362H8.68498V4.66695H6.35164V7.92778L17.8001 4.86062L17.1235 2.33362H13.3516V0.00028402H17.9926C18.2538 -0.00547837 18.5094 0.0765868 18.7184 0.233333C18.9274 0.39008 19.0777 0.612437 19.1453 0.864784L20.9571 7.62678L18.7031 8.22995L18.4045 7.11462L5.76831 10.5003ZM5.18498 21.0003C3.9473 21.0003 2.76032 20.5086 1.88515 19.6334C1.00998 18.7583 0.518311 17.5713 0.518311 16.3336C0.518311 15.0959 1.00998 13.909 1.88515 13.0338C2.76032 12.1586 3.9473 11.6669 5.18498 11.6669C6.42265 11.6669 7.60964 12.1586 8.48481 13.0338C9.35998 13.909 9.85164 15.0959 9.85164 16.3336C9.85164 17.5713 9.35998 18.7583 8.48481 19.6334C7.60964 20.5086 6.42265 21.0003 5.18498 21.0003ZM5.18498 17.5003C5.4944 17.5003 5.79114 17.3774 6.00993 17.1586C6.22873 16.9398 6.35164 16.643 6.35164 16.3336C6.35164 16.0242 6.22873 15.7275 6.00993 15.5087C5.79114 15.2899 5.4944 15.1669 5.18498 15.1669C4.87556 15.1669 4.57881 15.2899 4.36002 15.5087C4.14123 15.7275 4.01831 16.0242 4.01831 16.3336C4.01831 16.643 4.14123 16.9398 4.36002 17.1586C4.57881 17.3774 4.87556 17.5003 5.18498 17.5003ZM20.3516 21.0003C18.8045 21.0003 17.3208 20.3857 16.2269 19.2917C15.1329 18.1978 14.5183 16.714 14.5183 15.1669C14.5183 13.6199 15.1329 12.1361 16.2269 11.0422C17.3208 9.9482 18.8045 9.33362 20.3516 9.33362C21.8987 9.33362 23.3825 9.9482 24.4764 11.0422C25.5704 12.1361 26.185 13.6199 26.185 15.1669C26.185 16.714 25.5704 18.1978 24.4764 19.2917C23.3825 20.3857 21.8987 21.0003 20.3516 21.0003ZM20.3516 16.3336C20.6611 16.3336 20.9578 16.2107 21.1766 15.9919C21.3954 15.7731 21.5183 15.4764 21.5183 15.1669C21.5183 14.8575 21.3954 14.5608 21.1766 14.342C20.9578 14.1232 20.6611 14.0003 20.3516 14.0003C20.0422 14.0003 19.7455 14.1232 19.5267 14.342C19.3079 14.5608 19.185 14.8575 19.185 15.1669C19.185 15.4764 19.3079 15.7731 19.5267 15.9919C19.7455 16.2107 20.0422 16.3336 20.3516 16.3336Z" fill="#6100FF"/>
</svg>
