<svg width="36" height="26" viewBox="0 0 36 26" fill="none" xmlns="http://www.w3.org/2000/svg">
<path fill-rule="evenodd" clip-rule="evenodd" d="M22.837 3.53492H19.6851V7.93307H23.7794L22.837 3.53492ZM31.9057 11.0997C31.8152 10.1977 31.6601 9.24002 31.4436 8.3148C31.0694 6.71586 30.5544 5.40078 30.0089 4.63704C29.2281 3.54393 28.4111 3.52826 26.4351 3.53371L28.0564 11.0997H31.9057ZM32.0283 22.5349H35.5184V12.859C35.5184 11.243 35.2917 9.31682 34.8695 7.51298C34.4555 5.74416 33.8111 3.90673 32.872 2.59194C30.9632 -0.0803734 28.2277 -0.0268571 26.4001 0.00889919C26.2029 0.0127562 26.0164 0.0164065 25.8425 0.0164065H0.333252V22.5349H3.82336C4.53158 24.3866 6.32515 25.7016 8.42584 25.7016C10.5265 25.7016 12.3201 24.3866 13.0283 22.5349H22.8234C23.5316 24.3866 25.3252 25.7016 27.4258 25.7016C29.5265 25.7016 31.3201 24.3866 32.0283 22.5349ZM8.24992 3.53492H3.85177V7.93307H8.24992V3.53492ZM11.7684 7.93307V3.53492H16.1666V7.93307H11.7684Z" fill="#8941FF"/>
</svg>
