<svg width="30" height="22" viewBox="0 0 30 22" fill="none" xmlns="http://www.w3.org/2000/svg">
<path fill-rule="evenodd" clip-rule="evenodd" d="M3.03823 0.92196C3.26096 0.365128 3.80027 0 4.4 0H19.0667C19.5122 0 19.9336 0.202532 20.2119 0.550447L25.6382 7.33333H29.3333V19.0667H26.1496C25.5456 20.7756 23.9158 22 22 22C20.0842 22 18.4544 20.7756 17.8504 19.0667H11.483C10.8789 20.7756 9.24911 22 7.33333 22C5.41754 22 3.78773 20.7756 3.1837 19.0667H0V8.8C0 8.61341 0.0356036 8.42854 0.104901 8.25529L3.03823 0.92196ZM3.63298 7.33333H11.7333V2.93333H5.39298L3.63298 7.33333ZM14.6667 2.93333V7.33333H21.8817L18.3617 2.93333H14.6667Z" fill="#A684DD"/>
</svg>
