<svg width="1051" height="24" viewBox="0 0 1051 24" fill="none" xmlns="http://www.w3.org/2000/svg">
<path d="M17.334 3.33284L20.834 6.83284L18.5007 7.99951L23.1674 12.6662L19.6674 13.8328L24.334 18.4995H13.834M16.1674 21.9995V18.4995M8.0007 12.6662L5.66737 10.3328M8.0007 11.4995L10.334 9.16617M8.0007 21.9995V6.83284M5.46203 16.1603C4.95158 16.1305 4.45388 15.9891 4.00394 15.7462C3.55399 15.5033 3.16274 15.1647 2.85769 14.7544C2.55264 14.344 2.34121 13.8718 2.23827 13.3709C2.13533 12.8701 2.14339 12.3527 2.26187 11.8553C1.83846 11.5034 1.50412 11.0565 1.28605 10.5509C1.06798 10.0454 0.972336 9.49549 1.0069 8.946C1.04146 8.39651 1.20526 7.86294 1.48496 7.3887C1.76466 6.91446 2.15237 6.51295 2.61653 6.21684C2.2098 5.49427 2.07281 4.65076 2.22997 3.83662C2.38713 3.02247 2.82824 2.29056 3.47469 1.77129C4.12115 1.25203 4.93096 0.979138 5.75984 1.00125C6.58873 1.02335 7.38284 1.33902 8.0007 1.89201C8.6187 1.33989 9.41255 1.02498 10.241 1.0033C11.0694 0.981619 11.8786 1.25459 12.5247 1.77362C13.1707 2.29266 13.6116 3.02408 13.7689 3.83771C13.9262 4.65135 13.7897 5.49441 13.3837 6.21684C13.8482 6.51269 14.2362 6.91405 14.5161 7.38825C14.7961 7.86245 14.9601 8.39607 14.9948 8.94565C15.0294 9.49523 14.9338 10.0452 14.7157 10.5509C14.4976 11.0565 14.1631 11.5034 13.7395 11.8553C13.862 12.3696 13.8664 12.9049 13.7524 13.4211C13.6383 13.9373 13.4089 14.421 13.0812 14.8358C12.7535 15.2506 12.336 15.5858 11.8603 15.8162C11.3845 16.0466 10.8627 16.1663 10.334 16.1662H5.66737L5.46203 16.1603Z" stroke="url(#paint0_linear_1_57)" stroke-width="1.5" stroke-linecap="round" stroke-linejoin="round"/>
<path d="M74.8357 17.3333V20.8333C74.8357 21.1427 74.7128 21.4395 74.494 21.6583C74.2752 21.8771 73.9784 22 73.669 22H71.3357C71.0263 22 70.7295 21.8771 70.5107 21.6583C70.2919 21.4395 70.169 21.1427 70.169 20.8333V17.3333M72.5024 1L77.169 5.66667L74.8357 6.83333L79.5024 11.5L76.0024 12.6667L80.669 17.3333H64.3357L69.0024 12.6667L65.5024 11.5L70.169 6.83333L67.8357 5.66667L72.5024 1Z" stroke="url(#paint1_linear_1_57)" stroke-width="1.5" stroke-linecap="round" stroke-linejoin="round"/>
<path d="M50.0007 22V13.8333L44.1673 8L38.334 13.8333V22H44.1673M50.0007 22H44.1673M50.0007 22H59.334V2.16667C59.334 1.85725 59.2111 1.5605 58.9923 1.34171C58.7735 1.12292 58.4767 1 58.1673 1H46.5007C46.1912 1 45.8945 1.12292 45.6757 1.34171C45.4569 1.5605 45.334 1.85725 45.334 2.16667V9.16667M44.1673 22V17.3333M50.0007 5.66667V5.67667M54.6673 5.66667V5.67667M54.6673 10.3333V10.3433M54.6673 15V15.01" stroke="url(#paint2_linear_1_57)" stroke-width="1.5" stroke-linecap="round" stroke-linejoin="round"/>
<path d="M136.67 12.6662L134.336 10.3328M136.67 11.4995L139.003 9.16617M136.67 21.9995V6.83284M134.131 16.1603C133.621 16.1305 133.123 15.9891 132.673 15.7462C132.223 15.5033 131.832 15.1647 131.527 14.7544C131.222 14.344 131.01 13.8718 130.907 13.3709C130.804 12.8701 130.812 12.3527 130.931 11.8553C130.507 11.5034 130.173 11.0565 129.955 10.5509C129.737 10.0454 129.641 9.49549 129.676 8.946C129.71 8.39651 129.874 7.86294 130.154 7.3887C130.434 6.91446 130.821 6.51295 131.285 6.21684C130.879 5.49427 130.742 4.65076 130.899 3.83662C131.056 3.02247 131.497 2.29056 132.144 1.77129C132.79 1.25203 133.6 0.979138 134.429 1.00125C135.258 1.02335 136.052 1.33902 136.67 1.89201C137.288 1.33989 138.081 1.02498 138.91 1.0033C139.738 0.981619 140.548 1.25459 141.194 1.77362C141.84 2.29266 142.281 3.02408 142.438 3.83771C142.595 4.65135 142.459 5.49441 142.053 6.21684C142.517 6.51269 142.905 6.91405 143.185 7.38825C143.465 7.86245 143.629 8.39607 143.664 8.94565C143.698 9.49523 143.603 10.0452 143.385 10.5509C143.167 11.0565 142.832 11.5034 142.408 11.8553C142.531 12.3696 142.535 12.9049 142.421 13.4211C142.307 13.9373 142.078 14.421 141.75 14.8358C141.422 15.2506 141.005 15.5858 140.529 15.8162C140.053 16.0466 139.532 16.1663 139.003 16.1662H134.336L134.131 16.1603Z" stroke="url(#paint3_linear_1_57)" stroke-width="1.5" stroke-linecap="round" stroke-linejoin="round"/>
<path d="M156.004 22V15C156.004 14.3812 156.25 13.7877 156.687 13.3501C157.125 12.9125 157.718 12.6667 158.337 12.6667H160.671C161.289 12.6667 161.883 12.9125 162.32 13.3501C162.758 13.7877 163.004 14.3812 163.004 15V22M151.337 11.5H149.004L159.504 1L170.004 11.5H167.671V19.6667C167.671 20.2855 167.425 20.879 166.987 21.3166C166.55 21.7542 165.956 22 165.337 22H153.671C153.052 22 152.458 21.7542 152.021 21.3166C151.583 20.879 151.337 20.2855 151.337 19.6667L151.337 11.5Z" stroke="url(#paint4_linear_1_57)" stroke-width="1.5" stroke-linecap="round" stroke-linejoin="round"/>
<path d="M256.669 3.33284L260.169 6.83284L257.836 7.99951L262.502 12.6662L259.002 13.8328L263.669 18.4995H253.169M255.502 21.9995V18.4995M247.336 12.6662L245.002 10.3328M247.336 11.4995L249.669 9.16617M247.336 21.9995V6.83284M244.797 16.1603C244.287 16.1305 243.789 15.9891 243.339 15.7462C242.889 15.5033 242.498 15.1647 242.193 14.7544C241.888 14.344 241.676 13.8718 241.573 13.3709C241.47 12.8701 241.478 12.3527 241.597 11.8553C241.174 11.5034 240.839 11.0565 240.621 10.5509C240.403 10.0454 240.307 9.49549 240.342 8.946C240.377 8.39651 240.54 7.86294 240.82 7.3887C241.1 6.91446 241.487 6.51295 241.952 6.21684C241.545 5.49427 241.408 4.65076 241.565 3.83662C241.722 3.02247 242.163 2.29056 242.81 1.77129C243.456 1.25203 244.266 0.979138 245.095 1.00125C245.924 1.02335 246.718 1.33902 247.336 1.89201C247.954 1.33989 248.748 1.02498 249.576 1.0033C250.404 0.981619 251.214 1.25459 251.86 1.77362C252.506 2.29266 252.947 3.02408 253.104 3.83771C253.261 4.65135 253.125 5.49441 252.719 6.21684C253.183 6.51269 253.571 6.91405 253.851 7.38825C254.131 7.86245 254.295 8.39607 254.33 8.94565C254.365 9.49523 254.269 10.0452 254.051 10.5509C253.833 11.0565 253.498 11.5034 253.075 11.8553C253.197 12.3696 253.201 12.9049 253.087 13.4211C252.973 13.9373 252.744 14.421 252.416 14.8358C252.089 15.2506 251.671 15.5858 251.195 15.8162C250.72 16.0466 250.198 16.1663 249.669 16.1662H245.002L244.797 16.1603Z" stroke="url(#paint5_linear_1_57)" stroke-width="1.5" stroke-linecap="round" stroke-linejoin="round"/>
<path d="M332.004 21.8333H353.004M333.171 21.8333V4.33333C333.171 3.7145 333.416 3.121 333.854 2.68342C334.292 2.24583 334.885 2 335.504 2H349.504C350.123 2 350.716 2.24583 351.154 2.68342C351.591 3.121 351.837 3.7145 351.837 4.33333V21.8333M339.004 21.8333V12.5C339.004 11.5717 339.373 10.6815 340.029 10.0251C340.685 9.36875 341.576 9 342.504 9C343.432 9 344.322 9.36875 344.979 10.0251C345.635 10.6815 346.004 11.5717 346.004 12.5V21.8333" stroke="url(#paint6_linear_1_57)" stroke-width="1.5" stroke-linecap="round" stroke-linejoin="round"/>
<path d="M383.334 3.33284L386.834 6.83284L384.501 7.99951L389.167 12.6662L385.667 13.8328L390.334 18.4995H379.834M382.167 21.9995V18.4995M374.001 12.6662L371.667 10.3328M374.001 11.4995L376.334 9.16617M374.001 21.9995V6.83284M371.462 16.1603C370.952 16.1305 370.454 15.9891 370.004 15.7462C369.554 15.5033 369.163 15.1647 368.858 14.7544C368.553 14.344 368.341 13.8718 368.238 13.3709C368.135 12.8701 368.143 12.3527 368.262 11.8553C367.838 11.5034 367.504 11.0565 367.286 10.5509C367.068 10.0454 366.972 9.49549 367.007 8.946C367.041 8.39651 367.205 7.86294 367.485 7.3887C367.765 6.91446 368.152 6.51295 368.617 6.21684C368.21 5.49427 368.073 4.65076 368.23 3.83662C368.387 3.02247 368.828 2.29056 369.475 1.77129C370.121 1.25203 370.931 0.979138 371.76 1.00125C372.589 1.02335 373.383 1.33902 374.001 1.89201C374.619 1.33989 375.413 1.02498 376.241 1.0033C377.069 0.981619 377.879 1.25459 378.525 1.77362C379.171 2.29266 379.612 3.02408 379.769 3.83771C379.926 4.65135 379.79 5.49441 379.384 6.21684C379.848 6.51269 380.236 6.91405 380.516 7.38825C380.796 7.86245 380.96 8.39607 380.995 8.94565C381.029 9.49523 380.934 10.0452 380.716 10.5509C380.498 11.0565 380.163 11.5034 379.74 11.8553C379.862 12.3696 379.866 12.9049 379.752 13.4211C379.638 13.9373 379.409 14.421 379.081 14.8358C378.753 15.2506 378.336 15.5858 377.86 15.8162C377.384 16.0466 376.863 16.1663 376.334 16.1662H371.667L371.462 16.1603Z" stroke="url(#paint7_linear_1_57)" stroke-width="1.5" stroke-linecap="round" stroke-linejoin="round"/>
<path d="M467.67 12.6662L465.336 10.3328M467.67 11.4995L470.003 9.16617M467.67 21.9995V6.83284M465.131 16.1603C464.62 16.1305 464.123 15.9891 463.673 15.7462C463.223 15.5033 462.832 15.1647 462.527 14.7544C462.222 14.344 462.01 13.8718 461.907 13.3709C461.804 12.8701 461.812 12.3527 461.931 11.8553C461.507 11.5034 461.173 11.0565 460.955 10.5509C460.737 10.0454 460.641 9.49549 460.676 8.946C460.71 8.39651 460.874 7.86294 461.154 7.3887C461.434 6.91446 461.821 6.51295 462.285 6.21684C461.879 5.49427 461.742 4.65076 461.899 3.83662C462.056 3.02247 462.497 2.29056 463.144 1.77129C463.79 1.25203 464.6 0.979138 465.429 1.00125C466.258 1.02335 467.052 1.33902 467.67 1.89201C468.288 1.33989 469.081 1.02498 469.91 1.0033C470.738 0.981619 471.548 1.25459 472.194 1.77362C472.84 2.29266 473.28 3.02408 473.438 3.83771C473.595 4.65135 473.459 5.49441 473.053 6.21684C473.517 6.51269 473.905 6.91405 474.185 7.38825C474.465 7.86245 474.629 8.39607 474.664 8.94565C474.698 9.49523 474.603 10.0452 474.385 10.5509C474.166 11.0565 473.832 11.5034 473.408 11.8553C473.531 12.3696 473.535 12.9049 473.421 13.4211C473.307 13.9373 473.078 14.421 472.75 14.8358C472.422 15.2506 472.005 15.5858 471.529 15.8162C471.053 16.0466 470.532 16.1663 470.003 16.1662H465.336L465.131 16.1603Z" stroke="url(#paint8_linear_1_57)" stroke-width="1.5" stroke-linecap="round" stroke-linejoin="round"/>
<path d="M487.004 22V15C487.004 14.3812 487.25 13.7877 487.687 13.3501C488.125 12.9125 488.718 12.6667 489.337 12.6667H491.671C492.289 12.6667 492.883 12.9125 493.32 13.3501C493.758 13.7877 494.004 14.3812 494.004 15V22M482.337 11.5H480.004L490.504 1L501.004 11.5H498.671V19.6667C498.671 20.2855 498.425 20.879 497.987 21.3166C497.55 21.7542 496.956 22 496.337 22H484.671C484.052 22 483.458 21.7542 483.021 21.3166C482.583 20.879 482.337 20.2855 482.337 19.6667L482.337 11.5Z" stroke="url(#paint9_linear_1_57)" stroke-width="1.5" stroke-linecap="round" stroke-linejoin="round"/>
<path d="M566.334 3.33284L569.834 6.83284L567.501 7.99951L572.167 12.6662L568.667 13.8328L573.334 18.4995H562.834M565.167 21.9995V18.4995M557.001 12.6662L554.667 10.3328M557.001 11.4995L559.334 9.16617M557.001 21.9995V6.83284M554.462 16.1603C553.952 16.1305 553.454 15.9891 553.004 15.7462C552.554 15.5033 552.163 15.1647 551.858 14.7544C551.553 14.344 551.341 13.8718 551.238 13.3709C551.135 12.8701 551.143 12.3527 551.262 11.8553C550.838 11.5034 550.504 11.0565 550.286 10.5509C550.068 10.0454 549.972 9.49549 550.007 8.946C550.041 8.39651 550.205 7.86294 550.485 7.3887C550.765 6.91446 551.152 6.51295 551.617 6.21684C551.21 5.49427 551.073 4.65076 551.23 3.83662C551.387 3.02247 551.828 2.29056 552.475 1.77129C553.121 1.25203 553.931 0.979138 554.76 1.00125C555.589 1.02335 556.383 1.33902 557.001 1.89201C557.619 1.33989 558.413 1.02498 559.241 1.0033C560.069 0.981619 560.879 1.25459 561.525 1.77362C562.171 2.29266 562.612 3.02408 562.769 3.83771C562.926 4.65135 562.79 5.49441 562.384 6.21684C562.848 6.51269 563.236 6.91405 563.516 7.38825C563.796 7.86245 563.96 8.39607 563.995 8.94565C564.029 9.49523 563.934 10.0452 563.716 10.5509C563.498 11.0565 563.163 11.5034 562.74 11.8553C562.862 12.3696 562.866 12.9049 562.752 13.4211C562.638 13.9373 562.409 14.421 562.081 14.8358C561.753 15.2506 561.336 15.5858 560.86 15.8162C560.384 16.0466 559.863 16.1663 559.334 16.1662H554.667L554.462 16.1603Z" stroke="url(#paint10_linear_1_57)" stroke-width="1.5" stroke-linecap="round" stroke-linejoin="round"/>
<path d="M623.836 17.3333V20.8333C623.836 21.1427 623.713 21.4395 623.494 21.6583C623.275 21.8771 622.978 22 622.669 22H620.336C620.026 22 619.73 21.8771 619.511 21.6583C619.292 21.4395 619.169 21.1427 619.169 20.8333V17.3333M621.502 1L626.169 5.66667L623.836 6.83333L628.502 11.5L625.002 12.6667L629.669 17.3333H613.336L618.002 12.6667L614.502 11.5L619.169 6.83333L616.836 5.66667L621.502 1Z" stroke="url(#paint11_linear_1_57)" stroke-width="1.5" stroke-linecap="round" stroke-linejoin="round"/>
<path d="M599.001 22V13.8333L593.167 8L587.334 13.8333V22H593.167M599.001 22H593.167M599.001 22H608.334V2.16667C608.334 1.85725 608.211 1.5605 607.992 1.34171C607.773 1.12292 607.477 1 607.167 1H595.501C595.191 1 594.894 1.12292 594.676 1.34171C594.457 1.5605 594.334 1.85725 594.334 2.16667V9.16667M593.167 22V17.3333M599.001 5.66667V5.67667M603.667 5.66667V5.67667M603.667 10.3333V10.3433M603.667 15V15.01" stroke="url(#paint12_linear_1_57)" stroke-width="1.5" stroke-linecap="round" stroke-linejoin="round"/>
<path d="M749.334 4.33284L752.834 7.83284L750.501 8.99951L755.167 13.6662L751.667 14.8328L756.334 19.4995H745.834M748.167 22.9995V19.4995M740.001 13.6662L737.667 11.3328M740.001 12.4995L742.334 10.1662M740.001 22.9995V7.83284M737.462 17.1603C736.952 17.1305 736.454 16.9891 736.004 16.7462C735.554 16.5033 735.163 16.1647 734.858 15.7544C734.553 15.344 734.341 14.8718 734.238 14.3709C734.135 13.8701 734.143 13.3527 734.262 12.8553C733.838 12.5034 733.504 12.0565 733.286 11.5509C733.068 11.0454 732.972 10.4955 733.007 9.946C733.041 9.39651 733.205 8.86294 733.485 8.3887C733.765 7.91446 734.152 7.51295 734.617 7.21684C734.21 6.49427 734.073 5.65076 734.23 4.83662C734.387 4.02247 734.828 3.29056 735.475 2.77129C736.121 2.25203 736.931 1.97914 737.76 2.00125C738.589 2.02335 739.383 2.33902 740.001 2.89201C740.619 2.33989 741.413 2.02498 742.241 2.0033C743.069 1.98162 743.879 2.25459 744.525 2.77362C745.171 3.29266 745.612 4.02408 745.769 4.83771C745.926 5.65135 745.79 6.49441 745.384 7.21684C745.848 7.51269 746.236 7.91405 746.516 8.38825C746.796 8.86245 746.96 9.39607 746.995 9.94565C747.029 10.4952 746.934 11.0452 746.716 11.5509C746.498 12.0565 746.163 12.5034 745.74 12.8553C745.862 13.3696 745.866 13.9049 745.752 14.4211C745.638 14.9373 745.409 15.421 745.081 15.8358C744.753 16.2506 744.336 16.5858 743.86 16.8162C743.384 17.0466 742.863 17.1663 742.334 17.1662H737.667L737.462 17.1603Z" stroke="url(#paint13_linear_1_57)" stroke-width="1.5" stroke-linecap="round" stroke-linejoin="round"/>
<path d="M826.669 22.8333H847.669M827.836 22.8333V5.33333C827.836 4.7145 828.081 4.121 828.519 3.68342C828.957 3.24583 829.55 3 830.169 3H844.169C844.788 3 845.381 3.24583 845.819 3.68342C846.256 4.121 846.502 4.7145 846.502 5.33333V22.8333M833.669 22.8333V13.5C833.669 12.5717 834.038 11.6815 834.694 11.0251C835.35 10.3687 836.241 10 837.169 10C838.097 10 838.987 10.3687 839.644 11.0251C840.3 11.6815 840.669 12.5717 840.669 13.5V22.8333" stroke="url(#paint14_linear_1_57)" stroke-width="1.5" stroke-linecap="round" stroke-linejoin="round"/>
<path d="M952.502 18.3333V21.8333C952.502 22.1427 952.379 22.4395 952.16 22.6583C951.941 22.8771 951.644 23 951.335 23H949.002C948.692 23 948.396 22.8771 948.177 22.6583C947.958 22.4395 947.835 22.1427 947.835 21.8333V18.3333M950.168 2L954.835 6.66667L952.502 7.83333L957.168 12.5L953.668 13.6667L958.335 18.3333H942.002L946.668 13.6667L943.168 12.5L947.835 7.83333L945.502 6.66667L950.168 2Z" stroke="url(#paint15_linear_1_57)" stroke-width="1.5" stroke-linecap="round" stroke-linejoin="round"/>
<path d="M927.667 23V14.8333L921.833 9L916 14.8333V23H921.833M927.667 23H921.833M927.667 23H937V3.16667C937 2.85725 936.877 2.5605 936.658 2.34171C936.439 2.12292 936.143 2 935.833 2H924.167C923.857 2 923.561 2.12292 923.342 2.34171C923.123 2.5605 923 2.85725 923 3.16667V10.1667M921.833 23V18.3333M927.667 6.66667V6.67667M932.333 6.66667V6.67667M932.333 11.3333V11.3433M932.333 16V16.01" stroke="url(#paint16_linear_1_57)" stroke-width="1.5" stroke-linecap="round" stroke-linejoin="round"/>
<path d="M1016.67 13.6662L1014.34 11.3328M1016.67 12.4995L1019 10.1662M1016.67 22.9995V7.83284M1014.13 17.1603C1013.62 17.1305 1013.12 16.9891 1012.67 16.7462C1012.22 16.5033 1011.83 16.1647 1011.53 15.7544C1011.22 15.344 1011.01 14.8718 1010.91 14.3709C1010.8 13.8701 1010.81 13.3527 1010.93 12.8553C1010.51 12.5034 1010.17 12.0565 1009.95 11.5509C1009.74 11.0454 1009.64 10.4955 1009.68 9.946C1009.71 9.39651 1009.87 8.86294 1010.15 8.3887C1010.43 7.91446 1010.82 7.51295 1011.29 7.21684C1010.88 6.49427 1010.74 5.65076 1010.9 4.83662C1011.06 4.02247 1011.5 3.29056 1012.14 2.77129C1012.79 2.25203 1013.6 1.97914 1014.43 2.00125C1015.26 2.02335 1016.05 2.33902 1016.67 2.89201C1017.29 2.33989 1018.08 2.02498 1018.91 2.0033C1019.74 1.98162 1020.55 2.25459 1021.19 2.77362C1021.84 3.29266 1022.28 4.02408 1022.44 4.83771C1022.6 5.65135 1022.46 6.49441 1022.05 7.21684C1022.52 7.51269 1022.91 7.91405 1023.19 8.38825C1023.47 8.86245 1023.63 9.39607 1023.66 9.94565C1023.7 10.4952 1023.6 11.0452 1023.38 11.5509C1023.17 12.0565 1022.83 12.5034 1022.41 12.8553C1022.53 13.3696 1022.54 13.9049 1022.42 14.4211C1022.31 14.9373 1022.08 15.421 1021.75 15.8358C1021.42 16.2506 1021 16.5858 1020.53 16.8162C1020.05 17.0466 1019.53 17.1663 1019 17.1662H1014.34L1014.13 17.1603Z" stroke="url(#paint17_linear_1_57)" stroke-width="1.5" stroke-linecap="round" stroke-linejoin="round"/>
<path d="M1036 23V16C1036 15.3812 1036.25 14.7877 1036.69 14.3501C1037.12 13.9125 1037.72 13.6667 1038.34 13.6667H1040.67C1041.29 13.6667 1041.88 13.9125 1042.32 14.3501C1042.76 14.7877 1043 15.3812 1043 16V23M1031.34 12.5H1029L1039.5 2L1050 12.5H1047.67V20.6667C1047.67 21.2855 1047.42 21.879 1046.99 22.3166C1046.55 22.7542 1045.96 23 1045.34 23H1033.67C1033.05 23 1032.46 22.7542 1032.02 22.3166C1031.58 21.879 1031.34 21.2855 1031.34 20.6667L1031.34 12.5Z" stroke="url(#paint18_linear_1_57)" stroke-width="1.5" stroke-linecap="round" stroke-linejoin="round"/>
<defs>
<linearGradient id="paint0_linear_1_57" x1="12.667" y1="1" x2="12.667" y2="21.9995" gradientUnits="userSpaceOnUse">
<stop stop-color="#DEDEDE"/>
<stop offset="1" stop-color="#DEDEDE" stop-opacity="0.04"/>
</linearGradient>
<linearGradient id="paint1_linear_1_57" x1="72.5024" y1="1" x2="72.5024" y2="22" gradientUnits="userSpaceOnUse">
<stop stop-color="#DEDEDE"/>
<stop offset="1" stop-color="#DEDEDE" stop-opacity="0.04"/>
</linearGradient>
<linearGradient id="paint2_linear_1_57" x1="48.834" y1="1" x2="48.834" y2="22" gradientUnits="userSpaceOnUse">
<stop stop-color="#DEDEDE"/>
<stop offset="1" stop-color="#DEDEDE" stop-opacity="0.04"/>
</linearGradient>
<linearGradient id="paint3_linear_1_57" x1="136.67" y1="1" x2="136.67" y2="21.9995" gradientUnits="userSpaceOnUse">
<stop stop-color="#DEDEDE"/>
<stop offset="1" stop-color="#DEDEDE" stop-opacity="0.04"/>
</linearGradient>
<linearGradient id="paint4_linear_1_57" x1="159.504" y1="1" x2="159.504" y2="22" gradientUnits="userSpaceOnUse">
<stop stop-color="#DEDEDE"/>
<stop offset="1" stop-color="#DEDEDE" stop-opacity="0.04"/>
</linearGradient>
<linearGradient id="paint5_linear_1_57" x1="252.002" y1="1" x2="252.002" y2="21.9995" gradientUnits="userSpaceOnUse">
<stop stop-color="#DEDEDE"/>
<stop offset="1" stop-color="#DEDEDE" stop-opacity="0.04"/>
</linearGradient>
<linearGradient id="paint6_linear_1_57" x1="342.504" y1="2" x2="342.504" y2="21.8333" gradientUnits="userSpaceOnUse">
<stop stop-color="#DEDEDE"/>
<stop offset="1" stop-color="#DEDEDE" stop-opacity="0.04"/>
</linearGradient>
<linearGradient id="paint7_linear_1_57" x1="378.667" y1="1" x2="378.667" y2="21.9995" gradientUnits="userSpaceOnUse">
<stop stop-color="#DEDEDE"/>
<stop offset="1" stop-color="#DEDEDE" stop-opacity="0.04"/>
</linearGradient>
<linearGradient id="paint8_linear_1_57" x1="467.67" y1="1" x2="467.67" y2="21.9995" gradientUnits="userSpaceOnUse">
<stop stop-color="#DEDEDE"/>
<stop offset="1" stop-color="#DEDEDE" stop-opacity="0.04"/>
</linearGradient>
<linearGradient id="paint9_linear_1_57" x1="490.504" y1="1" x2="490.504" y2="22" gradientUnits="userSpaceOnUse">
<stop stop-color="#DEDEDE"/>
<stop offset="1" stop-color="#DEDEDE" stop-opacity="0.04"/>
</linearGradient>
<linearGradient id="paint10_linear_1_57" x1="561.667" y1="1" x2="561.667" y2="21.9995" gradientUnits="userSpaceOnUse">
<stop stop-color="#DEDEDE"/>
<stop offset="1" stop-color="#DEDEDE" stop-opacity="0.04"/>
</linearGradient>
<linearGradient id="paint11_linear_1_57" x1="621.502" y1="1" x2="621.502" y2="22" gradientUnits="userSpaceOnUse">
<stop stop-color="#DEDEDE"/>
<stop offset="1" stop-color="#DEDEDE" stop-opacity="0.04"/>
</linearGradient>
<linearGradient id="paint12_linear_1_57" x1="597.834" y1="1" x2="597.834" y2="22" gradientUnits="userSpaceOnUse">
<stop stop-color="#DEDEDE"/>
<stop offset="1" stop-color="#DEDEDE" stop-opacity="0.04"/>
</linearGradient>
<linearGradient id="paint13_linear_1_57" x1="744.667" y1="2" x2="744.667" y2="22.9995" gradientUnits="userSpaceOnUse">
<stop stop-color="#DEDEDE"/>
<stop offset="1" stop-color="#DEDEDE" stop-opacity="0.04"/>
</linearGradient>
<linearGradient id="paint14_linear_1_57" x1="837.169" y1="3" x2="837.169" y2="22.8333" gradientUnits="userSpaceOnUse">
<stop stop-color="#DEDEDE"/>
<stop offset="1" stop-color="#DEDEDE" stop-opacity="0.04"/>
</linearGradient>
<linearGradient id="paint15_linear_1_57" x1="950.168" y1="2" x2="950.168" y2="23" gradientUnits="userSpaceOnUse">
<stop stop-color="#DEDEDE"/>
<stop offset="1" stop-color="#DEDEDE" stop-opacity="0.04"/>
</linearGradient>
<linearGradient id="paint16_linear_1_57" x1="926.5" y1="2" x2="926.5" y2="23" gradientUnits="userSpaceOnUse">
<stop stop-color="#DEDEDE"/>
<stop offset="1" stop-color="#DEDEDE" stop-opacity="0.04"/>
</linearGradient>
<linearGradient id="paint17_linear_1_57" x1="1016.67" y1="2" x2="1016.67" y2="22.9995" gradientUnits="userSpaceOnUse">
<stop stop-color="#DEDEDE"/>
<stop offset="1" stop-color="#DEDEDE" stop-opacity="0.04"/>
</linearGradient>
<linearGradient id="paint18_linear_1_57" x1="1039.5" y1="2" x2="1039.5" y2="23" gradientUnits="userSpaceOnUse">
<stop stop-color="#DEDEDE"/>
<stop offset="1" stop-color="#DEDEDE" stop-opacity="0.04"/>
</linearGradient>
</defs>
</svg>
