# MagicaVoxel @ Ephtracy

# material
mtllib parking-lane.mtl
usemtl palette

# normals
vn -1 0 0
vn 1 0 0
vn 0 0 1
vn 0 0 -1
vn 0 -1 0
vn 0 1 0

# texcoords
vt 0.958984 0.5
vt 0.962891 0.5
vt 0.978516 0.5

# verts
v -12 0 62.5
v -12 0 58.5
v -12 0 25.5
v -12 0 17.5
v -12 0 -17.5
v -12 0 -25.5
v -12 0 -58.5
v -12 0 -62.5
v -12 1 62.5
v -12 1 58.5
v -12 1 25.5
v -12 1 17.5
v -12 1 -17.5
v -12 1 -25.5
v -12 1 -58.5
v -12 1 -62.5
v 12 0 62.5
v 12 0 58.5
v 12 0 25.5
v 12 0 17.5
v 12 0 -17.5
v 12 0 -25.5
v 12 0 -58.5
v 12 0 -62.5
v 12 1 62.5
v 12 1 58.5
v 12 1 25.5
v 12 1 17.5
v 12 1 -17.5
v 12 1 -25.5
v 12 1 -58.5
v 12 1 -62.5
v -12 0 62.5
v -12 1 62.5
v -7 0 62.5
v -7 1 62.5
v 7 0 62.5
v 7 1 62.5
v 12 0 62.5
v 12 1 62.5
v -12 0 -62.5
v -12 1 -62.5
v -7 0 -62.5
v -7 1 -62.5
v 7 0 -62.5
v 7 1 -62.5
v 12 0 -62.5
v 12 1 -62.5
v -12 0 62.5
v -7 0 62.5
v 7 0 62.5
v 12 0 62.5
v -10 0 61.5
v -7 0 61.5
v 7 0 61.5
v 10 0 61.5
v -12 0 58.5
v -10 0 58.5
v 10 0 58.5
v 12 0 58.5
v -12 0 25.5
v -10 0 25.5
v 10 0 25.5
v 12 0 25.5
v -10 0 22.5
v -7 0 22.5
v 7 0 22.5
v 10 0 22.5
v -10 0 20.5
v -7 0 20.5
v 7 0 20.5
v 10 0 20.5
v -12 0 17.5
v -10 0 17.5
v 10 0 17.5
v 12 0 17.5
v -12 0 -17.5
v -10 0 -17.5
v 10 0 -17.5
v 12 0 -17.5
v -10 0 -20.5
v -7 0 -20.5
v 7 0 -20.5
v 10 0 -20.5
v -10 0 -22.5
v -7 0 -22.5
v 7 0 -22.5
v 10 0 -22.5
v -12 0 -25.5
v -10 0 -25.5
v 10 0 -25.5
v 12 0 -25.5
v -12 0 -58.5
v -10 0 -58.5
v 10 0 -58.5
v 12 0 -58.5
v -10 0 -61.5
v -7 0 -61.5
v 7 0 -61.5
v 10 0 -61.5
v -12 0 -62.5
v -7 0 -62.5
v 7 0 -62.5
v 12 0 -62.5
v -12 1 62.5
v -7 1 62.5
v 7 1 62.5
v 12 1 62.5
v -10 1 61.5
v -7 1 61.5
v 7 1 61.5
v 10 1 61.5
v -12 1 58.5
v -10 1 58.5
v 10 1 58.5
v 12 1 58.5
v -12 1 25.5
v -10 1 25.5
v 10 1 25.5
v 12 1 25.5
v -10 1 22.5
v -7 1 22.5
v 7 1 22.5
v 10 1 22.5
v -10 1 20.5
v -7 1 20.5
v 7 1 20.5
v 10 1 20.5
v -12 1 17.5
v -10 1 17.5
v 10 1 17.5
v 12 1 17.5
v -12 1 -17.5
v -10 1 -17.5
v 10 1 -17.5
v 12 1 -17.5
v -10 1 -20.5
v -7 1 -20.5
v 7 1 -20.5
v 10 1 -20.5
v -10 1 -22.5
v -7 1 -22.5
v 7 1 -22.5
v 10 1 -22.5
v -12 1 -25.5
v -10 1 -25.5
v 10 1 -25.5
v 12 1 -25.5
v -12 1 -58.5
v -10 1 -58.5
v 10 1 -58.5
v 12 1 -58.5
v -10 1 -61.5
v -7 1 -61.5
v 7 1 -61.5
v 10 1 -61.5
v -12 1 -62.5
v -7 1 -62.5
v 7 1 -62.5
v 12 1 -62.5

# faces
f 9/1/1 2/1/1 1/1/1
f 10/3/1 3/3/1 2/3/1
f 10/1/1 2/1/1 9/1/1
f 11/1/1 4/1/1 3/1/1
f 11/3/1 3/3/1 10/3/1
f 12/3/1 5/3/1 4/3/1
f 12/1/1 4/1/1 11/1/1
f 13/1/1 6/1/1 5/1/1
f 13/3/1 5/3/1 12/3/1
f 14/3/1 7/3/1 6/3/1
f 14/1/1 6/1/1 13/1/1
f 15/1/1 8/1/1 7/1/1
f 15/3/1 7/3/1 14/3/1
f 16/1/1 8/1/1 15/1/1
f 17/2/2 18/2/2 25/2/2
f 18/3/2 19/3/2 26/3/2
f 25/2/2 18/2/2 26/2/2
f 19/2/2 20/2/2 27/2/2
f 26/3/2 19/3/2 27/3/2
f 20/3/2 21/3/2 28/3/2
f 27/2/2 20/2/2 28/2/2
f 21/1/2 22/1/2 29/1/2
f 28/3/2 21/3/2 29/3/2
f 22/3/2 23/3/2 30/3/2
f 29/1/2 22/1/2 30/1/2
f 23/1/2 24/1/2 31/1/2
f 30/3/2 23/3/2 31/3/2
f 31/1/2 24/1/2 32/1/2
f 35/1/3 34/1/3 33/1/3
f 36/1/3 34/1/3 35/1/3
f 37/3/3 36/3/3 35/3/3
f 38/3/3 36/3/3 37/3/3
f 39/2/3 38/2/3 37/2/3
f 40/2/3 38/2/3 39/2/3
f 41/1/4 42/1/4 43/1/4
f 43/1/4 42/1/4 44/1/4
f 43/3/4 44/3/4 45/3/4
f 45/3/4 44/3/4 46/3/4
f 45/1/4 46/1/4 47/1/4
f 47/1/4 46/1/4 48/1/4
f 53/1/5 50/1/5 49/1/5
f 54/3/5 51/3/5 50/3/5
f 54/1/5 50/1/5 53/1/5
f 55/2/5 52/2/5 51/2/5
f 55/3/5 51/3/5 54/3/5
f 56/2/5 52/2/5 55/2/5
f 57/1/5 53/1/5 49/1/5
f 58/3/5 54/3/5 53/3/5
f 58/1/5 53/1/5 57/1/5
f 58/3/5 55/3/5 54/3/5
f 58/3/5 56/3/5 55/3/5
f 59/2/5 52/2/5 56/2/5
f 59/3/5 56/3/5 58/3/5
f 60/2/5 52/2/5 59/2/5
f 61/3/5 58/3/5 57/3/5
f 61/3/5 59/3/5 58/3/5
f 61/3/5 60/3/5 59/3/5
f 62/3/5 60/3/5 61/3/5
f 63/3/5 60/3/5 62/3/5
f 64/3/5 60/3/5 63/3/5
f 65/1/5 62/1/5 61/1/5
f 65/3/5 63/3/5 62/3/5
f 66/3/5 63/3/5 65/3/5
f 67/3/5 63/3/5 66/3/5
f 68/2/5 64/2/5 63/2/5
f 68/3/5 63/3/5 67/3/5
f 69/1/5 65/1/5 61/1/5
f 69/1/5 66/1/5 65/1/5
f 70/3/5 67/3/5 66/3/5
f 70/1/5 66/1/5 69/1/5
f 71/2/5 68/2/5 67/2/5
f 71/3/5 67/3/5 70/3/5
f 72/2/5 64/2/5 68/2/5
f 72/2/5 68/2/5 71/2/5
f 73/1/5 69/1/5 61/1/5
f 74/3/5 71/3/5 70/3/5
f 74/1/5 69/1/5 73/1/5
f 74/3/5 70/3/5 69/3/5
f 74/3/5 72/3/5 71/3/5
f 75/2/5 64/2/5 72/2/5
f 75/3/5 72/3/5 74/3/5
f 76/2/5 64/2/5 75/2/5
f 77/3/5 74/3/5 73/3/5
f 77/3/5 75/3/5 74/3/5
f 77/3/5 76/3/5 75/3/5
f 78/3/5 76/3/5 77/3/5
f 79/3/5 76/3/5 78/3/5
f 80/3/5 76/3/5 79/3/5
f 81/1/5 78/1/5 77/1/5
f 81/3/5 79/3/5 78/3/5
f 82/3/5 79/3/5 81/3/5
f 83/3/5 79/3/5 82/3/5
f 84/1/5 80/1/5 79/1/5
f 84/3/5 79/3/5 83/3/5
f 85/1/5 81/1/5 77/1/5
f 85/1/5 82/1/5 81/1/5
f 86/3/5 83/3/5 82/3/5
f 86/1/5 82/1/5 85/1/5
f 87/1/5 84/1/5 83/1/5
f 87/3/5 83/3/5 86/3/5
f 88/1/5 80/1/5 84/1/5
f 88/1/5 84/1/5 87/1/5
f 89/1/5 85/1/5 77/1/5
f 90/3/5 87/3/5 86/3/5
f 90/1/5 85/1/5 89/1/5
f 90/3/5 86/3/5 85/3/5
f 90/3/5 88/3/5 87/3/5
f 91/1/5 80/1/5 88/1/5
f 91/3/5 88/3/5 90/3/5
f 92/1/5 80/1/5 91/1/5
f 93/3/5 90/3/5 89/3/5
f 93/3/5 91/3/5 90/3/5
f 93/3/5 92/3/5 91/3/5
f 94/3/5 92/3/5 93/3/5
f 95/3/5 92/3/5 94/3/5
f 96/3/5 92/3/5 95/3/5
f 97/1/5 94/1/5 93/1/5
f 97/3/5 95/3/5 94/3/5
f 98/3/5 95/3/5 97/3/5
f 99/3/5 95/3/5 98/3/5
f 100/1/5 96/1/5 95/1/5
f 100/3/5 95/3/5 99/3/5
f 101/1/5 97/1/5 93/1/5
f 101/1/5 98/1/5 97/1/5
f 102/3/5 99/3/5 98/3/5
f 102/1/5 98/1/5 101/1/5
f 103/1/5 100/1/5 99/1/5
f 103/3/5 99/3/5 102/3/5
f 104/1/5 96/1/5 100/1/5
f 104/1/5 100/1/5 103/1/5
f 105/1/6 106/1/6 109/1/6
f 106/3/6 107/3/6 110/3/6
f 109/1/6 106/1/6 110/1/6
f 107/2/6 108/2/6 111/2/6
f 110/3/6 107/3/6 111/3/6
f 111/2/6 108/2/6 112/2/6
f 105/1/6 109/1/6 113/1/6
f 109/3/6 110/3/6 114/3/6
f 113/1/6 109/1/6 114/1/6
f 110/3/6 111/3/6 114/3/6
f 111/3/6 112/3/6 114/3/6
f 112/2/6 108/2/6 115/2/6
f 114/3/6 112/3/6 115/3/6
f 115/2/6 108/2/6 116/2/6
f 113/3/6 114/3/6 117/3/6
f 114/3/6 115/3/6 117/3/6
f 115/3/6 116/3/6 117/3/6
f 117/3/6 116/3/6 118/3/6
f 118/3/6 116/3/6 119/3/6
f 119/3/6 116/3/6 120/3/6
f 117/1/6 118/1/6 121/1/6
f 118/3/6 119/3/6 121/3/6
f 121/3/6 119/3/6 122/3/6
f 122/3/6 119/3/6 123/3/6
f 119/2/6 120/2/6 124/2/6
f 123/3/6 119/3/6 124/3/6
f 117/1/6 121/1/6 125/1/6
f 121/1/6 122/1/6 125/1/6
f 122/3/6 123/3/6 126/3/6
f 125/1/6 122/1/6 126/1/6
f 123/2/6 124/2/6 127/2/6
f 126/3/6 123/3/6 127/3/6
f 124/2/6 120/2/6 128/2/6
f 127/2/6 124/2/6 128/2/6
f 117/1/6 125/1/6 129/1/6
f 126/3/6 127/3/6 130/3/6
f 129/1/6 125/1/6 130/1/6
f 125/3/6 126/3/6 130/3/6
f 127/3/6 128/3/6 130/3/6
f 128/2/6 120/2/6 131/2/6
f 130/3/6 128/3/6 131/3/6
f 131/2/6 120/2/6 132/2/6
f 129/3/6 130/3/6 133/3/6
f 130/3/6 131/3/6 133/3/6
f 131/3/6 132/3/6 133/3/6
f 133/3/6 132/3/6 134/3/6
f 134/3/6 132/3/6 135/3/6
f 135/3/6 132/3/6 136/3/6
f 133/1/6 134/1/6 137/1/6
f 134/3/6 135/3/6 137/3/6
f 137/3/6 135/3/6 138/3/6
f 138/3/6 135/3/6 139/3/6
f 135/1/6 136/1/6 140/1/6
f 139/3/6 135/3/6 140/3/6
f 133/1/6 137/1/6 141/1/6
f 137/1/6 138/1/6 141/1/6
f 138/3/6 139/3/6 142/3/6
f 141/1/6 138/1/6 142/1/6
f 139/1/6 140/1/6 143/1/6
f 142/3/6 139/3/6 143/3/6
f 140/1/6 136/1/6 144/1/6
f 143/1/6 140/1/6 144/1/6
f 133/1/6 141/1/6 145/1/6
f 142/3/6 143/3/6 146/3/6
f 145/1/6 141/1/6 146/1/6
f 141/3/6 142/3/6 146/3/6
f 143/3/6 144/3/6 146/3/6
f 144/1/6 136/1/6 147/1/6
f 146/3/6 144/3/6 147/3/6
f 147/1/6 136/1/6 148/1/6
f 145/3/6 146/3/6 149/3/6
f 146/3/6 147/3/6 149/3/6
f 147/3/6 148/3/6 149/3/6
f 149/3/6 148/3/6 150/3/6
f 150/3/6 148/3/6 151/3/6
f 151/3/6 148/3/6 152/3/6
f 149/1/6 150/1/6 153/1/6
f 150/3/6 151/3/6 153/3/6
f 153/3/6 151/3/6 154/3/6
f 154/3/6 151/3/6 155/3/6
f 151/1/6 152/1/6 156/1/6
f 155/3/6 151/3/6 156/3/6
f 149/1/6 153/1/6 157/1/6
f 153/1/6 154/1/6 157/1/6
f 154/3/6 155/3/6 158/3/6
f 157/1/6 154/1/6 158/1/6
f 155/1/6 156/1/6 159/1/6
f 158/3/6 155/3/6 159/3/6
f 156/1/6 152/1/6 160/1/6
f 159/1/6 156/1/6 160/1/6
