# 3ds Max Wavefront OBJ Exporter v0.97b - (c)2007 guruware
# File Created: 15.03.2017 11:12:09

mtllib SPW_Urban_Road Props_Street Light_02.mtl

#
# object SPW_Urban_Road_Props_Street_Light_02
#

v  2.8537 0.0000 -4.8793
v  1.9751 293.6602 -3.3771
v  3.3771 293.6602 -1.9751
v  4.8793 0.0000 -2.8537
v  -2.8537 0.0000 -4.8793
v  -1.9751 293.6602 -3.3771
v  -3.3771 293.6602 -1.9751
v  -3.3771 293.6602 1.9751
v  -1.9751 293.6602 3.3771
v  1.9751 293.6602 3.3771
v  3.3771 293.6602 1.9751
v  4.8793 -0.0000 2.8537
v  -4.8793 0.0000 -2.8537
v  -4.8793 -0.0000 2.8537
v  -2.8537 -0.0000 4.8793
v  2.8537 -0.0000 4.8793
v  106.1901 317.6426 -9.2367
v  106.1901 317.6426 9.2368
v  106.5438 316.2495 9.2368
v  106.5438 316.2495 -9.2367
v  95.6034 321.6523 -6.5984
v  95.6034 321.6523 6.5984
v  66.7617 307.5824 6.3440
v  67.0165 306.6685 6.3440
v  104.1539 311.3402 6.3583
v  104.1539 311.3402 -6.3582
v  67.0165 306.6685 -6.3440
v  66.7617 307.5824 -6.3440
v  65.6162 311.7118 -4.5319
v  65.6162 311.7118 4.5320
v  67.7671 304.0194 -4.3670
v  67.7671 304.0194 4.3670
v  -2.4858 291.2578 3.0695
v  -1.5566 287.7898 3.0695
v  73.4278 307.8818 3.0695
v  72.4986 311.3498 3.0695
v  -2.8156 292.4886 1.7952
v  72.1687 312.5806 1.7952
v  -2.8156 292.4886 -1.7951
v  -2.4858 291.2577 -3.0694
v  -1.5566 287.7897 -3.0694
v  -1.2268 286.5589 -1.7951
v  -1.2268 286.5589 1.7952
v  73.7576 306.6509 1.7952
v  72.1687 312.5806 -1.7951
v  73.7576 306.6509 -1.7951
v  73.4278 307.8817 -3.0694
v  72.4986 311.3498 -3.0694
v  22.1012 295.7434 -0.9701
v  22.1012 295.7434 0.9702
v  0.9701 272.2028 0.9702
v  0.9701 272.2028 -0.9701
v  20.1610 295.7434 -0.9701
v  -0.9701 272.2028 -0.9701
v  20.1610 295.7434 0.9702
v  -0.9701 272.2028 0.9702
v  -106.1901 317.6426 9.2368
v  -106.1901 317.6426 -9.2367
v  -106.5438 316.2495 -9.2367
v  -106.5438 316.2495 9.2368
v  -95.6034 321.6523 6.5984
v  -95.6034 321.6523 -6.5984
v  -66.7617 307.5824 -6.3440
v  -67.0165 306.6685 -6.3440
v  -104.1539 311.3402 -6.3582
v  -104.1539 311.3402 6.3583
v  -67.0165 306.6685 6.3441
v  -66.7617 307.5824 6.3441
v  -65.6162 311.7118 -4.5319
v  -65.6162 311.7118 4.5320
v  -67.7671 304.0194 -4.3670
v  -67.7671 304.0194 4.3670
v  2.4858 291.2578 -3.0694
v  1.5566 287.7898 -3.0694
v  -73.4278 307.8818 -3.0694
v  -72.4986 311.3498 -3.0694
v  2.8156 292.4886 -1.7951
v  -72.1687 312.5806 -1.7951
v  1.2268 286.5589 -1.7951
v  -73.7576 306.6509 -1.7951
v  2.8156 292.4886 1.7952
v  -72.1687 312.5806 1.7952
v  1.2268 286.5589 1.7952
v  2.4858 291.2577 3.0695
v  1.5566 287.7897 3.0695
v  -73.7576 306.6509 1.7952
v  -73.4278 307.8817 3.0695
v  -72.4986 311.3498 3.0695
v  -22.1012 295.7434 0.9702
v  -22.1012 295.7434 -0.9701
v  -20.1610 295.7434 0.9702
v  -20.1610 295.7434 -0.9701
# 92 vertices

vn 0.7071 0.0057 -0.7071
vn -0.0000 0.0051 -1.0000
vn 0.0000 1.0000 0.0000
vn 1.0000 0.0051 -0.0000
vn -0.7071 0.0057 -0.7071
vn -1.0000 0.0051 -0.0000
vn -0.7071 0.0057 0.7071
vn 0.0000 0.0051 1.0000
vn 0.7071 0.0057 0.7071
vn 0.0000 -1.0000 -0.0000
vn -0.0000 -1.0000 -0.0000
vn 0.9692 0.2461 0.0000
vn 0.3542 0.9352 0.0000
vn -0.0686 -0.0181 0.9975
vn 0.8991 -0.4377 -0.0000
vn -0.0686 -0.0181 -0.9975
vn -0.1526 0.2957 -0.9430
vn -0.1526 0.2957 0.9430
vn -0.3147 0.9492 0.0000
vn 0.0688 -0.5497 -0.8325
vn 0.0688 -0.5497 0.8325
vn 0.1972 -0.9804 -0.0000
vn -0.9633 -0.2686 -0.0000
vn -0.9636 -0.2673 -0.0000
vn -0.9621 -0.2726 -0.0000
vn -0.0000 0.0000 1.0000
vn -0.1830 0.6830 0.7071
vn -0.9659 -0.2588 0.0000
vn 0.1830 -0.6830 0.7071
vn -0.2588 0.9659 0.0000
vn 0.2588 -0.9659 0.0000
vn 0.9659 0.2588 0.0000
vn 0.9659 0.2588 -0.0000
vn -0.1830 0.6830 -0.7071
vn 0.1830 -0.6830 -0.7071
vn -0.0000 0.0000 -1.0000
vn 0.7442 -0.6680 -0.0000
vn 0.0000 -0.0000 1.0000
vn -0.7442 0.6680 0.0000
vn -0.9692 0.2461 0.0000
vn -0.3542 0.9352 0.0000
vn 0.0686 -0.0181 -0.9975
vn -0.8991 -0.4377 -0.0000
vn 0.0686 -0.0181 0.9975
vn 0.1526 0.2957 -0.9430
vn 0.1526 0.2957 0.9430
vn 0.3147 0.9492 0.0000
vn -0.0688 -0.5497 -0.8325
vn -0.0688 -0.5497 0.8325
vn -0.1972 -0.9804 -0.0000
vn 0.9633 -0.2686 -0.0000
vn 0.9636 -0.2673 -0.0000
vn 0.9621 -0.2726 -0.0000
vn 0.0000 0.0000 -1.0000
vn 0.1830 0.6830 -0.7071
vn -0.1830 -0.6830 -0.7071
vn 0.2588 0.9659 0.0000
vn 0.9659 -0.2588 -0.0000
vn -0.2588 -0.9659 -0.0000
vn -0.9659 0.2588 -0.0000
vn -0.9659 0.2588 0.0000
vn 0.1830 0.6830 0.7071
vn -0.1830 -0.6830 0.7071
vn -0.0000 -0.0000 1.0000
vn -0.7442 -0.6680 -0.0000
vn 0.7442 0.6680 0.0000
# 66 vertex normals

vt 0.0149 0.8952 0.0000
vt 0.0249 0.8952 0.0000
vt 0.0249 0.9073 0.0000
vt 0.0149 0.9073 0.0000
vt 0.0189 0.9073 0.0000
vt 0.0232 0.9055 0.0000
vt 0.0249 0.9012 0.0000
vt 0.0232 0.8969 0.0000
vt 0.0189 0.8952 0.0000
vt 0.0146 0.8969 0.0000
vt 0.0128 0.9012 0.0000
vt 0.0146 0.9055 0.0000
vt 0.0000 0.0000 0.0000
vt 0.0146 0.8935 0.0000
vt 0.0266 0.8935 0.0000
vt 0.0266 0.9055 0.0000
vt 0.0146 0.9716 0.0000
vt 0.0266 0.9716 0.0000
vt 0.0266 0.9836 0.0000
vt 0.0146 0.9836 0.0000
vt 0.0128 0.8952 0.0000
vt 0.0128 0.9073 0.0000
# 22 texture coords

g SPW_Urban_Road_Props_Street_Light_02
usemtl SPW_Urban_Road_Props_01
s off
f 1/1/1 2/2/1 3/3/1 4/4/1 
f 5/1/2 6/2/2 2/3/2 1/4/2 
f 3/5/3 2/6/3 6/7/3 7/8/3 
f 3/5/3 7/8/3 8/9/3 9/10/3 
f 3/5/3 9/10/3 10/11/3 11/12/3 
f 4/1/4 3/2/4 11/3/4 12/4/4 
f 13/1/5 7/2/5 6/3/5 5/4/5 
f 14/1/6 8/2/6 7/3/6 13/4/6 
f 15/1/7 9/2/7 8/3/7 14/4/7 
f 16/1/8 10/2/8 9/3/8 15/4/8 
f 12/1/9 11/2/9 10/3/9 16/4/9 
f 16/13/10 15/13/10 14/13/10 13/13/10 
f 16/13/11 13/13/11 5/13/11 1/13/11 
f 16/13/11 1/13/11 4/13/11 12/13/11 
f 17/14/12 18/15/12 19/16/12 20/12/12 
f 18/14/13 17/15/13 21/16/13 22/12/13 
f 19/12/14 18/14/14 23/15/14 24/16/14 
f 20/17/15 19/18/15 25/19/15 26/20/15 
f 27/12/16 28/14/16 17/15/16 20/16/16 
f 28/15/17 29/16/17 21/12/17 17/14/17 
f 18/15/18 22/16/18 30/12/18 23/14/18 
f 29/14/19 30/15/19 22/16/19 21/12/19 
f 20/18/20 26/19/20 31/20/20 27/17/20 
f 25/20/21 19/17/21 24/18/21 32/19/21 
f 26/17/22 25/18/22 32/19/22 31/20/22 
f 23/14/23 28/15/23 27/16/23 24/12/23 
f 28/14/24 23/15/24 30/16/24 29/12/24 
f 24/17/25 27/18/25 31/19/25 32/20/25 
f 33/21/26 34/2/26 35/3/26 36/22/26 
f 37/21/27 33/2/27 36/3/27 38/22/27 
f 34/11/28 33/12/28 37/5/28 39/6/28 
f 34/11/28 39/6/28 40/7/28 41/8/28 
f 34/11/28 41/8/28 42/9/28 43/10/28 
f 34/21/29 43/2/29 44/3/29 35/22/29 
f 39/21/30 37/2/30 38/3/30 45/22/30 
f 43/21/31 42/2/31 46/3/31 44/22/31 
f 36/6/32 35/7/32 44/8/32 46/9/32 
f 36/6/33 46/9/33 47/10/33 48/11/33 
f 36/6/33 48/11/33 45/12/33 38/5/33 
f 40/21/34 39/2/34 45/3/34 48/22/34 
f 42/21/35 41/2/35 47/3/35 46/22/35 
f 41/21/36 40/2/36 48/3/36 47/22/36 
f 49/21/37 50/2/37 51/3/37 52/22/37 
f 53/21/36 49/2/36 52/3/36 54/22/36 
f 53/21/3 55/2/3 50/3/3 49/22/3 
f 50/21/38 55/2/38 56/3/38 51/22/38 
f 52/21/10 51/2/10 56/3/10 54/22/10 
f 55/21/39 53/2/39 54/3/39 56/22/39 
f 57/14/40 58/15/40 59/16/40 60/12/40 
f 58/14/41 57/15/41 61/16/41 62/12/41 
f 59/12/42 58/14/42 63/15/42 64/16/42 
f 60/17/43 59/18/43 65/19/43 66/20/43 
f 67/12/44 68/14/44 57/15/44 60/16/44 
f 58/15/45 62/16/45 69/12/45 63/14/45 
f 61/12/46 57/14/46 68/15/46 70/16/46 
f 70/14/47 69/15/47 62/16/47 61/12/47 
f 64/18/48 71/19/48 65/20/48 59/17/48 
f 60/18/49 66/19/49 72/20/49 67/17/49 
f 66/17/50 65/18/50 71/19/50 72/20/50 
f 63/14/51 68/15/51 67/16/51 64/12/51 
f 68/14/52 63/15/52 69/16/52 70/12/52 
f 64/17/53 67/18/53 72/19/53 71/20/53 
f 73/21/54 74/2/54 75/3/54 76/22/54 
f 77/21/55 73/2/55 76/3/55 78/22/55 
f 74/21/56 79/2/56 80/3/56 75/22/56 
f 81/21/57 77/2/57 78/3/57 82/22/57 
f 83/9/58 79/10/58 74/11/58 73/12/58 
f 83/9/58 73/12/58 77/5/58 81/6/58 
f 83/9/58 81/6/58 84/7/58 85/8/58 
f 79/21/59 83/2/59 86/3/59 80/22/59 
f 76/6/60 75/7/60 80/8/60 86/9/60 
f 76/6/61 86/9/61 87/10/61 88/11/61 
f 76/6/61 88/11/61 82/12/61 78/5/61 
f 84/21/62 81/2/62 82/3/62 88/22/62 
f 83/21/63 85/2/63 87/3/63 86/22/63 
f 85/21/64 84/2/64 88/3/64 87/22/64 
f 89/21/65 90/2/65 54/3/65 56/22/65 
f 91/21/38 89/2/38 56/3/38 51/22/38 
f 91/21/3 92/2/3 90/3/3 89/22/3 
f 90/21/54 92/2/54 52/3/54 54/22/54 
f 56/21/10 54/2/10 52/3/10 51/22/10 
f 92/21/66 91/2/66 51/3/66 52/22/66 
# 82 polygons

