# 3ds Max Wavefront OBJ Exporter v0.97b - (c)2007 guruware
# File Created: 15.03.2017 11:11:56

mtllib SPW_Urban_Road Props_Street Light_01.mtl

#
# object SPW_Urban_Road_Props_Street_Light_01
#

v  2.8537 0.0000 -4.8793
v  1.9751 293.6591 -3.3771
v  3.3771 293.6591 -1.9751
v  4.8793 0.0000 -2.8537
v  -2.8537 0.0000 -4.8793
v  -1.9751 293.6591 -3.3771
v  -3.3771 293.6591 -1.9751
v  -3.3771 293.6591 1.9751
v  -1.9751 293.6591 3.3771
v  1.9751 293.6591 3.3771
v  3.3771 293.6591 1.9751
v  4.8793 -0.0000 2.8537
v  -4.8793 0.0000 -2.8537
v  -4.8793 -0.0000 2.8537
v  -2.8537 -0.0000 4.8793
v  2.8537 -0.0000 4.8793
v  -106.1901 317.6415 9.2368
v  -106.1901 317.6415 -9.2367
v  -106.5438 316.2484 -9.2367
v  -106.5438 316.2484 9.2368
v  -67.0165 306.6674 6.3441
v  -66.7617 307.5813 6.3441
v  -95.6034 321.6512 6.5984
v  -95.6034 321.6512 -6.5984
v  -104.1539 311.3391 -6.3582
v  -104.1539 311.3391 6.3583
v  -65.6162 311.7107 4.5320
v  -65.6162 311.7107 -4.5319
v  -66.7617 307.5813 -6.3440
v  -67.0165 306.6674 -6.3440
v  -67.7671 304.0183 -4.3670
v  -67.7671 304.0183 4.3670
v  2.4858 291.2567 -3.0694
v  1.5566 287.7887 -3.0694
v  -73.4278 307.8807 -3.0694
v  -72.4986 311.3486 -3.0694
v  2.8156 292.4875 -1.7951
v  -72.1687 312.5795 -1.7951
v  1.2268 286.5578 -1.7951
v  -73.7576 306.6498 -1.7951
v  2.8156 292.4875 1.7952
v  -72.1687 312.5795 1.7952
v  2.4858 291.2566 3.0695
v  1.5566 287.7886 3.0695
v  1.2268 286.5578 1.7952
v  -73.7576 306.6498 1.7952
v  -72.4986 311.3486 3.0695
v  -73.4278 307.8806 3.0695
v  -22.1012 295.7423 0.9702
v  -22.1012 295.7423 -0.9701
v  -0.9701 272.2016 -0.9701
v  -0.9701 272.2016 0.9702
v  -20.1610 295.7423 0.9702
v  0.9701 272.2016 0.9702
v  -20.1610 295.7423 -0.9701
v  0.9701 272.2016 -0.9701
# 56 vertices

vn 0.7071 0.0057 -0.7071
vn -0.0000 0.0051 -1.0000
vn 0.0000 1.0000 0.0000
vn 1.0000 0.0051 -0.0000
vn -0.7071 0.0057 -0.7071
vn -1.0000 0.0051 -0.0000
vn -0.7071 0.0057 0.7071
vn 0.0000 0.0051 1.0000
vn 0.7071 0.0057 0.7071
vn 0.0000 -1.0000 -0.0000
vn -0.0000 -1.0000 -0.0000
vn -0.9692 0.2461 0.0000
vn 0.0686 -0.0181 0.9975
vn -0.3542 0.9352 0.0000
vn -0.8991 -0.4377 -0.0000
vn 0.1526 0.2957 0.9430
vn 0.1526 0.2957 -0.9430
vn 0.3147 0.9492 0.0000
vn 0.0686 -0.0181 -0.9975
vn -0.0688 -0.5497 -0.8325
vn -0.0688 -0.5497 0.8325
vn -0.1972 -0.9804 -0.0000
vn 0.9633 -0.2686 -0.0000
vn 0.9636 -0.2673 -0.0000
vn 0.9621 -0.2726 -0.0000
vn 0.0000 0.0000 -1.0000
vn 0.1830 0.6830 -0.7071
vn -0.1830 -0.6830 -0.7071
vn 0.2588 0.9659 0.0000
vn 0.9659 -0.2588 -0.0000
vn -0.2588 -0.9659 -0.0000
vn 0.1830 0.6830 0.7071
vn -0.1830 -0.6830 0.7071
vn -0.9659 0.2588 0.0000
vn -0.9659 0.2588 -0.0000
vn -0.0000 -0.0000 1.0000
vn -0.7442 -0.6680 -0.0000
vn 0.0000 -0.0000 1.0000
vn 0.7442 0.6680 0.0000
# 39 vertex normals

vt 0.0149 0.8952 0.0000
vt 0.0249 0.8952 0.0000
vt 0.0249 0.9073 0.0000
vt 0.0149 0.9073 0.0000
vt 0.0189 0.9073 0.0000
vt 0.0232 0.9055 0.0000
vt 0.0249 0.9012 0.0000
vt 0.0232 0.8969 0.0000
vt 0.0189 0.8952 0.0000
vt 0.0146 0.8969 0.0000
vt 0.0128 0.9012 0.0000
vt 0.0146 0.9055 0.0000
vt 0.0000 0.0000 0.0000
vt 0.0146 0.8935 0.0000
vt 0.0266 0.8935 0.0000
vt 0.0266 0.9055 0.0000
vt 0.0146 0.9716 0.0000
vt 0.0266 0.9716 0.0000
vt 0.0266 0.9836 0.0000
vt 0.0146 0.9836 0.0000
vt 0.0128 0.8952 0.0000
vt 0.0128 0.9073 0.0000
# 22 texture coords

g SPW_Urban_Road_Props_Street_Light_01
usemtl SPW_Urban_Road_Props_01
s off
f 1/1/1 2/2/1 3/3/1 4/4/1 
f 5/1/2 6/2/2 2/3/2 1/4/2 
f 3/5/3 2/6/3 6/7/3 7/8/3 
f 3/5/3 7/8/3 8/9/3 9/10/3 
f 3/5/3 9/10/3 10/11/3 11/12/3 
f 4/1/4 3/2/4 11/3/4 12/4/4 
f 13/1/5 7/2/5 6/3/5 5/4/5 
f 14/1/6 8/2/6 7/3/6 13/4/6 
f 15/1/7 9/2/7 8/3/7 14/4/7 
f 16/1/8 10/2/8 9/3/8 15/4/8 
f 12/1/9 11/2/9 10/3/9 16/4/9 
f 16/13/10 15/13/10 14/13/10 13/13/10 
f 16/13/10 13/13/10 5/13/10 1/13/10 
f 16/13/11 1/13/11 4/13/11 12/13/11 
f 17/14/12 18/15/12 19/16/12 20/12/12 
f 17/15/13 20/16/13 21/12/13 22/14/13 
f 18/14/14 17/15/14 23/16/14 24/12/14 
f 20/17/15 19/18/15 25/19/15 26/20/15 
f 22/15/16 27/16/16 23/12/16 17/14/16 
f 18/15/17 24/16/17 28/12/17 29/14/17 
f 27/14/18 28/15/18 24/16/18 23/12/18 
f 29/15/19 30/16/19 19/12/19 18/14/19 
f 30/18/20 31/19/20 25/20/20 19/17/20 
f 20/18/21 26/19/21 32/20/21 21/17/21 
f 26/17/22 25/18/22 31/19/22 32/20/22 
f 29/14/23 22/15/23 21/16/23 30/12/23 
f 22/14/24 29/15/24 28/16/24 27/12/24 
f 30/17/25 21/18/25 32/19/25 31/20/25 
f 33/21/26 34/2/26 35/3/26 36/22/26 
f 37/21/27 33/2/27 36/3/27 38/22/27 
f 34/21/28 39/2/28 40/3/28 35/22/28 
f 41/21/29 37/2/29 38/3/29 42/22/29 
f 37/5/30 41/6/30 43/7/30 44/8/30 
f 37/5/30 44/8/30 45/9/30 39/10/30 
f 37/5/30 39/10/30 34/11/30 33/12/30 
f 39/21/31 45/2/31 46/3/31 40/22/31 
f 43/21/32 41/2/32 42/3/32 47/22/32 
f 45/21/33 44/2/33 48/3/33 46/22/33 
f 46/9/34 48/10/34 47/11/34 42/12/34 
f 46/9/34 42/12/34 38/5/34 36/6/34 
f 46/9/35 36/6/35 35/7/35 40/8/35 
f 44/21/36 43/2/36 47/3/36 48/22/36 
f 49/21/37 50/2/37 51/3/37 52/22/37 
f 53/21/38 49/2/38 52/3/38 54/22/38 
f 53/21/3 55/2/3 50/3/3 49/22/3 
f 50/21/26 55/2/26 56/3/26 51/22/26 
f 52/21/10 51/2/10 56/3/10 54/22/10 
f 55/21/39 53/2/39 54/3/39 56/22/39 
# 48 polygons

