{
  "accessors": [
    {
      "bufferView": 0,
      "byteOffset": 0,
      "componentType": 5123,
      "count": 378,
      "max": [
        293.0
      ],
      "min": [
        0.0
      ],
      "name": "buffer-0-group-0-mesh-0-indices",
      "type": "SCALAR"
    },
    {
      "bufferView": 1,
      "byteOffset": 0,
      "componentType": 5126,
      "count": 294,
      "max": [
        1.4597400426864624,
        3.451817035675049,
        1.653725028038025
      ],
      "min": [
        -1.649278998374939,
        2.697489023208618,
        -1.6603820323944092
      ],
      "name": "buffer-0-group-0-mesh-0-position",
      "type": "VEC3"
    },
    {
      "bufferView": 1,
      "byteOffset": 3528,
      "componentType": 5126,
      "count": 294,
      "max": [
        0.9896714091300964,
        0.8933907151222229,
        0.9909049868583679
      ],
      "min": [
        -0.9951177835464478,
        -0.25839394330978394,
        -0.9964960217475891
      ],
      "name": "buffer-0-group-0-mesh-0-normal",
      "type": "VEC3"
    },
    {
      "bufferView": 0,
      "byteOffset": 756,
      "componentType": 5123,
      "count": 78,
      "max": [
        49.0
      ],
      "min": [
        0.0
      ],
      "name": "buffer-0-group-1-mesh-0-indices",
      "type": "SCALAR"
    },
    {
      "bufferView": 1,
      "byteOffset": 7056,
      "componentType": 5126,
      "count": 50,
      "max": [
        0.1893160045146942,
        3.204724073410034,
        0.1610410064458847
      ],
      "min": [
        -0.1893160045146942,
        0.0,
        -0.19905799627304077
      ],
      "name": "buffer-0-group-1-mesh-0-position",
      "type": "VEC3"
    },
    {
      "bufferView": 1,
      "byteOffset": 7656,
      "componentType": 5126,
      "count": 50,
      "max": [
        0.9510656595230103,
        1.0,
        1.0
      ],
      "min": [
        -0.9510656595230103,
        -1.0,
        -0.8090041279792786
      ],
      "name": "buffer-0-group-1-mesh-0-normal",
      "type": "VEC3"
    },
    {
      "bufferView": 0,
      "byteOffset": 912,
      "componentType": 5123,
      "count": 90,
      "max": [
        59.0
      ],
      "min": [
        0.0
      ],
      "name": "buffer-0-group-2-mesh-0-indices",
      "type": "SCALAR"
    },
    {
      "bufferView": 1,
      "byteOffset": 8256,
      "componentType": 5126,
      "count": 60,
      "max": [
        0.1381639987230301,
        2.615262031555176,
        0.11753000319004059
      ],
      "min": [
        -0.1381639987230301,
        0.3313870131969452,
        -0.14527399837970734
      ],
      "name": "buffer-0-group-2-mesh-0-position",
      "type": "VEC3"
    },
    {
      "bufferView": 1,
      "byteOffset": 8976,
      "componentType": 5126,
      "count": 60,
      "max": [
        0.9510176181793213,
        0.06479988992214203,
        0.9999595284461975
      ],
      "min": [
        -0.9510176181793213,
        0.008999635465443134,
        -0.8089713454246521
      ],
      "name": "buffer-0-group-2-mesh-0-normal",
      "type": "VEC3"
    },
    {
      "bufferView": 0,
      "byteOffset": 1092,
      "componentType": 5123,
      "count": 90,
      "max": [
        59.0
      ],
      "min": [
        0.0
      ],
      "name": "buffer-0-group-3-mesh-0-indices",
      "type": "SCALAR"
    },
    {
      "bufferView": 1,
      "byteOffset": 9696,
      "componentType": 5126,
      "count": 60,
      "max": [
        0.18062099814414978,
        3.204724073410034,
        0.15364600718021393
      ],
      "min": [
        -0.18062099814414978,
        2.615262031555176,
        -0.1899159997701645
      ],
      "name": "buffer-0-group-3-mesh-0-position",
      "type": "VEC3"
    },
    {
      "bufferView": 1,
      "byteOffset": 10416,
      "componentType": 5126,
      "count": 60,
      "max": [
        0.9395909309387207,
        0.32969892024993896,
        0.9879447221755981
      ],
      "min": [
        -0.9395909309387207,
        -0.6433179974555969,
        -0.7992776036262512
      ],
      "name": "buffer-0-group-3-mesh-0-normal",
      "type": "VEC3"
    }
  ],
  "asset": {
    "generator": "Obj2GltfConverter",
    "version": "2.0"
  },
  "bufferViews": [
    {
      "buffer": 0,
      "byteLength": 1272,
      "byteOffset": 0,
      "name": "buffer-0-bufferview-ushort",
      "target": 34963
    },
    {
      "buffer": 0,
      "byteLength": 11136,
      "byteOffset": 1272,
      "byteStride": 12,
      "name": "buffer-0-bufferview-vec3",
      "target": 34962
    }
  ],
  "buffers": [
    {
      "byteLength": 12408,
      "name": "buffer-0",
      "uri": "PalmTree.bin"
    }
  ],
  "materials": [
    {
      "alphaMode": "OPAQUE",
      "doubleSided": true,
      "name": "Leaves",
      "pbrMetallicRoughness": {
        "baseColorFactor": [
          0.244227,
          0.358386,
          0.027447,
          1.0
        ],
        "metallicFactor": 0.0,
        "roughnessFactor": 0.7448017359246658
      }
    },
    {
      "alphaMode": "OPAQUE",
      "doubleSided": true,
      "name": "Base",
      "pbrMetallicRoughness": {
        "baseColorFactor": [
          0.039765,
          0.026484,
          0.018523,
          1.0
        ],
        "metallicFactor": 0.0,
        "roughnessFactor": 0.7448017359246658
      }
    },
    {
      "alphaMode": "OPAQUE",
      "doubleSided": true,
      "name": "Tree",
      "pbrMetallicRoughness": {
        "baseColorFactor": [
          0.30101,
          0.223115,
          0.14758,
          1.0
        ],
        "metallicFactor": 0.0,
        "roughnessFactor": 0.7448017359246658
      }
    },
    {
      "alphaMode": "OPAQUE",
      "doubleSided": true,
      "name": "Head",
      "pbrMetallicRoughness": {
        "baseColorFactor": [
          0.169785,
          0.081793,
          0.054783,
          1.0
        ],
        "metallicFactor": 0.0,
        "roughnessFactor": 0.7448017359246658
      }
    }
  ],
  "meshes": [
    {
      "name": "buffer-0-mesh-0",
      "primitives": [
        {
          "attributes": {
            "POSITION": 1,
            "NORMAL": 2
          },
          "indices": 0,
          "material": 0,
          "mode": 4
        },
        {
          "attributes": {
            "POSITION": 4,
            "NORMAL": 5
          },
          "indices": 3,
          "material": 1,
          "mode": 4
        },
        {
          "attributes": {
            "POSITION": 7,
            "NORMAL": 8
          },
          "indices": 6,
          "material": 2,
          "mode": 4
        },
        {
          "attributes": {
            "POSITION": 10,
            "NORMAL": 11
          },
          "indices": 9,
          "material": 3,
          "mode": 4
        }
      ]
    }
  ],
  "nodes": [
    {
      "mesh": 0,
      "name": "node-0"
    }
  ],
  "scenes": [
    {
      "name": "scene-0",
      "nodes": [
        0
      ]
    }
  ]
}