{
    "asset" : {
        "generator" : "Khronos glTF Blender I/O v1.0.5",
        "version" : "2.0"
    },
    "scene" : 0,
    "scenes" : [
        {
            "name" : "Scene",
            "nodes" : [
                0,
                1,
                2,
                3,
                4
            ]
        }
    ],
    "nodes" : [
        {
            "mesh" : 0,
            "name" : "SM3D_Bld_Mixed_Double_5fl"
        },
        {
            "mesh" : 1,
            "name" : "SM3D_Bld_Mixed_4fl_2"
        },
        {
            "mesh" : 2,
            "name" : "SM3D_Bld_Mixed_Corner_4fl"
        },
        {
            "mesh" : 3,
            "name" : "SM3D_Bld_Mixed_5fl"
        },
        {
            "mesh" : 4,
            "name" : "SM3D_Bld_Mixed_4fl"
        }
    ],
    "materials" : [
        {
            "doubleSided" : true,
            "name" : "Mat_PolygonCity_Texture_01_A",
            "pbrMetallicRoughness" : {
                "baseColorTexture" : {
                    "index" : 0,
                    "texCoord" : 0
                },
                "metallicFactor" : 0,
                "roughnessFactor" : 0.5527864098548889
            }
        },
        {
            "alphaMode" : "BLEND",
            "doubleSided" : true,
            "name" : "Mat_PolygonCity_Glass_Windows",
            "pbrMetallicRoughness" : {
                "baseColorFactor" : [
                    0,
                    0.44538164138793945,
                    1,
                    0.10000000149011612
                ],
                "metallicFactor" : 1,
                "roughnessFactor" : 0
            }
        }
    ],
    "meshes" : [
        {
            "name" : "SM_Bld_Shop_03",
            "primitives" : [
                {
                    "attributes" : {
                        "POSITION" : 0,
                        "NORMAL" : 1,
                        "TEXCOORD_0" : 2,
                        "TEXCOORD_1" : 3
                    },
                    "indices" : 4,
                    "material" : 0
                },
                {
                    "attributes" : {
                        "POSITION" : 5,
                        "NORMAL" : 6,
                        "TEXCOORD_0" : 7,
                        "TEXCOORD_1" : 8
                    },
                    "indices" : 9,
                    "material" : 1
                }
            ]
        },
        {
            "name" : "SM_Bld_Shop_04",
            "primitives" : [
                {
                    "attributes" : {
                        "POSITION" : 10,
                        "NORMAL" : 11,
                        "TEXCOORD_0" : 12,
                        "TEXCOORD_1" : 13
                    },
                    "indices" : 14,
                    "material" : 0
                },
                {
                    "attributes" : {
                        "POSITION" : 15,
                        "NORMAL" : 16,
                        "TEXCOORD_0" : 17,
                        "TEXCOORD_1" : 18
                    },
                    "indices" : 19,
                    "material" : 1
                }
            ]
        },
        {
            "name" : "SM_Bld_FireEscape_01",
            "primitives" : [
                {
                    "attributes" : {
                        "POSITION" : 20,
                        "NORMAL" : 21,
                        "TEXCOORD_0" : 22,
                        "TEXCOORD_1" : 23
                    },
                    "indices" : 24,
                    "material" : 0
                },
                {
                    "attributes" : {
                        "POSITION" : 25,
                        "NORMAL" : 26,
                        "TEXCOORD_0" : 27,
                        "TEXCOORD_1" : 28
                    },
                    "indices" : 29,
                    "material" : 1
                }
            ]
        },
        {
            "name" : "SM_Bld_Apartment_Roof_Corner_01",
            "primitives" : [
                {
                    "attributes" : {
                        "POSITION" : 30,
                        "NORMAL" : 31,
                        "TEXCOORD_0" : 32,
                        "TEXCOORD_1" : 33
                    },
                    "indices" : 34,
                    "material" : 0
                }
            ]
        },
        {
            "name" : "SM_Bld_Apartment_Roof_02",
            "primitives" : [
                {
                    "attributes" : {
                        "POSITION" : 35,
                        "NORMAL" : 36,
                        "TEXCOORD_0" : 37,
                        "TEXCOORD_1" : 38
                    },
                    "indices" : 39,
                    "material" : 0
                },
                {
                    "attributes" : {
                        "POSITION" : 40,
                        "NORMAL" : 41,
                        "TEXCOORD_0" : 42,
                        "TEXCOORD_1" : 43
                    },
                    "indices" : 44,
                    "material" : 1
                }
            ]
        }
    ],
    "textures" : [
        {
            "source" : 0
        }
    ],
    "images" : [
        {
            "mimeType" : "image/png",
            "name" : "PolygonCity_Texture",
            "uri" : "PolygonCity_Texture.png"
        }
    ],
    "accessors" : [
        {
            "bufferView" : 0,
            "componentType" : 5126,
            "count" : 22516,
            "max" : [
                -34.84516143798828,
                18.562564849853516,
                10.226613998413086
            ],
            "min" : [
                -45.74930953979492,
                -3.0616167344162256e-16,
                3.2403197288513184
            ],
            "type" : "VEC3"
        },
        {
            "bufferView" : 1,
            "componentType" : 5126,
            "count" : 22516,
            "type" : "VEC3"
        },
        {
            "bufferView" : 2,
            "componentType" : 5126,
            "count" : 22516,
            "type" : "VEC2"
        },
        {
            "bufferView" : 3,
            "componentType" : 5126,
            "count" : 22516,
            "type" : "VEC2"
        },
        {
            "bufferView" : 4,
            "componentType" : 5123,
            "count" : 34221,
            "type" : "SCALAR"
        },
        {
            "bufferView" : 5,
            "componentType" : 5126,
            "count" : 24,
            "max" : [
                -35.630863189697266,
                2.3032188415527344,
                5.060750961303711
            ],
            "min" : [
                -44.369144439697266,
                0.09172821044921875,
                4.767510414123535
            ],
            "type" : "VEC3"
        },
        {
            "bufferView" : 6,
            "componentType" : 5126,
            "count" : 24,
            "type" : "VEC3"
        },
        {
            "bufferView" : 7,
            "componentType" : 5126,
            "count" : 24,
            "type" : "VEC2"
        },
        {
            "bufferView" : 8,
            "componentType" : 5126,
            "count" : 24,
            "type" : "VEC2"
        },
        {
            "bufferView" : 9,
            "componentType" : 5123,
            "count" : 36,
            "type" : "SCALAR"
        },
        {
            "bufferView" : 10,
            "componentType" : 5126,
            "count" : 6624,
            "max" : [
                -44.845157623291016,
                14.403223991394043,
                10.16819953918457
            ],
            "min" : [
                -50.43404769897461,
                -3.0616167344162256e-16,
                4.173133373260498
            ],
            "type" : "VEC3"
        },
        {
            "bufferView" : 11,
            "componentType" : 5126,
            "count" : 6624,
            "type" : "VEC3"
        },
        {
            "bufferView" : 12,
            "componentType" : 5126,
            "count" : 6624,
            "type" : "VEC2"
        },
        {
            "bufferView" : 13,
            "componentType" : 5126,
            "count" : 6624,
            "type" : "VEC2"
        },
        {
            "bufferView" : 14,
            "componentType" : 5123,
            "count" : 11214,
            "type" : "SCALAR"
        },
        {
            "bufferView" : 15,
            "componentType" : 5126,
            "count" : 42,
            "max" : [
                -45.11735534667969,
                2.5186843872070312,
                5.098396301269531
            ],
            "min" : [
                -49.88264465332031,
                0.077178955078125,
                4.392968654632568
            ],
            "type" : "VEC3"
        },
        {
            "bufferView" : 16,
            "componentType" : 5126,
            "count" : 42,
            "type" : "VEC3"
        },
        {
            "bufferView" : 17,
            "componentType" : 5126,
            "count" : 42,
            "type" : "VEC2"
        },
        {
            "bufferView" : 18,
            "componentType" : 5126,
            "count" : 42,
            "type" : "VEC2"
        },
        {
            "bufferView" : 19,
            "componentType" : 5123,
            "count" : 54,
            "type" : "SCALAR"
        },
        {
            "bufferView" : 20,
            "componentType" : 5126,
            "count" : 20787,
            "max" : [
                -49.81158447265625,
                13.560174942016602,
                10.188423156738281
            ],
            "min" : [
                -56.75967025756836,
                0,
                3.2403199672698975
            ],
            "type" : "VEC3"
        },
        {
            "bufferView" : 21,
            "componentType" : 5126,
            "count" : 20787,
            "type" : "VEC3"
        },
        {
            "bufferView" : 22,
            "componentType" : 5126,
            "count" : 20787,
            "type" : "VEC2"
        },
        {
            "bufferView" : 23,
            "componentType" : 5126,
            "count" : 20787,
            "type" : "VEC2"
        },
        {
            "bufferView" : 24,
            "componentType" : 5123,
            "count" : 32118,
            "type" : "SCALAR"
        },
        {
            "bufferView" : 25,
            "componentType" : 5126,
            "count" : 38,
            "max" : [
                -50.2039794921875,
                1.8567776679992676,
                9.889846801757812
            ],
            "min" : [
                -54.9910888671875,
                0.15914249420166016,
                5.081177711486816
            ],
            "type" : "VEC3"
        },
        {
            "bufferView" : 26,
            "componentType" : 5126,
            "count" : 38,
            "type" : "VEC3"
        },
        {
            "bufferView" : 27,
            "componentType" : 5126,
            "count" : 38,
            "type" : "VEC2"
        },
        {
            "bufferView" : 28,
            "componentType" : 5126,
            "count" : 38,
            "type" : "VEC2"
        },
        {
            "bufferView" : 29,
            "componentType" : 5123,
            "count" : 60,
            "type" : "SCALAR"
        },
        {
            "bufferView" : 30,
            "componentType" : 5126,
            "count" : 11495,
            "max" : [
                -29.250680923461914,
                17.130298614501953,
                10.168205261230469
            ],
            "min" : [
                -35.72661590576172,
                0,
                3.2403197288513184
            ],
            "type" : "VEC3"
        },
        {
            "bufferView" : 31,
            "componentType" : 5126,
            "count" : 11495,
            "type" : "VEC3"
        },
        {
            "bufferView" : 32,
            "componentType" : 5126,
            "count" : 11495,
            "type" : "VEC2"
        },
        {
            "bufferView" : 33,
            "componentType" : 5126,
            "count" : 11495,
            "type" : "VEC2"
        },
        {
            "bufferView" : 34,
            "componentType" : 5123,
            "count" : 18444,
            "type" : "SCALAR"
        },
        {
            "bufferView" : 35,
            "componentType" : 5126,
            "count" : 4988,
            "max" : [
                -24.873891830444336,
                13.57343578338623,
                10.152074813842773
            ],
            "min" : [
                -30.126102447509766,
                0,
                4.261099815368652
            ],
            "type" : "VEC3"
        },
        {
            "bufferView" : 36,
            "componentType" : 5126,
            "count" : 4988,
            "type" : "VEC3"
        },
        {
            "bufferView" : 37,
            "componentType" : 5126,
            "count" : 4988,
            "type" : "VEC2"
        },
        {
            "bufferView" : 38,
            "componentType" : 5126,
            "count" : 4988,
            "type" : "VEC2"
        },
        {
            "bufferView" : 39,
            "componentType" : 5123,
            "count" : 8178,
            "type" : "SCALAR"
        },
        {
            "bufferView" : 40,
            "componentType" : 5126,
            "count" : 36,
            "max" : [
                -25.091445922851562,
                2.377988815307617,
                5.162599563598633
            ],
            "min" : [
                -29.908554077148438,
                0.36069774627685547,
                5.108623504638672
            ],
            "type" : "VEC3"
        },
        {
            "bufferView" : 41,
            "componentType" : 5126,
            "count" : 36,
            "type" : "VEC3"
        },
        {
            "bufferView" : 42,
            "componentType" : 5126,
            "count" : 36,
            "type" : "VEC2"
        },
        {
            "bufferView" : 43,
            "componentType" : 5126,
            "count" : 36,
            "type" : "VEC2"
        },
        {
            "bufferView" : 44,
            "componentType" : 5123,
            "count" : 42,
            "type" : "SCALAR"
        }
    ],
    "bufferViews" : [
        {
            "buffer" : 0,
            "byteLength" : 270192,
            "byteOffset" : 0
        },
        {
            "buffer" : 0,
            "byteLength" : 270192,
            "byteOffset" : 270192
        },
        {
            "buffer" : 0,
            "byteLength" : 180128,
            "byteOffset" : 540384
        },
        {
            "buffer" : 0,
            "byteLength" : 180128,
            "byteOffset" : 720512
        },
        {
            "buffer" : 0,
            "byteLength" : 68442,
            "byteOffset" : 900640
        },
        {
            "buffer" : 0,
            "byteLength" : 288,
            "byteOffset" : 969084
        },
        {
            "buffer" : 0,
            "byteLength" : 288,
            "byteOffset" : 969372
        },
        {
            "buffer" : 0,
            "byteLength" : 192,
            "byteOffset" : 969660
        },
        {
            "buffer" : 0,
            "byteLength" : 192,
            "byteOffset" : 969852
        },
        {
            "buffer" : 0,
            "byteLength" : 72,
            "byteOffset" : 970044
        },
        {
            "buffer" : 0,
            "byteLength" : 79488,
            "byteOffset" : 970116
        },
        {
            "buffer" : 0,
            "byteLength" : 79488,
            "byteOffset" : 1049604
        },
        {
            "buffer" : 0,
            "byteLength" : 52992,
            "byteOffset" : 1129092
        },
        {
            "buffer" : 0,
            "byteLength" : 52992,
            "byteOffset" : 1182084
        },
        {
            "buffer" : 0,
            "byteLength" : 22428,
            "byteOffset" : 1235076
        },
        {
            "buffer" : 0,
            "byteLength" : 504,
            "byteOffset" : 1257504
        },
        {
            "buffer" : 0,
            "byteLength" : 504,
            "byteOffset" : 1258008
        },
        {
            "buffer" : 0,
            "byteLength" : 336,
            "byteOffset" : 1258512
        },
        {
            "buffer" : 0,
            "byteLength" : 336,
            "byteOffset" : 1258848
        },
        {
            "buffer" : 0,
            "byteLength" : 108,
            "byteOffset" : 1259184
        },
        {
            "buffer" : 0,
            "byteLength" : 249444,
            "byteOffset" : 1259292
        },
        {
            "buffer" : 0,
            "byteLength" : 249444,
            "byteOffset" : 1508736
        },
        {
            "buffer" : 0,
            "byteLength" : 166296,
            "byteOffset" : 1758180
        },
        {
            "buffer" : 0,
            "byteLength" : 166296,
            "byteOffset" : 1924476
        },
        {
            "buffer" : 0,
            "byteLength" : 64236,
            "byteOffset" : 2090772
        },
        {
            "buffer" : 0,
            "byteLength" : 456,
            "byteOffset" : 2155008
        },
        {
            "buffer" : 0,
            "byteLength" : 456,
            "byteOffset" : 2155464
        },
        {
            "buffer" : 0,
            "byteLength" : 304,
            "byteOffset" : 2155920
        },
        {
            "buffer" : 0,
            "byteLength" : 304,
            "byteOffset" : 2156224
        },
        {
            "buffer" : 0,
            "byteLength" : 120,
            "byteOffset" : 2156528
        },
        {
            "buffer" : 0,
            "byteLength" : 137940,
            "byteOffset" : 2156648
        },
        {
            "buffer" : 0,
            "byteLength" : 137940,
            "byteOffset" : 2294588
        },
        {
            "buffer" : 0,
            "byteLength" : 91960,
            "byteOffset" : 2432528
        },
        {
            "buffer" : 0,
            "byteLength" : 91960,
            "byteOffset" : 2524488
        },
        {
            "buffer" : 0,
            "byteLength" : 36888,
            "byteOffset" : 2616448
        },
        {
            "buffer" : 0,
            "byteLength" : 59856,
            "byteOffset" : 2653336
        },
        {
            "buffer" : 0,
            "byteLength" : 59856,
            "byteOffset" : 2713192
        },
        {
            "buffer" : 0,
            "byteLength" : 39904,
            "byteOffset" : 2773048
        },
        {
            "buffer" : 0,
            "byteLength" : 39904,
            "byteOffset" : 2812952
        },
        {
            "buffer" : 0,
            "byteLength" : 16356,
            "byteOffset" : 2852856
        },
        {
            "buffer" : 0,
            "byteLength" : 432,
            "byteOffset" : 2869212
        },
        {
            "buffer" : 0,
            "byteLength" : 432,
            "byteOffset" : 2869644
        },
        {
            "buffer" : 0,
            "byteLength" : 288,
            "byteOffset" : 2870076
        },
        {
            "buffer" : 0,
            "byteLength" : 288,
            "byteOffset" : 2870364
        },
        {
            "buffer" : 0,
            "byteLength" : 84,
            "byteOffset" : 2870652
        }
    ],
    "buffers" : [
        {
            "byteLength" : 2870736,
            "uri" : "scenesmall3-selected-alltransforms-nocompression.bin"
        }
    ]
}
