# 3ds Max Wavefront OBJ Exporter v0.97b - (c)2007 guruware
# File Created: 15.03.2017 10:34:40

mtllib SPW_Natures_Tree_Palm_01.mtl

#
# object SPW_Natures_Tree_Fir_02
#

v  29.7135 229.7621 -23.5990
v  44.4131 275.2471 -0.5675
v  44.8723 275.0837 -0.8208
v  46.4940 217.5752 -33.7315
v  44.8950 275.0756 -0.2723
v  49.3548 224.0422 -11.7880
v  45.3312 274.9202 0.0230
v  65.2569 212.3114 0.0230
v  44.8950 275.0756 0.3183
v  49.3548 224.0422 11.8340
v  44.8723 275.0837 0.8669
v  46.4940 217.5752 33.7775
v  44.4131 275.2471 0.6136
v  29.7135 229.7621 23.6450
v  43.9543 275.4106 0.8669
v  8.9840 228.1702 33.7775
v  43.9316 275.4187 0.3183
v  10.0787 235.5084 11.8340
v  43.4954 275.5740 0.0230
v  -9.7616 233.5016 0.0230
v  43.9316 275.4187 -0.2723
v  10.0787 235.5084 -11.7880
v  43.9543 275.4106 -0.8208
v  8.9840 228.1702 -33.7315
v  22.1651 202.0505 -28.3235
v  38.2178 257.1671 -0.6857
v  38.7736 256.9836 -0.9896
v  41.9473 184.5506 -40.4825
v  38.8010 256.9746 -0.3313
v  45.9612 196.0154 -14.1502
v  39.3283 256.8004 0.0230
v  64.7047 179.1668 0.0230
v  38.8010 256.9746 0.3773
v  45.9612 196.0154 14.1962
v  38.7736 256.9836 1.0356
v  41.9473 184.5506 40.5284
v  38.2178 257.1671 0.7317
v  22.1651 202.0505 28.3694
v  37.6634 257.3504 1.0356
v  -3.5522 195.3858 40.5284
v  37.6357 257.3595 0.3773
v  -1.6228 208.1145 14.1962
v  37.1080 257.5339 0.0230
v  -26.2948 200.8376 0.0230
v  37.6357 257.3595 -0.3313
v  -1.6228 208.1145 -14.1502
v  37.6634 257.3504 -0.9896
v  -3.5522 195.3858 -40.4824
v  15.0820 171.7299 -33.0479
v  31.7504 236.6436 -0.8038
v  32.4035 236.4467 -1.1584
v  38.3605 149.2248 -47.2334
v  32.4359 236.4369 -0.3904
v  43.0899 165.7456 -16.5125
v  33.0566 236.2498 0.0230
v  65.1610 144.1151 0.0230
v  32.4359 236.4369 0.4364
v  43.0899 165.7456 16.5584
v  32.4035 236.4467 1.2044
v  38.3605 149.2247 47.2793
v  31.7504 236.6436 0.8498
v  15.0820 171.7299 33.0938
v  31.0972 236.8405 1.2044
v  -15.2320 159.4921 47.2793
v  31.0648 236.8503 0.4364
v  -12.9209 177.7399 16.5584
v  30.4441 237.0374 0.0230
v  -42.0235 164.6503 0.0230
v  31.0648 236.8503 -0.3904
v  -12.9209 177.7399 -16.5124
v  31.0972 236.8405 -1.1584
v  -15.2320 159.4922 -47.2334
v  8.7396 138.7860 -37.7723
v  25.1935 213.6316 -0.9219
v  25.9458 213.4286 -1.3272
v  36.0364 111.6465 -53.9843
v  25.9836 213.4184 -0.4494
v  41.0012 133.2567 -18.8747
v  26.6987 213.2255 0.0230
v  66.9045 107.2387 0.0229
v  25.9836 213.4184 0.4954
v  41.0012 133.2567 18.9206
v  25.9458 213.4286 1.3732
v  36.0364 111.6465 54.0302
v  25.1935 213.6316 0.9679
v  8.7396 138.7860 37.8182
v  24.4409 213.8349 1.3732
v  -25.6993 120.4626 54.0302
v  24.4031 213.8449 0.4954
v  -23.5190 144.3294 18.9206
v  23.6883 214.0379 0.0230
v  -56.5674 124.8718 0.0230
v  24.4031 213.8449 -0.4494
v  -23.5190 144.3294 -18.8747
v  24.4409 213.8349 -1.3272
v  -25.6997 120.4627 -53.9843
v  3.1412 100.8481 -42.4967
v  18.2092 185.7596 -1.0400
v  19.0631 185.5609 -1.4960
v  35.0877 69.6087 -60.7352
v  19.1060 185.5511 -0.5085
v  39.6848 96.3209 -21.2369
v  19.9174 185.3623 0.0230
v  70.0234 66.4611 0.0229
v  19.1060 185.5511 0.5545
v  39.6848 96.3209 21.2828
v  19.0631 185.5609 1.5419
v  35.0877 69.6087 60.7811
v  18.2092 185.7596 1.0860
v  3.1412 100.8481 42.5426
v  17.3550 185.9583 1.5419
v  -34.7955 75.8158 60.7811
v  17.3128 185.9682 0.5545
v  -33.4045 105.3645 21.2828
v  16.5007 186.1570 0.0230
v  -69.7430 78.8765 0.0230
v  17.3128 185.9682 -0.5085
v  -33.4045 105.3645 -21.2369
v  17.3550 185.9583 -1.4960
v  -34.7955 75.8159 -60.7352
v  -0.6831 62.6971 -47.2212
v  12.1995 157.6444 -1.1581
v  13.1562 157.4572 -1.6648
v  36.3835 27.7992 -67.4861
v  13.2037 157.4478 -0.5676
v  40.1098 59.5532 -23.5991
v  14.1124 157.2700 0.0230
v  75.3244 26.3079 0.0229
v  13.2037 157.4478 0.6135
v  40.1098 59.5532 23.6450
v  13.1562 157.4572 1.7107
v  36.3835 27.7992 67.5320
v  12.1995 157.6444 1.2041
v  -0.6831 62.6971 47.2670
v  11.2436 157.8317 1.7107
v  -41.5221 30.5633 67.5320
v  11.1964 157.8410 0.6135
v  -41.4824 65.7921 23.6450
v  10.2874 158.0190 0.0230
v  -80.4864 31.8376 0.0229
v  11.1964 157.8410 -0.5676
v  -41.4824 65.7921 -23.5991
v  11.2436 157.8317 -1.6648
v  -41.5225 30.5633 -67.4861
v  0.0000 47.2439 -14.1897
v  0.0000 94.4880 -18.8747
v  16.3659 94.4880 -9.4259
v  12.3085 47.2439 -7.0834
v  16.3659 94.4880 9.4717
v  12.3085 47.2439 7.1292
v  0.0000 94.4880 18.9206
v  0.0000 47.2439 14.2355
v  -16.3658 94.4880 9.4717
v  -12.3085 47.2439 7.1292
v  -16.3658 94.4880 -9.4259
v  -12.3085 47.2439 -7.0834
v  0.0000 -0.0002 -18.8747
v  16.3659 -0.0002 -9.4259
v  16.3659 -0.0002 9.4717
v  0.0000 -0.0002 18.9205
v  -16.3658 -0.0002 9.4717
v  -16.3658 -0.0002 -9.4259
# 162 vertices

vn -0.1676 0.4869 -0.8572
vn 0.9797 0.1205 -0.1602
vn 0.6781 0.2167 -0.7023
vn 0.6781 0.2167 0.7023
vn 0.9797 0.1205 0.1602
vn -0.1676 0.4869 0.8572
vn 0.4025 0.3051 0.8631
vn -0.7242 0.6650 0.1827
vn -0.4561 0.5795 0.6753
vn -0.4561 0.5795 -0.6753
vn 0.3356 0.9420 -0.0002
vn 0.3356 0.9420 0.0000
vn 0.3357 0.9420 0.0000
vn 0.3353 0.9421 -0.0001
vn 0.3355 0.9420 0.0000
vn 0.3355 0.9420 0.0001
vn 0.3353 0.9421 0.0001
vn -0.7242 0.6650 -0.1827
vn 0.4025 0.3051 -0.8631
vn -0.3604 -0.9200 0.1538
vn -0.4407 -0.8976 -0.0000
vn -0.4313 -0.8486 -0.3063
vn -0.1870 -0.9691 -0.1606
vn 0.1006 -0.9949 -0.0000
vn -0.2802 -0.9599 -0.0004
vn -0.0838 -0.9438 0.3198
vn -0.1245 0.4719 -0.8728
vn 0.9642 0.1594 -0.2120
vn 0.7081 0.2327 -0.6666
vn 0.7081 0.2327 0.6666
vn 0.9642 0.1594 0.2120
vn -0.1245 0.4719 0.8728
vn 0.3328 0.3412 0.8791
vn -0.7221 0.6438 0.2530
vn -0.5222 0.5867 0.6189
vn -0.5222 0.5867 -0.6189
vn 0.3138 0.9495 -0.0002
vn 0.3138 0.9495 0.0000
vn 0.3140 0.9494 -0.0001
vn 0.3134 0.9496 -0.0000
vn 0.3136 0.9495 0.0000
vn 0.3137 0.9495 0.0002
vn 0.3134 0.9496 0.0000
vn -0.7221 0.6438 -0.2530
vn 0.3328 0.3412 -0.8791
vn -0.3595 -0.9075 0.2172
vn -0.4737 -0.8807 -0.0000
vn -0.4474 -0.7930 -0.4135
vn -0.1101 -0.9672 -0.2290
vn 0.2829 -0.9592 -0.0000
vn -0.2464 -0.9692 -0.0004
vn 0.0286 -0.9008 0.4333
vn -0.0986 0.4610 -0.8819
vn 0.9488 0.1970 -0.2468
vn 0.7234 0.2536 -0.6422
vn 0.7234 0.2536 0.6422
vn 0.9488 0.1970 0.2468
vn -0.0986 0.4610 0.8819
vn 0.2742 0.3677 0.8886
vn -0.7236 0.6185 0.3063
vn -0.5785 0.5823 0.5712
vn -0.5785 0.5823 -0.5712
vn 0.2886 0.9574 -0.0000
vn 0.2887 0.9574 0.0000
vn 0.2886 0.9574 0.0000
vn 0.2886 0.9575 0.0000
vn -0.7236 0.6185 -0.3063
vn 0.2742 0.3677 -0.8886
vn -0.3459 -0.9017 0.2595
vn -0.4829 -0.8757 -0.0000
vn -0.4435 -0.7591 -0.4765
vn -0.0430 -0.9601 -0.2762
vn 0.4102 -0.9120 -0.0000
vn -0.2094 -0.9778 -0.0003
vn 0.1118 -0.8580 0.5013
vn -0.0844 0.4528 -0.8876
vn 0.9337 0.2346 -0.2706
vn 0.7290 0.2782 -0.6254
vn 0.7290 0.2782 0.6254
vn 0.9337 0.2346 0.2706
vn -0.0844 0.4528 0.8876
vn 0.2227 0.3878 0.8945
vn -0.7281 0.5904 0.3483
vn -0.6287 0.5694 0.5296
vn -0.6287 0.5694 -0.5296
vn 0.2606 0.9655 0.0000
vn 0.2606 0.9654 0.0000
vn 0.2606 0.9654 -0.0001
vn 0.2605 0.9655 0.0000
vn 0.2605 0.9655 -0.0000
vn -0.7281 0.5904 -0.3483
vn 0.2227 0.3878 -0.8945
vn -0.3238 -0.9008 0.2893
vn -0.4768 -0.8790 -0.0000
vn -0.4296 -0.7407 -0.5166
vn 0.0186 -0.9504 -0.3106
vn 0.5074 -0.8617 -0.0000
vn -0.1691 -0.9856 -0.0001
vn 0.1789 -0.8188 0.5455
vn -0.0801 0.4464 -0.8912
vn 0.9175 0.2755 -0.2868
vn 0.7267 0.3079 -0.6141
vn 0.7267 0.3079 0.6141
vn 0.9175 0.2755 0.2868
vn -0.0801 0.4464 0.8912
vn 0.1745 0.4035 0.8982
vn -0.7366 0.5577 0.3826
vn -0.6765 0.5475 0.4926
vn -0.6765 0.5475 -0.4926
vn 0.2266 0.9740 -0.0001
vn 0.2265 0.9740 0.0000
vn 0.2266 0.9740 0.0001
vn 0.2265 0.9740 0.0001
vn 0.2266 0.9740 0.0000
vn 0.2266 0.9740 -0.0002
vn -0.7366 0.5577 -0.3826
vn 0.1745 0.4035 -0.8982
vn -0.2928 -0.9042 0.3108
vn -0.4572 -0.8893 -0.0000
vn -0.4072 -0.7339 -0.5437
vn 0.0799 -0.9382 -0.3367
vn 0.5890 -0.8081 -0.0000
vn -0.1228 -0.9924 0.0001
vn 0.2387 -0.7816 0.5763
vn -0.0809 0.4414 -0.8936
vn 0.9012 0.3148 -0.2978
vn 0.7195 0.3381 -0.6067
vn 0.7195 0.3381 0.6067
vn 0.9012 0.3148 0.2978
vn -0.0809 0.4414 0.8936
vn 0.1304 0.4149 0.9005
vn -0.7452 0.5249 0.4113
vn -0.7195 0.5214 0.4587
vn -0.7195 0.5214 -0.4587
vn 0.1923 0.9813 -0.0001
vn 0.1922 0.9813 0.0000
vn 0.1923 0.9813 0.0001
vn 0.1921 0.9814 -0.0000
vn 0.1921 0.9814 0.0000
vn 0.1922 0.9813 0.0001
vn 0.1921 0.9814 0.0001
vn -0.7452 0.5249 -0.4113
vn 0.1304 0.4149 -0.9005
vn -0.2593 -0.9088 0.3268
vn -0.4318 -0.9020 -0.0000
vn -0.3824 -0.7329 -0.5627
vn 0.1367 -0.9240 -0.3571
vn 0.6566 -0.7542 -0.0000
vn -0.0762 -0.9971 0.0003
vn 0.2901 -0.7464 0.5989
vn 0.4982 -0.0856 -0.8628
vn 0.9963 -0.0856 0.0000
vn 0.4982 -0.0856 0.8628
vn -0.4982 -0.0856 0.8628
vn 0.0000 1.0000 0.0000
vn -0.9963 -0.0856 -0.0000
vn -0.4982 -0.0856 -0.8628
vn -0.0000 -1.0000 -0.0000
vn 0.0000 -1.0000 -0.0000
vn -0.4982 0.0856 -0.8628
vn -0.9963 0.0856 0.0000
vn -0.4982 0.0856 0.8628
vn 0.4982 0.0856 0.8628
vn 0.9963 0.0856 0.0000
vn 0.4982 0.0856 -0.8628
# 165 vertex normals

vt 0.5218 0.6620 0.0000
vt 0.5718 0.6620 0.0000
vt 0.5718 0.7120 0.0000
vt 0.5218 0.7120 0.0000
vt 0.5593 0.7087 0.0000
vt 0.5684 0.6995 0.0000
vt 0.5718 0.6870 0.0000
vt 0.5343 0.7087 0.0000
vt 0.5684 0.6745 0.0000
vt 0.5593 0.6654 0.0000
vt 0.5343 0.6654 0.0000
vt 0.5468 0.6620 0.0000
vt 0.5251 0.6745 0.0000
vt 0.5218 0.6870 0.0000
vt 0.5251 0.6995 0.0000
vt 0.5468 0.7120 0.0000
vt 0.2978 0.0345 0.0000
vt 0.3478 0.0345 0.0000
vt 0.3478 0.0845 0.0000
vt 0.2978 0.0845 0.0000
vt 0.3228 0.0845 0.0000
vt 0.3445 0.0720 0.0000
vt 0.3445 0.0470 0.0000
vt 0.3228 0.0345 0.0000
vt 0.3012 0.0470 0.0000
vt 0.3012 0.0720 0.0000
# 26 texture coords

g SPW_Natures_Tree_Fir_02
usemtl SPW_Natures_01
s off
f 1/1/1 2/2/1 3/3/1 4/4/1 
f 4/1/2 3/2/2 5/3/2 6/4/2 
f 6/1/3 5/2/3 7/3/3 8/4/3 
f 8/1/4 7/2/4 9/3/4 10/4/4 
f 10/1/5 9/2/5 11/3/5 12/4/5 
f 12/1/6 11/2/6 13/3/6 14/4/6 
f 14/1/7 13/2/7 15/3/7 16/4/7 
f 16/1/8 15/2/8 17/3/8 18/4/8 
f 18/1/9 17/2/9 19/3/9 20/4/9 
f 20/1/10 19/2/10 21/3/10 22/4/10 
f 2/5/11 23/6/11 21/7/11 5/8/11 
f 21/7/12 19/9/12 17/10/12 13/11/12 
f 17/10/13 15/12/13 13/11/13 
f 13/11/14 11/13/14 9/14/14 5/8/14 
f 9/14/15 7/15/15 5/8/15 
f 21/7/16 13/11/16 5/8/16 
f 3/16/17 2/5/17 5/8/17 
f 22/1/18 21/2/18 23/3/18 24/4/18 
f 24/1/19 23/2/19 2/3/19 1/4/19 
f 1/16/20 4/5/20 6/6/20 22/15/20 
f 6/6/21 8/7/21 10/9/21 14/12/21 
f 10/9/22 12/10/22 14/12/22 
f 14/12/23 16/11/23 18/13/23 22/15/23 
f 18/13/24 20/14/24 22/15/24 
f 6/6/25 14/12/25 22/15/25 
f 1/16/26 22/15/26 24/8/26 
f 25/1/27 26/2/27 27/3/27 28/4/27 
f 28/1/28 27/2/28 29/3/28 30/4/28 
f 30/1/29 29/2/29 31/3/29 32/4/29 
f 32/1/30 31/2/30 33/3/30 34/4/30 
f 34/1/31 33/2/31 35/3/31 36/4/31 
f 36/1/32 35/2/32 37/3/32 38/4/32 
f 38/1/33 37/2/33 39/3/33 40/4/33 
f 40/1/34 39/2/34 41/3/34 42/4/34 
f 42/1/35 41/2/35 43/3/35 44/4/35 
f 44/1/36 43/2/36 45/3/36 46/4/36 
f 26/5/37 47/6/37 45/7/37 29/8/37 
f 45/7/38 43/9/38 41/10/38 37/11/38 
f 41/10/39 39/12/39 37/11/39 
f 37/11/40 35/13/40 33/14/40 29/8/40 
f 33/14/41 31/15/41 29/8/41 
f 45/7/42 37/11/42 29/8/42 
f 27/16/43 26/5/43 29/8/43 
f 46/1/44 45/2/44 47/3/44 48/4/44 
f 48/1/45 47/2/45 26/3/45 25/4/45 
f 25/16/46 28/5/46 30/6/46 46/15/46 
f 30/6/47 32/7/47 34/9/47 38/12/47 
f 34/9/48 36/10/48 38/12/48 
f 38/12/49 40/11/49 42/13/49 46/15/49 
f 42/13/50 44/14/50 46/15/50 
f 30/6/51 38/12/51 46/15/51 
f 25/16/52 46/15/52 48/8/52 
f 49/1/53 50/2/53 51/3/53 52/4/53 
f 52/1/54 51/2/54 53/3/54 54/4/54 
f 54/1/55 53/2/55 55/3/55 56/4/55 
f 56/1/56 55/2/56 57/3/56 58/4/56 
f 58/1/57 57/2/57 59/3/57 60/4/57 
f 60/1/58 59/2/58 61/3/58 62/4/58 
f 62/1/59 61/2/59 63/3/59 64/4/59 
f 64/1/60 63/2/60 65/3/60 66/4/60 
f 66/1/61 65/2/61 67/3/61 68/4/61 
f 68/1/62 67/2/62 69/3/62 70/4/62 
f 50/5/63 71/6/63 69/7/63 53/8/63 
f 69/7/64 67/9/64 65/10/64 61/11/64 
f 65/10/65 63/12/65 61/11/65 
f 61/11/63 59/13/63 57/14/63 53/8/63 
f 57/14/66 55/15/66 53/8/66 
f 69/7/63 61/11/63 53/8/63 
f 51/16/65 50/5/65 53/8/65 
f 70/1/67 69/2/67 71/3/67 72/4/67 
f 72/1/68 71/2/68 50/3/68 49/4/68 
f 49/16/69 52/5/69 54/6/69 70/15/69 
f 54/6/70 56/7/70 58/9/70 62/12/70 
f 58/9/71 60/10/71 62/12/71 
f 62/12/72 64/11/72 66/13/72 70/15/72 
f 66/13/73 68/14/73 70/15/73 
f 54/6/74 62/12/74 70/15/74 
f 49/16/75 70/15/75 72/8/75 
f 73/1/76 74/2/76 75/3/76 76/4/76 
f 76/1/77 75/2/77 77/3/77 78/4/77 
f 78/1/78 77/2/78 79/3/78 80/4/78 
f 80/1/79 79/2/79 81/3/79 82/4/79 
f 82/1/80 81/2/80 83/3/80 84/4/80 
f 84/1/81 83/2/81 85/3/81 86/4/81 
f 86/1/82 85/2/82 87/3/82 88/4/82 
f 88/1/83 87/2/83 89/3/83 90/4/83 
f 90/1/84 89/2/84 91/3/84 92/4/84 
f 92/1/85 91/2/85 93/3/85 94/4/85 
f 74/5/86 95/6/86 93/7/86 77/8/86 
f 93/7/87 91/9/87 89/10/87 85/11/87 
f 89/10/88 87/12/88 85/11/88 
f 85/11/89 83/13/89 81/14/89 77/8/89 
f 81/14/89 79/15/89 77/8/89 
f 93/7/89 85/11/89 77/8/89 
f 75/16/90 74/5/90 77/8/90 
f 94/1/91 93/2/91 95/3/91 96/4/91 
f 96/1/92 95/2/92 74/3/92 73/4/92 
f 73/16/93 76/5/93 78/6/93 94/15/93 
f 78/6/94 80/7/94 82/9/94 86/12/94 
f 82/9/95 84/10/95 86/12/95 
f 86/12/96 88/11/96 90/13/96 94/15/96 
f 90/13/97 92/14/97 94/15/97 
f 78/6/98 86/12/98 94/15/98 
f 73/16/99 94/15/99 96/8/99 
f 97/1/100 98/2/100 99/3/100 100/4/100 
f 100/1/101 99/2/101 101/3/101 102/4/101 
f 102/1/102 101/2/102 103/3/102 104/4/102 
f 104/1/103 103/2/103 105/3/103 106/4/103 
f 106/1/104 105/2/104 107/3/104 108/4/104 
f 108/1/105 107/2/105 109/3/105 110/4/105 
f 110/1/106 109/2/106 111/3/106 112/4/106 
f 112/1/107 111/2/107 113/3/107 114/4/107 
f 114/1/108 113/2/108 115/3/108 116/4/108 
f 116/1/109 115/2/109 117/3/109 118/4/109 
f 98/5/110 119/6/110 117/7/110 101/8/110 
f 117/7/111 115/9/111 113/10/111 109/11/111 
f 113/10/112 111/12/112 109/11/112 
f 109/11/113 107/13/113 105/14/113 101/8/113 
f 105/14/114 103/15/114 101/8/114 
f 117/7/111 109/11/111 101/8/111 
f 99/16/115 98/5/115 101/8/115 
f 118/1/116 117/2/116 119/3/116 120/4/116 
f 120/1/117 119/2/117 98/3/117 97/4/117 
f 97/16/118 100/5/118 102/6/118 118/15/118 
f 102/6/119 104/7/119 106/9/119 110/12/119 
f 106/9/120 108/10/120 110/12/120 
f 110/12/121 112/11/121 114/13/121 118/15/121 
f 114/13/122 116/14/122 118/15/122 
f 102/6/123 110/12/123 118/15/123 
f 97/16/124 118/15/124 120/8/124 
f 121/1/125 122/2/125 123/3/125 124/4/125 
f 124/1/126 123/2/126 125/3/126 126/4/126 
f 126/1/127 125/2/127 127/3/127 128/4/127 
f 128/1/128 127/2/128 129/3/128 130/4/128 
f 130/1/129 129/2/129 131/3/129 132/4/129 
f 132/1/130 131/2/130 133/3/130 134/4/130 
f 134/1/131 133/2/131 135/3/131 136/4/131 
f 136/1/132 135/2/132 137/3/132 138/4/132 
f 138/1/133 137/2/133 139/3/133 140/4/133 
f 140/1/134 139/2/134 141/3/134 142/4/134 
f 122/5/135 143/6/135 141/7/135 125/8/135 
f 141/7/136 139/9/136 137/10/136 133/11/136 
f 137/10/137 135/12/137 133/11/137 
f 133/11/138 131/13/138 129/14/138 125/8/138 
f 129/14/139 127/15/139 125/8/139 
f 141/7/140 133/11/140 125/8/140 
f 123/16/141 122/5/141 125/8/141 
f 142/1/142 141/2/142 143/3/142 144/4/142 
f 144/1/143 143/2/143 122/3/143 121/4/143 
f 121/16/144 124/5/144 126/6/144 142/15/144 
f 126/6/145 128/7/145 130/9/145 134/12/145 
f 130/9/146 132/10/146 134/12/146 
f 134/12/147 136/11/147 138/13/147 142/15/147 
f 138/13/148 140/14/148 142/15/148 
f 126/6/149 134/12/149 142/15/149 
f 121/16/150 142/15/150 144/8/150 
f 145/17/151 146/18/151 147/19/151 148/20/151 
f 148/17/152 147/18/152 149/19/152 150/20/152 
f 150/17/153 149/18/153 151/19/153 152/20/153 
f 152/17/154 151/18/154 153/19/154 154/20/154 
f 147/21/155 146/22/155 155/23/155 153/24/155 
f 147/21/155 153/24/155 151/25/155 149/26/155 
f 154/17/156 153/18/156 155/19/156 156/20/156 
f 156/17/157 155/18/157 146/19/157 145/20/157 
f 157/21/158 158/22/158 159/23/158 160/24/158 
f 157/21/159 160/24/159 161/25/159 162/26/159 
f 162/17/160 156/18/160 145/19/160 157/20/160 
f 161/17/161 154/18/161 156/19/161 162/20/161 
f 160/17/162 152/18/162 154/19/162 161/20/162 
f 159/17/163 150/18/163 152/19/163 160/20/163 
f 158/17/164 148/18/164 150/19/164 159/20/164 
f 157/17/165 145/18/165 148/19/165 158/20/165 
# 124 polygons - 48 triangles

