# 3ds Max Wavefront OBJ Exporter v0.97b - (c)2007 guruware
# File Created: 15.03.2017 10:58:58

mtllib SPW_Urban_Props_Bench_02.mtl

#
# object SPW_Urban_Props_Bench_02
#

v  35.8268 23.6220 11.3119
v  35.8268 23.6220 9.7371
v  35.8268 -0.0000 9.7371
v  35.8268 -0.0000 11.3119
v  38.9764 23.6220 9.7371
v  38.9764 -0.0000 9.7371
v  38.9764 23.6220 11.3119
v  38.9764 -0.0000 11.3119
v  35.8268 23.6220 -9.7372
v  35.8268 23.6220 -11.3120
v  35.8267 0.0000 -11.3120
v  35.8267 0.0000 -9.7372
v  38.9764 23.6220 -11.3120
v  38.9763 0.0000 -11.3120
v  38.9764 23.6220 -9.7372
v  38.9763 0.0000 -9.7372
v  35.8268 1.5748 -10.4464
v  35.8268 0.0000 -10.4464
v  35.8268 -0.0000 10.9566
v  35.8268 1.5748 10.9566
v  38.9764 0.0000 -10.4464
v  38.9764 -0.0000 10.9566
v  38.9764 1.5748 -10.4464
v  38.9764 1.5748 10.9566
v  35.8268 23.6209 -10.4464
v  35.8268 22.0460 -10.4464
v  35.8268 22.0460 10.9566
v  35.8268 23.6208 10.9566
v  38.9764 22.0460 -10.4464
v  38.9764 22.0460 10.9566
v  38.9764 23.6209 -10.4464
v  38.9764 23.6208 10.9566
v  -38.9764 1.5748 -10.4464
v  -38.9764 0.0000 -10.4464
v  -38.9764 -0.0000 10.9566
v  -38.9764 1.5748 10.9566
v  -35.8268 0.0000 -10.4464
v  -35.8268 -0.0000 10.9566
v  -35.8268 1.5748 -10.4464
v  -35.8268 1.5748 10.9566
v  -38.9763 23.6220 -9.7372
v  -38.9763 23.6220 -11.3120
v  -38.9764 0.0000 -11.3120
v  -38.9764 0.0000 -9.7372
v  -35.8267 23.6220 -11.3120
v  -35.8268 0.0000 -11.3120
v  -35.8267 23.6220 -9.7372
v  -35.8268 0.0000 -9.7372
v  -38.9763 23.6220 11.3119
v  -38.9763 23.6220 9.7371
v  -38.9764 -0.0000 9.7371
v  -38.9764 -0.0000 11.3119
v  -35.8267 23.6220 9.7371
v  -35.8268 -0.0000 9.7371
v  -35.8267 23.6220 11.3119
v  -35.8268 -0.0000 11.3119
v  -38.9763 23.6209 -10.4464
v  -38.9763 22.0460 -10.4464
v  -38.9763 22.0460 10.9566
v  -38.9763 23.6208 10.9566
v  -35.8267 22.0460 -10.4464
v  -35.8267 22.0460 10.9566
v  -35.8267 23.6209 -10.4464
v  -35.8267 23.6208 10.9566
v  -49.2126 17.4626 2.9528
v  -49.2126 17.4626 -2.9528
v  -49.2126 15.4941 -2.9528
v  -49.2126 15.4941 2.9528
v  49.2126 17.4626 -2.9528
v  49.2126 15.4941 -2.9528
v  49.2126 17.4626 2.9528
v  49.2126 15.4941 2.9528
v  -49.2126 17.4626 -3.9370
v  -49.2126 17.4626 -9.8425
v  -49.2126 15.4941 -9.8425
v  -49.2126 15.4941 -3.9370
v  49.2126 17.4626 -9.8425
v  49.2126 15.4941 -9.8425
v  49.2126 17.4626 -3.9370
v  49.2126 15.4941 -3.9370
v  -49.2126 17.4626 9.8425
v  -49.2126 17.4626 3.9370
v  -49.2126 15.4941 3.9370
v  -49.2126 15.4941 9.8425
v  49.2126 17.4626 3.9370
v  49.2126 15.4941 3.9370
v  49.2126 17.4626 9.8425
v  49.2126 15.4941 9.8425
# 88 vertices

vn -1.0000 0.0000 0.0000
vn 0.0000 0.0000 -1.0000
vn 1.0000 -0.0000 -0.0000
vn 0.0000 -0.0000 1.0000
vn 0.0000 -1.0000 -0.0000
vn 0.0000 1.0000 0.0000
vn -1.0000 0.0000 -0.0000
vn 1.0000 0.0000 -0.0000
# 8 vertex normals

vt 0.5734 0.0370 0.0000
vt 0.6234 0.0370 0.0000
vt 0.6234 0.0870 0.0000
vt 0.5734 0.0870 0.0000
vt 0.7752 0.7260 0.0000
vt 0.8252 0.7260 0.0000
vt 0.8252 0.7760 0.0000
vt 0.7752 0.7760 0.0000
# 8 texture coords

g SPW_Urban_Props_Bench_02
usemtl SPW_Urban_Props
s off
f 1/1/1 2/2/1 3/3/1 4/4/1 
f 2/1/2 5/2/2 6/3/2 3/4/2 
f 5/1/3 7/2/3 8/3/3 6/4/3 
f 7/1/4 1/2/4 4/3/4 8/4/4 
f 4/1/5 3/2/5 6/3/5 8/4/5 
f 7/1/6 5/2/6 2/3/6 1/4/6 
f 9/1/1 10/2/1 11/3/1 12/4/1 
f 10/1/2 13/2/2 14/3/2 11/4/2 
f 13/1/3 15/2/3 16/3/3 14/4/3 
f 15/1/4 9/2/4 12/3/4 16/4/4 
f 12/1/5 11/2/5 14/3/5 16/4/5 
f 15/1/6 13/2/6 10/3/6 9/4/6 
f 17/1/1 18/2/1 19/3/1 20/4/1 
f 18/1/5 21/2/5 22/3/5 19/4/5 
f 21/1/3 23/2/3 24/3/3 22/4/3 
f 23/1/6 17/2/6 20/3/6 24/4/6 
f 20/1/4 19/2/4 22/3/4 24/4/4 
f 23/1/2 21/2/2 18/3/2 17/4/2 
f 25/1/1 26/2/1 27/3/1 28/4/1 
f 26/1/5 29/2/5 30/3/5 27/4/5 
f 29/1/3 31/2/3 32/3/3 30/4/3 
f 31/1/6 25/2/6 28/3/6 32/4/6 
f 28/1/4 27/2/4 30/3/4 32/4/4 
f 31/1/2 29/2/2 26/3/2 25/4/2 
f 33/1/7 34/2/7 35/3/7 36/4/7 
f 34/1/5 37/2/5 38/3/5 35/4/5 
f 37/1/8 39/2/8 40/3/8 38/4/8 
f 39/1/6 33/2/6 36/3/6 40/4/6 
f 36/1/4 35/2/4 38/3/4 40/4/4 
f 39/1/2 37/2/2 34/3/2 33/4/2 
f 41/1/1 42/2/1 43/3/1 44/4/1 
f 42/1/2 45/2/2 46/3/2 43/4/2 
f 45/1/3 47/2/3 48/3/3 46/4/3 
f 47/1/4 41/2/4 44/3/4 48/4/4 
f 44/1/5 43/2/5 46/3/5 48/4/5 
f 47/1/6 45/2/6 42/3/6 41/4/6 
f 49/1/1 50/2/1 51/3/1 52/4/1 
f 50/1/2 53/2/2 54/3/2 51/4/2 
f 53/1/3 55/2/3 56/3/3 54/4/3 
f 55/1/4 49/2/4 52/3/4 56/4/4 
f 52/1/5 51/2/5 54/3/5 56/4/5 
f 55/1/6 53/2/6 50/3/6 49/4/6 
f 57/1/7 58/2/7 59/3/7 60/4/7 
f 58/1/5 61/2/5 62/3/5 59/4/5 
f 61/1/8 63/2/8 64/3/8 62/4/8 
f 63/1/6 57/2/6 60/3/6 64/4/6 
f 60/1/4 59/2/4 62/3/4 64/4/4 
f 63/1/2 61/2/2 58/3/2 57/4/2 
f 65/5/1 66/6/1 67/7/1 68/8/1 
f 66/5/2 69/6/2 70/7/2 67/8/2 
f 69/5/3 71/6/3 72/7/3 70/8/3 
f 71/5/4 65/6/4 68/7/4 72/8/4 
f 68/5/5 67/6/5 70/7/5 72/8/5 
f 71/5/6 69/6/6 66/7/6 65/8/6 
f 73/5/7 74/6/7 75/7/7 76/8/7 
f 74/5/2 77/6/2 78/7/2 75/8/2 
f 77/5/8 79/6/8 80/7/8 78/8/8 
f 79/5/4 73/6/4 76/7/4 80/8/4 
f 76/5/5 75/6/5 78/7/5 80/8/5 
f 79/5/6 77/6/6 74/7/6 73/8/6 
f 81/5/1 82/6/1 83/7/1 84/8/1 
f 82/5/2 85/6/2 86/7/2 83/8/2 
f 85/5/3 87/6/3 88/7/3 86/8/3 
f 87/5/4 81/6/4 84/7/4 88/8/4 
f 84/5/5 83/6/5 86/7/5 88/8/5 
f 87/5/6 85/6/6 82/7/6 81/8/6 
# 66 polygons

