# MagicaVoxel @ Ephtracy

# material
mtllib divider.mtl
usemtl palette

# normals
vn -1 0 0
vn 1 0 0
vn 0 0 1
vn 0 0 -1
vn 0 -1 0
vn 0 1 0

# texcoords
vt 0.0644531 0.5
vt 0.978516 0.5

# verts
v -1.5 0 62.5
v -1.5 0 -62.5
v -1.5 1 62.5
v -1.5 1 -62.5
v 1.5 0 62.5
v 1.5 0 -62.5
v 1.5 1 62.5
v 1.5 1 -62.5
v -1.5 0 62.5
v -1.5 1 62.5
v -0.5 0 62.5
v -0.5 1 62.5
v 0.5 0 62.5
v 0.5 1 62.5
v 1.5 0 62.5
v 1.5 1 62.5
v -1.5 0 -62.5
v -1.5 1 -62.5
v -0.5 0 -62.5
v -0.5 1 -62.5
v 0.5 0 -62.5
v 0.5 1 -62.5
v 1.5 0 -62.5
v 1.5 1 -62.5
v -1.5 0 62.5
v -0.5 0 62.5
v 0.5 0 62.5
v 1.5 0 62.5
v -1.5 0 -62.5
v -0.5 0 -62.5
v 0.5 0 -62.5
v 1.5 0 -62.5
v -1.5 1 62.5
v -0.5 1 62.5
v 0.5 1 62.5
v 1.5 1 62.5
v -1.5 1 -62.5
v -0.5 1 -62.5
v 0.5 1 -62.5
v 1.5 1 -62.5

# faces
f 3/1/1 2/1/1 1/1/1
f 4/1/1 2/1/1 3/1/1
f 5/1/2 6/1/2 7/1/2
f 7/1/2 6/1/2 8/1/2
f 11/1/3 10/1/3 9/1/3
f 12/1/3 10/1/3 11/1/3
f 13/2/3 12/2/3 11/2/3
f 14/2/3 12/2/3 13/2/3
f 15/1/3 14/1/3 13/1/3
f 16/1/3 14/1/3 15/1/3
f 17/1/4 18/1/4 19/1/4
f 19/1/4 18/1/4 20/1/4
f 19/2/4 20/2/4 21/2/4
f 21/2/4 20/2/4 22/2/4
f 21/1/4 22/1/4 23/1/4
f 23/1/4 22/1/4 24/1/4
f 29/1/5 26/1/5 25/1/5
f 30/2/5 27/2/5 26/2/5
f 30/1/5 26/1/5 29/1/5
f 31/1/5 28/1/5 27/1/5
f 31/2/5 27/2/5 30/2/5
f 32/1/5 28/1/5 31/1/5
f 33/1/6 34/1/6 37/1/6
f 34/2/6 35/2/6 38/2/6
f 37/1/6 34/1/6 38/1/6
f 35/1/6 36/1/6 39/1/6
f 38/2/6 35/2/6 39/2/6
f 39/1/6 36/1/6 40/1/6
