# MagicaVoxel @ Ephtracy

# material
mtllib drive-lane-sharrow.mtl
usemtl palette

# normals
vn -1 0 0
vn 1 0 0
vn 0 0 1
vn 0 0 -1
vn 0 -1 0
vn 0 1 0

# texcoords
vt 0.962891 0.5
vt 0.970703 0.5
vt 0.978516 0.5

# verts
v -15 0 62.5
v -15 0 -62.5
v -15 1 62.5
v -15 1 -62.5
v 15 0 62.5
v 15 0 -62.5
v 15 1 62.5
v 15 1 -62.5
v -15 0 62.5
v -15 1 62.5
v 15 0 62.5
v 15 1 62.5
v -15 0 -62.5
v -15 1 -62.5
v 15 0 -62.5
v 15 1 -62.5
v -15 0 62.5
v 15 0 62.5
v -2 0 8.5
v 2 0 8.5
v -4 0 -0.5
v -2 0 -0.5
v 2 0 -0.5
v 4 0 -0.5
v -4 0 -2.5
v -3 0 -2.5
v 3 0 -2.5
v 4 0 -2.5
v -3 0 -4.5
v -2 0 -4.5
v 2 0 -4.5
v 3 0 -4.5
v -2 0 -6.5
v -1 0 -6.5
v 1 0 -6.5
v 2 0 -6.5
v -1 0 -8.5
v 1 0 -8.5
v -5 0 -22.5
v -3 0 -22.5
v 3 0 -22.5
v 5 0 -22.5
v -6 0 -23.5
v -5 0 -23.5
v -3 0 -23.5
v -2 0 -23.5
v 2 0 -23.5
v 3 0 -23.5
v 5 0 -23.5
v 6 0 -23.5
v 0 0 -24.5
v 1 0 -24.5
v -6 0 -26.5
v -5 0 -26.5
v -3 0 -26.5
v -2 0 -26.5
v -1 0 -26.5
v 0 0 -26.5
v 1 0 -26.5
v 2 0 -26.5
v 3 0 -26.5
v 5 0 -26.5
v 6 0 -26.5
v -5 0 -27.5
v -3 0 -27.5
v 3 0 -27.5
v 5 0 -27.5
v 1 0 -28.5
v 2 0 -28.5
v 3 0 -28.5
v -1 0 -29.5
v 0 0 -29.5
v -2 0 -30.5
v -1 0 -30.5
v 0 0 -30.5
v 2 0 -30.5
v -1 0 -31.5
v 0 0 -31.5
v -4 0 -32.5
v -2 0 -32.5
v -1 0 -32.5
v 0 0 -32.5
v 2 0 -32.5
v 3 0 -32.5
v -4 0 -33.5
v -3 0 -33.5
v -2 0 -33.5
v -1 0 -33.5
v -3 0 -34.5
v -2 0 -34.5
v 1 0 -34.5
v 2 0 -34.5
v -2 0 -35.5
v -1 0 -35.5
v -1 0 -36.5
v 1 0 -36.5
v -2 0 -37.5
v 0 0 -37.5
v -2 0 -40.5
v 0 0 -40.5
v -6 0 -41.5
v -3 0 -41.5
v 3 0 -41.5
v 6 0 -41.5
v -6 0 -42.5
v -4 0 -42.5
v -3 0 -42.5
v -1 0 -42.5
v 1 0 -42.5
v 3 0 -42.5
v 4 0 -42.5
v 6 0 -42.5
v -4 0 -43.5
v -2 0 -43.5
v -1 0 -43.5
v 1 0 -43.5
v 2 0 -43.5
v 4 0 -43.5
v -2 0 -44.5
v 2 0 -44.5
v -6 0 -45.5
v -3 0 -45.5
v 3 0 -45.5
v 6 0 -45.5
v -6 0 -46.5
v -4 0 -46.5
v -3 0 -46.5
v -1 0 -46.5
v 1 0 -46.5
v 3 0 -46.5
v 4 0 -46.5
v 6 0 -46.5
v -4 0 -47.5
v -2 0 -47.5
v -1 0 -47.5
v 1 0 -47.5
v 2 0 -47.5
v 4 0 -47.5
v -2 0 -48.5
v 2 0 -48.5
v -15 0 -62.5
v 15 0 -62.5
v -15 1 62.5
v 15 1 62.5
v -2 1 8.5
v 2 1 8.5
v -4 1 -0.5
v -2 1 -0.5
v 2 1 -0.5
v 4 1 -0.5
v -4 1 -2.5
v -3 1 -2.5
v 3 1 -2.5
v 4 1 -2.5
v -3 1 -4.5
v -2 1 -4.5
v 2 1 -4.5
v 3 1 -4.5
v -2 1 -6.5
v -1 1 -6.5
v 1 1 -6.5
v 2 1 -6.5
v -1 1 -8.5
v 1 1 -8.5
v -5 1 -22.5
v -3 1 -22.5
v 3 1 -22.5
v 5 1 -22.5
v -6 1 -23.5
v -5 1 -23.5
v -3 1 -23.5
v -2 1 -23.5
v 2 1 -23.5
v 3 1 -23.5
v 5 1 -23.5
v 6 1 -23.5
v 0 1 -24.5
v 1 1 -24.5
v -6 1 -26.5
v -5 1 -26.5
v -3 1 -26.5
v -2 1 -26.5
v -1 1 -26.5
v 0 1 -26.5
v 1 1 -26.5
v 2 1 -26.5
v 3 1 -26.5
v 5 1 -26.5
v 6 1 -26.5
v -5 1 -27.5
v -3 1 -27.5
v 3 1 -27.5
v 5 1 -27.5
v 1 1 -28.5
v 2 1 -28.5
v 3 1 -28.5
v -1 1 -29.5
v 0 1 -29.5
v -2 1 -30.5
v -1 1 -30.5
v 0 1 -30.5
v 2 1 -30.5
v -1 1 -31.5
v 0 1 -31.5
v -4 1 -32.5
v -2 1 -32.5
v -1 1 -32.5
v 0 1 -32.5
v 2 1 -32.5
v 3 1 -32.5
v -4 1 -33.5
v -3 1 -33.5
v -2 1 -33.5
v -1 1 -33.5
v -3 1 -34.5
v -2 1 -34.5
v 1 1 -34.5
v 2 1 -34.5
v -2 1 -35.5
v -1 1 -35.5
v -1 1 -36.5
v 1 1 -36.5
v -2 1 -37.5
v 0 1 -37.5
v -2 1 -40.5
v 0 1 -40.5
v -6 1 -41.5
v -3 1 -41.5
v 3 1 -41.5
v 6 1 -41.5
v -6 1 -42.5
v -4 1 -42.5
v -3 1 -42.5
v -1 1 -42.5
v 1 1 -42.5
v 3 1 -42.5
v 4 1 -42.5
v 6 1 -42.5
v -4 1 -43.5
v -2 1 -43.5
v -1 1 -43.5
v 1 1 -43.5
v 2 1 -43.5
v 4 1 -43.5
v -2 1 -44.5
v 2 1 -44.5
v -6 1 -45.5
v -3 1 -45.5
v 3 1 -45.5
v 6 1 -45.5
v -6 1 -46.5
v -4 1 -46.5
v -3 1 -46.5
v -1 1 -46.5
v 1 1 -46.5
v 3 1 -46.5
v 4 1 -46.5
v 6 1 -46.5
v -4 1 -47.5
v -2 1 -47.5
v -1 1 -47.5
v 1 1 -47.5
v 2 1 -47.5
v 4 1 -47.5
v -2 1 -48.5
v 2 1 -48.5
v -15 1 -62.5
v 15 1 -62.5

# faces
f 3/3/1 2/3/1 1/3/1
f 4/3/1 2/3/1 3/3/1
f 5/3/2 6/3/2 7/3/2
f 7/3/2 6/3/2 8/3/2
f 11/3/3 10/3/3 9/3/3
f 12/3/3 10/3/3 11/3/3
f 13/3/4 14/3/4 15/3/4
f 15/3/4 14/3/4 16/3/4
f 19/3/5 18/3/5 17/3/5
f 20/3/5 18/3/5 19/3/5
f 21/3/5 19/3/5 17/3/5
f 22/2/5 20/2/5 19/2/5
f 22/3/5 19/3/5 21/3/5
f 23/3/5 18/3/5 20/3/5
f 23/2/5 20/2/5 22/2/5
f 24/3/5 18/3/5 23/3/5
f 25/2/5 22/2/5 21/2/5
f 25/3/5 21/3/5 17/3/5
f 25/2/5 24/2/5 23/2/5
f 25/2/5 23/2/5 22/2/5
f 26/2/5 24/2/5 25/2/5
f 27/2/5 24/2/5 26/2/5
f 28/3/5 18/3/5 24/3/5
f 28/2/5 24/2/5 27/2/5
f 29/2/5 27/2/5 26/2/5
f 29/3/5 26/3/5 25/3/5
f 30/2/5 27/2/5 29/2/5
f 31/2/5 27/2/5 30/2/5
f 32/3/5 28/3/5 27/3/5
f 32/2/5 27/2/5 31/2/5
f 33/2/5 31/2/5 30/2/5
f 33/3/5 30/3/5 29/3/5
f 34/2/5 31/2/5 33/2/5
f 35/2/5 31/2/5 34/2/5
f 36/3/5 32/3/5 31/3/5
f 36/2/5 31/2/5 35/2/5
f 37/2/5 35/2/5 34/2/5
f 37/3/5 34/3/5 33/3/5
f 38/3/5 36/3/5 35/3/5
f 38/2/5 35/2/5 37/2/5
f 39/3/5 25/3/5 17/3/5
f 39/3/5 29/3/5 25/3/5
f 39/3/5 38/3/5 37/3/5
f 39/3/5 37/3/5 33/3/5
f 39/3/5 33/3/5 29/3/5
f 40/3/5 38/3/5 39/3/5
f 41/3/5 36/3/5 38/3/5
f 41/3/5 38/3/5 40/3/5
f 41/3/5 28/3/5 32/3/5
f 41/3/5 32/3/5 36/3/5
f 42/3/5 18/3/5 28/3/5
f 42/3/5 28/3/5 41/3/5
f 43/3/5 39/3/5 17/3/5
f 44/1/5 40/1/5 39/1/5
f 44/3/5 39/3/5 43/3/5
f 45/3/5 41/3/5 40/3/5
f 45/1/5 40/1/5 44/1/5
f 46/3/5 41/3/5 45/3/5
f 47/3/5 41/3/5 46/3/5
f 48/1/5 42/1/5 41/1/5
f 48/3/5 41/3/5 47/3/5
f 49/3/5 18/3/5 42/3/5
f 49/1/5 42/1/5 48/1/5
f 50/3/5 18/3/5 49/3/5
f 51/3/5 47/3/5 46/3/5
f 52/3/5 47/3/5 51/3/5
f 53/1/5 44/1/5 43/1/5
f 53/3/5 43/3/5 17/3/5
f 54/3/5 45/3/5 44/3/5
f 54/1/5 44/1/5 53/1/5
f 55/1/5 46/1/5 45/1/5
f 55/3/5 45/3/5 54/3/5
f 56/3/5 51/3/5 46/3/5
f 56/1/5 46/1/5 55/1/5
f 57/3/5 51/3/5 56/3/5
f 58/1/5 52/1/5 51/1/5
f 58/3/5 51/3/5 57/3/5
f 59/3/5 47/3/5 52/3/5
f 59/1/5 52/1/5 58/1/5
f 60/1/5 48/1/5 47/1/5
f 60/3/5 47/3/5 59/3/5
f 61/3/5 49/3/5 48/3/5
f 61/1/5 48/1/5 60/1/5
f 62/1/5 50/1/5 49/1/5
f 62/3/5 49/3/5 61/3/5
f 63/3/5 18/3/5 50/3/5
f 63/1/5 50/1/5 62/1/5
f 64/3/5 54/3/5 53/3/5
f 64/1/5 55/1/5 54/1/5
f 65/3/5 56/3/5 55/3/5
f 65/1/5 55/1/5 64/1/5
f 66/1/5 62/1/5 61/1/5
f 66/3/5 61/3/5 60/3/5
f 67/3/5 63/3/5 62/3/5
f 67/1/5 62/1/5 66/1/5
f 68/3/5 58/3/5 57/3/5
f 68/3/5 59/3/5 58/3/5
f 68/1/5 60/1/5 59/1/5
f 69/3/5 67/3/5 66/3/5
f 69/1/5 60/1/5 68/1/5
f 69/3/5 66/3/5 60/3/5
f 70/3/5 67/3/5 69/3/5
f 71/1/5 57/1/5 56/1/5
f 71/3/5 68/3/5 57/3/5
f 71/3/5 69/3/5 68/3/5
f 72/3/5 69/3/5 71/3/5
f 73/3/5 56/3/5 65/3/5
f 73/3/5 65/3/5 64/3/5
f 73/1/5 72/1/5 71/1/5
f 73/1/5 71/1/5 56/1/5
f 74/1/5 72/1/5 73/1/5
f 75/3/5 69/3/5 72/3/5
f 75/1/5 72/1/5 74/1/5
f 76/1/5 70/1/5 69/1/5
f 76/3/5 69/3/5 75/3/5
f 77/1/5 75/1/5 74/1/5
f 77/3/5 74/3/5 73/3/5
f 77/1/5 76/1/5 75/1/5
f 78/1/5 76/1/5 77/1/5
f 79/3/5 73/3/5 64/3/5
f 79/3/5 77/3/5 73/3/5
f 79/3/5 78/3/5 77/3/5
f 80/3/5 78/3/5 79/3/5
f 81/3/5 78/3/5 80/3/5
f 82/1/5 76/1/5 78/1/5
f 82/3/5 78/3/5 81/3/5
f 83/1/5 70/1/5 76/1/5
f 83/1/5 76/1/5 82/1/5
f 84/3/5 67/3/5 70/3/5
f 84/1/5 70/1/5 83/1/5
f 85/3/5 79/3/5 64/3/5
f 85/1/5 80/1/5 79/1/5
f 86/1/5 80/1/5 85/1/5
f 87/3/5 81/3/5 80/3/5
f 87/1/5 80/1/5 86/1/5
f 88/1/5 83/1/5 82/1/5
f 88/3/5 81/3/5 87/3/5
f 88/1/5 82/1/5 81/1/5
f 89/1/5 87/1/5 86/1/5
f 89/3/5 86/3/5 85/3/5
f 89/1/5 88/1/5 87/1/5
f 90/1/5 88/1/5 89/1/5
f 91/1/5 83/1/5 88/1/5
f 91/1/5 88/1/5 90/1/5
f 92/3/5 84/3/5 83/3/5
f 92/1/5 83/1/5 91/1/5
f 93/3/5 90/3/5 89/3/5
f 93/1/5 91/1/5 90/1/5
f 94/1/5 91/1/5 93/1/5
f 95/3/5 94/3/5 93/3/5
f 95/1/5 91/1/5 94/1/5
f 96/3/5 92/3/5 91/3/5
f 96/1/5 91/1/5 95/1/5
f 97/3/5 95/3/5 93/3/5
f 97/3/5 93/3/5 89/3/5
f 97/3/5 96/3/5 95/3/5
f 98/3/5 96/3/5 97/3/5
f 99/3/5 97/3/5 89/3/5
f 99/1/5 98/1/5 97/1/5
f 100/3/5 96/3/5 98/3/5
f 100/1/5 98/1/5 99/1/5
f 101/3/5 85/3/5 64/3/5
f 101/3/5 53/3/5 17/3/5
f 101/3/5 100/3/5 99/3/5
f 101/3/5 99/3/5 89/3/5
f 101/3/5 89/3/5 85/3/5
f 101/3/5 64/3/5 53/3/5
f 102/3/5 100/3/5 101/3/5
f 103/3/5 84/3/5 92/3/5
f 103/3/5 100/3/5 102/3/5
f 103/3/5 96/3/5 100/3/5
f 103/3/5 92/3/5 96/3/5
f 103/3/5 67/3/5 84/3/5
f 104/3/5 63/3/5 67/3/5
f 104/3/5 67/3/5 103/3/5
f 104/3/5 18/3/5 63/3/5
f 105/1/5 102/1/5 101/1/5
f 105/3/5 101/3/5 17/3/5
f 106/1/5 102/1/5 105/1/5
f 107/3/5 103/3/5 102/3/5
f 107/1/5 102/1/5 106/1/5
f 108/3/5 103/3/5 107/3/5
f 109/3/5 103/3/5 108/3/5
f 110/1/5 104/1/5 103/1/5
f 110/3/5 103/3/5 109/3/5
f 111/1/5 104/1/5 110/1/5
f 112/3/5 18/3/5 104/3/5
f 112/1/5 104/1/5 111/1/5
f 113/3/5 106/3/5 105/3/5
f 113/1/5 107/1/5 106/1/5
f 113/1/5 108/1/5 107/1/5
f 114/1/5 108/1/5 113/1/5
f 115/3/5 109/3/5 108/3/5
f 115/1/5 108/1/5 114/1/5
f 116/1/5 111/1/5 110/1/5
f 116/3/5 109/3/5 115/3/5
f 116/1/5 110/1/5 109/1/5
f 117/1/5 111/1/5 116/1/5
f 118/3/5 112/3/5 111/3/5
f 118/1/5 111/1/5 117/1/5
f 119/1/5 115/1/5 114/1/5
f 119/3/5 114/3/5 113/3/5
f 119/1/5 117/1/5 116/1/5
f 119/1/5 116/1/5 115/1/5
f 120/3/5 118/3/5 117/3/5
f 120/1/5 117/1/5 119/1/5
f 121/3/5 119/3/5 113/3/5
f 121/3/5 105/3/5 17/3/5
f 121/3/5 120/3/5 119/3/5
f 121/3/5 113/3/5 105/3/5
f 122/3/5 120/3/5 121/3/5
f 123/3/5 118/3/5 120/3/5
f 123/3/5 120/3/5 122/3/5
f 124/3/5 18/3/5 112/3/5
f 124/3/5 118/3/5 123/3/5
f 124/3/5 112/3/5 118/3/5
f 125/3/5 121/3/5 17/3/5
f 125/1/5 122/1/5 121/1/5
f 126/1/5 122/1/5 125/1/5
f 127/3/5 123/3/5 122/3/5
f 127/1/5 122/1/5 126/1/5
f 128/3/5 123/3/5 127/3/5
f 129/3/5 123/3/5 128/3/5
f 130/1/5 124/1/5 123/1/5
f 130/3/5 123/3/5 129/3/5
f 131/1/5 124/1/5 130/1/5
f 132/3/5 18/3/5 124/3/5
f 132/1/5 124/1/5 131/1/5
f 133/3/5 126/3/5 125/3/5
f 133/1/5 127/1/5 126/1/5
f 133/1/5 128/1/5 127/1/5
f 134/1/5 128/1/5 133/1/5
f 135/3/5 129/3/5 128/3/5
f 135/1/5 128/1/5 134/1/5
f 136/1/5 131/1/5 130/1/5
f 136/3/5 129/3/5 135/3/5
f 136/1/5 130/1/5 129/1/5
f 137/1/5 131/1/5 136/1/5
f 138/3/5 132/3/5 131/3/5
f 138/1/5 131/1/5 137/1/5
f 139/1/5 135/1/5 134/1/5
f 139/3/5 134/3/5 133/3/5
f 139/1/5 137/1/5 136/1/5
f 139/1/5 136/1/5 135/1/5
f 140/3/5 138/3/5 137/3/5
f 140/1/5 137/1/5 139/1/5
f 141/3/5 139/3/5 133/3/5
f 141/3/5 125/3/5 17/3/5
f 141/3/5 140/3/5 139/3/5
f 141/3/5 133/3/5 125/3/5
f 142/3/5 18/3/5 132/3/5
f 142/3/5 140/3/5 141/3/5
f 142/3/5 132/3/5 138/3/5
f 142/3/5 138/3/5 140/3/5
f 143/3/6 144/3/6 145/3/6
f 145/3/6 144/3/6 146/3/6
f 143/3/6 145/3/6 147/3/6
f 145/2/6 146/2/6 148/2/6
f 147/3/6 145/3/6 148/3/6
f 146/3/6 144/3/6 149/3/6
f 148/2/6 146/2/6 149/2/6
f 149/3/6 144/3/6 150/3/6
f 147/2/6 148/2/6 151/2/6
f 143/3/6 147/3/6 151/3/6
f 149/2/6 150/2/6 151/2/6
f 148/2/6 149/2/6 151/2/6
f 151/2/6 150/2/6 152/2/6
f 152/2/6 150/2/6 153/2/6
f 150/3/6 144/3/6 154/3/6
f 153/2/6 150/2/6 154/2/6
f 152/2/6 153/2/6 155/2/6
f 151/3/6 152/3/6 155/3/6
f 155/2/6 153/2/6 156/2/6
f 156/2/6 153/2/6 157/2/6
f 153/3/6 154/3/6 158/3/6
f 157/2/6 153/2/6 158/2/6
f 156/2/6 157/2/6 159/2/6
f 155/3/6 156/3/6 159/3/6
f 159/2/6 157/2/6 160/2/6
f 160/2/6 157/2/6 161/2/6
f 157/3/6 158/3/6 162/3/6
f 161/2/6 157/2/6 162/2/6
f 160/2/6 161/2/6 163/2/6
f 159/3/6 160/3/6 163/3/6
f 161/3/6 162/3/6 164/3/6
f 163/2/6 161/2/6 164/2/6
f 143/3/6 151/3/6 165/3/6
f 151/3/6 155/3/6 165/3/6
f 163/3/6 164/3/6 165/3/6
f 159/3/6 163/3/6 165/3/6
f 155/3/6 159/3/6 165/3/6
f 165/3/6 164/3/6 166/3/6
f 164/3/6 162/3/6 167/3/6
f 166/3/6 164/3/6 167/3/6
f 158/3/6 154/3/6 167/3/6
f 162/3/6 158/3/6 167/3/6
f 154/3/6 144/3/6 168/3/6
f 167/3/6 154/3/6 168/3/6
f 143/3/6 165/3/6 169/3/6
f 165/1/6 166/1/6 170/1/6
f 169/3/6 165/3/6 170/3/6
f 166/3/6 167/3/6 171/3/6
f 170/1/6 166/1/6 171/1/6
f 171/3/6 167/3/6 172/3/6
f 172/3/6 167/3/6 173/3/6
f 167/1/6 168/1/6 174/1/6
f 173/3/6 167/3/6 174/3/6
f 168/3/6 144/3/6 175/3/6
f 174/1/6 168/1/6 175/1/6
f 175/3/6 144/3/6 176/3/6
f 172/3/6 173/3/6 177/3/6
f 177/3/6 173/3/6 178/3/6
f 169/1/6 170/1/6 179/1/6
f 143/3/6 169/3/6 179/3/6
f 170/3/6 171/3/6 180/3/6
f 179/1/6 170/1/6 180/1/6
f 171/1/6 172/1/6 181/1/6
f 180/3/6 171/3/6 181/3/6
f 172/3/6 177/3/6 182/3/6
f 181/1/6 172/1/6 182/1/6
f 182/3/6 177/3/6 183/3/6
f 177/1/6 178/1/6 184/1/6
f 183/3/6 177/3/6 184/3/6
f 178/3/6 173/3/6 185/3/6
f 184/1/6 178/1/6 185/1/6
f 173/1/6 174/1/6 186/1/6
f 185/3/6 173/3/6 186/3/6
f 174/3/6 175/3/6 187/3/6
f 186/1/6 174/1/6 187/1/6
f 175/1/6 176/1/6 188/1/6
f 187/3/6 175/3/6 188/3/6
f 176/3/6 144/3/6 189/3/6
f 188/1/6 176/1/6 189/1/6
f 179/3/6 180/3/6 190/3/6
f 180/1/6 181/1/6 190/1/6
f 181/3/6 182/3/6 191/3/6
f 190/1/6 181/1/6 191/1/6
f 187/1/6 188/1/6 192/1/6
f 186/3/6 187/3/6 192/3/6
f 188/3/6 189/3/6 193/3/6
f 192/1/6 188/1/6 193/1/6
f 183/3/6 184/3/6 194/3/6
f 184/3/6 185/3/6 194/3/6
f 185/1/6 186/1/6 194/1/6
f 192/3/6 193/3/6 195/3/6
f 194/1/6 186/1/6 195/1/6
f 186/3/6 192/3/6 195/3/6
f 195/3/6 193/3/6 196/3/6
f 182/1/6 183/1/6 197/1/6
f 183/3/6 194/3/6 197/3/6
f 194/3/6 195/3/6 197/3/6
f 197/3/6 195/3/6 198/3/6
f 191/3/6 182/3/6 199/3/6
f 190/3/6 191/3/6 199/3/6
f 197/1/6 198/1/6 199/1/6
f 182/1/6 197/1/6 199/1/6
f 199/1/6 198/1/6 200/1/6
f 198/3/6 195/3/6 201/3/6
f 200/1/6 198/1/6 201/1/6
f 195/1/6 196/1/6 202/1/6
f 201/3/6 195/3/6 202/3/6
f 200/1/6 201/1/6 203/1/6
f 199/3/6 200/3/6 203/3/6
f 201/1/6 202/1/6 203/1/6
f 203/1/6 202/1/6 204/1/6
f 190/3/6 199/3/6 205/3/6
f 199/3/6 203/3/6 205/3/6
f 203/3/6 204/3/6 205/3/6
f 205/3/6 204/3/6 206/3/6
f 206/3/6 204/3/6 207/3/6
f 204/1/6 202/1/6 208/1/6
f 207/3/6 204/3/6 208/3/6
f 202/1/6 196/1/6 209/1/6
f 208/1/6 202/1/6 209/1/6
f 196/3/6 193/3/6 210/3/6
f 209/1/6 196/1/6 210/1/6
f 190/3/6 205/3/6 211/3/6
f 205/1/6 206/1/6 211/1/6
f 211/1/6 206/1/6 212/1/6
f 206/3/6 207/3/6 213/3/6
f 212/1/6 206/1/6 213/1/6
f 208/1/6 209/1/6 214/1/6
f 213/3/6 207/3/6 214/3/6
f 207/1/6 208/1/6 214/1/6
f 212/1/6 213/1/6 215/1/6
f 211/3/6 212/3/6 215/3/6
f 213/1/6 214/1/6 215/1/6
f 215/1/6 214/1/6 216/1/6
f 214/1/6 209/1/6 217/1/6
f 216/1/6 214/1/6 217/1/6
f 209/3/6 210/3/6 218/3/6
f 217/1/6 209/1/6 218/1/6
f 215/3/6 216/3/6 219/3/6
f 216/1/6 217/1/6 219/1/6
f 219/1/6 217/1/6 220/1/6
f 219/3/6 220/3/6 221/3/6
f 220/1/6 217/1/6 221/1/6
f 217/3/6 218/3/6 222/3/6
f 221/1/6 217/1/6 222/1/6
f 219/3/6 221/3/6 223/3/6
f 215/3/6 219/3/6 223/3/6
f 221/3/6 222/3/6 223/3/6
f 223/3/6 222/3/6 224/3/6
f 215/3/6 223/3/6 225/3/6
f 223/1/6 224/1/6 225/1/6
f 224/3/6 222/3/6 226/3/6
f 225/1/6 224/1/6 226/1/6
f 190/3/6 211/3/6 227/3/6
f 143/3/6 179/3/6 227/3/6
f 225/3/6 226/3/6 227/3/6
f 215/3/6 225/3/6 227/3/6
f 211/3/6 215/3/6 227/3/6
f 179/3/6 190/3/6 227/3/6
f 227/3/6 226/3/6 228/3/6
f 218/3/6 210/3/6 229/3/6
f 228/3/6 226/3/6 229/3/6
f 226/3/6 222/3/6 229/3/6
f 222/3/6 218/3/6 229/3/6
f 210/3/6 193/3/6 229/3/6
f 193/3/6 189/3/6 230/3/6
f 229/3/6 193/3/6 230/3/6
f 189/3/6 144/3/6 230/3/6
f 227/1/6 228/1/6 231/1/6
f 143/3/6 227/3/6 231/3/6
f 231/1/6 228/1/6 232/1/6
f 228/3/6 229/3/6 233/3/6
f 232/1/6 228/1/6 233/1/6
f 233/3/6 229/3/6 234/3/6
f 234/3/6 229/3/6 235/3/6
f 229/1/6 230/1/6 236/1/6
f 235/3/6 229/3/6 236/3/6
f 236/1/6 230/1/6 237/1/6
f 230/3/6 144/3/6 238/3/6
f 237/1/6 230/1/6 238/1/6
f 231/3/6 232/3/6 239/3/6
f 232/1/6 233/1/6 239/1/6
f 233/1/6 234/1/6 239/1/6
f 239/1/6 234/1/6 240/1/6
f 234/3/6 235/3/6 241/3/6
f 240/1/6 234/1/6 241/1/6
f 236/1/6 237/1/6 242/1/6
f 241/3/6 235/3/6 242/3/6
f 235/1/6 236/1/6 242/1/6
f 242/1/6 237/1/6 243/1/6
f 237/3/6 238/3/6 244/3/6
f 243/1/6 237/1/6 244/1/6
f 240/1/6 241/1/6 245/1/6
f 239/3/6 240/3/6 245/3/6
f 242/1/6 243/1/6 245/1/6
f 241/1/6 242/1/6 245/1/6
f 243/3/6 244/3/6 246/3/6
f 245/1/6 243/1/6 246/1/6
f 239/3/6 245/3/6 247/3/6
f 143/3/6 231/3/6 247/3/6
f 245/3/6 246/3/6 247/3/6
f 231/3/6 239/3/6 247/3/6
f 247/3/6 246/3/6 248/3/6
f 246/3/6 244/3/6 249/3/6
f 248/3/6 246/3/6 249/3/6
f 238/3/6 144/3/6 250/3/6
f 249/3/6 244/3/6 250/3/6
f 244/3/6 238/3/6 250/3/6
f 143/3/6 247/3/6 251/3/6
f 247/1/6 248/1/6 251/1/6
f 251/1/6 248/1/6 252/1/6
f 248/3/6 249/3/6 253/3/6
f 252/1/6 248/1/6 253/1/6
f 253/3/6 249/3/6 254/3/6
f 254/3/6 249/3/6 255/3/6
f 249/1/6 250/1/6 256/1/6
f 255/3/6 249/3/6 256/3/6
f 256/1/6 250/1/6 257/1/6
f 250/3/6 144/3/6 258/3/6
f 257/1/6 250/1/6 258/1/6
f 251/3/6 252/3/6 259/3/6
f 252/1/6 253/1/6 259/1/6
f 253/1/6 254/1/6 259/1/6
f 259/1/6 254/1/6 260/1/6
f 254/3/6 255/3/6 261/3/6
f 260/1/6 254/1/6 261/1/6
f 256/1/6 257/1/6 262/1/6
f 261/3/6 255/3/6 262/3/6
f 255/1/6 256/1/6 262/1/6
f 262/1/6 257/1/6 263/1/6
f 257/3/6 258/3/6 264/3/6
f 263/1/6 257/1/6 264/1/6
f 260/1/6 261/1/6 265/1/6
f 259/3/6 260/3/6 265/3/6
f 262/1/6 263/1/6 265/1/6
f 261/1/6 262/1/6 265/1/6
f 263/3/6 264/3/6 266/3/6
f 265/1/6 263/1/6 266/1/6
f 259/3/6 265/3/6 267/3/6
f 143/3/6 251/3/6 267/3/6
f 265/3/6 266/3/6 267/3/6
f 251/3/6 259/3/6 267/3/6
f 258/3/6 144/3/6 268/3/6
f 267/3/6 266/3/6 268/3/6
f 264/3/6 258/3/6 268/3/6
f 266/3/6 264/3/6 268/3/6
