# MagicaVoxel @ Ephtracy

# material
mtllib light-rail.mtl
usemtl palette

# normals
vn -1 0 0
vn 1 0 0
vn 0 0 1
vn 0 0 -1
vn 0 -1 0
vn 0 1 0

# texcoords
vt 0.841797 0.5
vt 0.853516 0.5
vt 0.978516 0.5
vt 0.990234 0.5

# verts
v -15 0 62.5
v -15 0 -62.5
v -15 2 62.5
v -15 2 -62.5
v -6 1 62.5
v -6 1 23.5
v -6 1 22.5
v -6 1 -62.5
v -6 2 62.5
v -6 2 -62.5
v 7 1 62.5
v 7 1 -62.5
v 7 2 62.5
v 7 2 -62.5
v -7 1 62.5
v -7 1 23.5
v -7 1 22.5
v -7 1 -62.5
v -7 2 62.5
v -7 2 -62.5
v 6 1 62.5
v 6 1 -62.5
v 6 2 62.5
v 6 2 -62.5
v 15 0 62.5
v 15 0 -62.5
v 15 2 62.5
v 15 2 -62.5
v -15 0 62.5
v -15 2 62.5
v -8 0 62.5
v -8 2 62.5
v -7 0 62.5
v -7 1 62.5
v -7 2 62.5
v -6 1 62.5
v -6 2 62.5
v 6 1 62.5
v 6 2 62.5
v 7 0 62.5
v 7 1 62.5
v 7 2 62.5
v 8 0 62.5
v 8 2 62.5
v 15 0 62.5
v 15 2 62.5
v -15 0 -62.5
v -15 2 -62.5
v -8 0 -62.5
v -8 2 -62.5
v -7 0 -62.5
v -7 1 -62.5
v -7 2 -62.5
v -6 1 -62.5
v -6 2 -62.5
v 6 1 -62.5
v 6 2 -62.5
v 7 0 -62.5
v 7 1 -62.5
v 7 2 -62.5
v 8 0 -62.5
v 8 2 -62.5
v 15 0 -62.5
v 15 2 -62.5
v -15 0 62.5
v -8 0 62.5
v -7 0 62.5
v 7 0 62.5
v 8 0 62.5
v 15 0 62.5
v -7 0 23.5
v 6 0 23.5
v -7 0 22.5
v 6 0 22.5
v -15 0 -62.5
v -8 0 -62.5
v -7 0 -62.5
v 7 0 -62.5
v 8 0 -62.5
v 15 0 -62.5
v -7 1 62.5
v -6 1 62.5
v 6 1 62.5
v 7 1 62.5
v -7 1 23.5
v -6 1 23.5
v -7 1 22.5
v -6 1 22.5
v -7 1 -62.5
v -6 1 -62.5
v 6 1 -62.5
v 7 1 -62.5
v -15 2 62.5
v -8 2 62.5
v -7 2 62.5
v -6 2 62.5
v 6 2 62.5
v 7 2 62.5
v 8 2 62.5
v 15 2 62.5
v -2 2 8.5
v 2 2 8.5
v -4 2 -0.5
v -2 2 -0.5
v 2 2 -0.5
v 4 2 -0.5
v -4 2 -2.5
v -3 2 -2.5
v 3 2 -2.5
v 4 2 -2.5
v -3 2 -4.5
v -2 2 -4.5
v 2 2 -4.5
v 3 2 -4.5
v -2 2 -6.5
v -1 2 -6.5
v 1 2 -6.5
v 2 2 -6.5
v -1 2 -8.5
v 1 2 -8.5
v -15 2 -62.5
v -8 2 -62.5
v -7 2 -62.5
v -6 2 -62.5
v 6 2 -62.5
v 7 2 -62.5
v 8 2 -62.5
v 15 2 -62.5

# faces
f 3/2/1 2/2/1 1/2/1
f 4/2/1 2/2/1 3/2/1
f 9/2/1 6/2/1 5/2/1
f 9/2/1 8/2/1 7/2/1
f 9/2/1 7/2/1 6/2/1
f 10/2/1 8/2/1 9/2/1
f 13/3/1 12/3/1 11/3/1
f 14/3/1 12/3/1 13/3/1
f 15/3/2 16/3/2 19/3/2
f 17/3/2 18/3/2 19/3/2
f 16/3/2 17/3/2 19/3/2
f 19/3/2 18/3/2 20/3/2
f 21/2/2 22/2/2 23/2/2
f 23/2/2 22/2/2 24/2/2
f 25/2/2 26/2/2 27/2/2
f 27/2/2 26/2/2 28/2/2
f 31/2/3 30/2/3 29/2/3
f 32/2/3 30/2/3 31/2/3
f 33/3/3 32/3/3 31/3/3
f 34/3/3 32/3/3 33/3/3
f 35/3/3 32/3/3 34/3/3
f 36/4/3 34/4/3 33/4/3
f 38/4/3 36/4/3 33/4/3
f 38/2/3 37/2/3 36/2/3
f 39/2/3 37/2/3 38/2/3
f 40/4/3 38/4/3 33/4/3
f 41/4/3 38/4/3 40/4/3
f 43/3/3 41/3/3 40/3/3
f 43/3/3 42/3/3 41/3/3
f 44/3/3 42/3/3 43/3/3
f 45/2/3 44/2/3 43/2/3
f 46/2/3 44/2/3 45/2/3
f 47/2/4 48/2/4 49/2/4
f 49/2/4 48/2/4 50/2/4
f 49/3/4 50/3/4 51/3/4
f 51/3/4 50/3/4 52/3/4
f 52/3/4 50/3/4 53/3/4
f 51/4/4 52/4/4 54/4/4
f 51/4/4 54/4/4 56/4/4
f 54/2/4 55/2/4 56/2/4
f 56/2/4 55/2/4 57/2/4
f 51/4/4 56/4/4 58/4/4
f 58/4/4 56/4/4 59/4/4
f 58/3/4 59/3/4 61/3/4
f 59/3/4 60/3/4 61/3/4
f 61/3/4 60/3/4 62/3/4
f 61/2/4 62/2/4 63/2/4
f 63/2/4 62/2/4 64/2/4
f 71/3/5 67/3/5 66/3/5
f 71/4/5 68/4/5 67/4/5
f 72/4/5 68/4/5 71/4/5
f 73/3/5 71/3/5 66/3/5
f 73/2/5 72/2/5 71/2/5
f 74/4/5 68/4/5 72/4/5
f 74/2/5 72/2/5 73/2/5
f 75/2/5 66/2/5 65/2/5
f 76/3/5 73/3/5 66/3/5
f 76/2/5 66/2/5 75/2/5
f 77/4/5 74/4/5 73/4/5
f 77/3/5 73/3/5 76/3/5
f 78/4/5 68/4/5 74/4/5
f 78/4/5 74/4/5 77/4/5
f 78/3/5 69/3/5 68/3/5
f 79/2/5 70/2/5 69/2/5
f 79/3/5 69/3/5 78/3/5
f 80/2/5 70/2/5 79/2/5
f 81/4/6 82/4/6 85/4/6
f 85/4/6 82/4/6 86/4/6
f 85/2/6 86/2/6 87/2/6
f 87/2/6 86/2/6 88/2/6
f 87/4/6 88/4/6 89/4/6
f 89/4/6 88/4/6 90/4/6
f 83/4/6 84/4/6 91/4/6
f 91/4/6 84/4/6 92/4/6
f 96/2/6 97/2/6 101/2/6
f 101/2/6 97/2/6 102/2/6
f 96/2/6 101/2/6 103/2/6
f 101/1/6 102/1/6 104/1/6
f 103/2/6 101/2/6 104/2/6
f 102/2/6 97/2/6 105/2/6
f 104/1/6 102/1/6 105/1/6
f 105/2/6 97/2/6 106/2/6
f 103/1/6 104/1/6 107/1/6
f 96/2/6 103/2/6 107/2/6
f 105/1/6 106/1/6 107/1/6
f 104/1/6 105/1/6 107/1/6
f 107/1/6 106/1/6 108/1/6
f 108/1/6 106/1/6 109/1/6
f 106/2/6 97/2/6 110/2/6
f 109/1/6 106/1/6 110/1/6
f 108/1/6 109/1/6 111/1/6
f 107/2/6 108/2/6 111/2/6
f 111/1/6 109/1/6 112/1/6
f 112/1/6 109/1/6 113/1/6
f 109/2/6 110/2/6 114/2/6
f 113/1/6 109/1/6 114/1/6
f 112/1/6 113/1/6 115/1/6
f 111/2/6 112/2/6 115/2/6
f 115/1/6 113/1/6 116/1/6
f 116/1/6 113/1/6 117/1/6
f 113/2/6 114/2/6 118/2/6
f 117/1/6 113/1/6 118/1/6
f 116/1/6 117/1/6 119/1/6
f 115/2/6 116/2/6 119/2/6
f 117/2/6 118/2/6 120/2/6
f 119/1/6 117/1/6 120/1/6
f 93/2/6 94/2/6 121/2/6
f 94/3/6 95/3/6 122/3/6
f 121/2/6 94/2/6 122/2/6
f 122/3/6 95/3/6 123/3/6
f 96/2/6 107/2/6 124/2/6
f 107/2/6 111/2/6 124/2/6
f 111/2/6 115/2/6 124/2/6
f 119/2/6 120/2/6 124/2/6
f 115/2/6 119/2/6 124/2/6
f 120/2/6 118/2/6 125/2/6
f 124/2/6 120/2/6 125/2/6
f 110/2/6 97/2/6 125/2/6
f 118/2/6 114/2/6 125/2/6
f 114/2/6 110/2/6 125/2/6
f 98/3/6 99/3/6 126/3/6
f 99/2/6 100/2/6 127/2/6
f 126/3/6 99/3/6 127/3/6
f 127/2/6 100/2/6 128/2/6
