<svg width="32" height="32" viewBox="0 0 32 32" fill="none" xmlns="http://www.w3.org/2000/svg">
<path d="M16.4444 10.8889C15.3456 10.8889 14.2715 11.2147 13.3579 11.8251C12.4443 12.4356 11.7322 13.3033 11.3117 14.3184C10.8912 15.3335 10.7812 16.4506 10.9956 17.5283C11.2099 18.6059 11.739 19.5958 12.516 20.3728C13.293 21.1497 14.2829 21.6789 15.3605 21.8932C16.4382 22.1076 17.5552 21.9976 18.5704 21.5771C19.5855 21.1566 20.4532 20.4445 21.0636 19.5309C21.6741 18.6173 21.9999 17.5432 21.9999 16.4444C21.9999 14.971 21.4146 13.5579 20.3727 12.5161C19.3309 11.4742 17.9178 10.8889 16.4444 10.8889Z" stroke="white" stroke-width="2"/>
<path d="M23.6666 7.68625H21.2333L20.7721 6.70978C20.5608 6.3096 20.2565 5.97315 19.888 5.73228C19.5196 5.4914 19.0992 5.35408 18.6666 5.33331H14.2221C13.7896 5.35408 13.3691 5.4914 13.0007 5.73228C12.6322 5.97315 12.3279 6.3096 12.1166 6.70978L11.6555 7.68625H9.22214C8.19074 7.68625 7.20159 8.12008 6.47228 8.89229C5.74297 9.66449 5.33325 10.7118 5.33325 11.8039V21.2157C5.33325 22.3077 5.74297 23.3551 6.47228 24.1273C7.20159 24.8995 8.19074 25.3333 9.22214 25.3333H23.6666C24.698 25.3333 25.6871 24.8995 26.4164 24.1273C27.1458 23.3551 27.5555 22.3077 27.5555 21.2157V11.8039C27.5555 10.7118 27.1458 9.66449 26.4164 8.89229C25.6871 8.12008 24.698 7.68625 23.6666 7.68625Z" stroke="white" stroke-width="2"/>
</svg>
