<svg width="32" height="32" viewBox="0 0 32 32" fill="none" xmlns="http://www.w3.org/2000/svg">
<path d="M19.6 7.6L16 4" stroke="white" stroke-width="2.5" stroke-linecap="round" stroke-linejoin="round"/>
<path d="M16 11.2L19.6 7.6" stroke="white" stroke-width="2.5" stroke-linecap="round" stroke-linejoin="round"/>
<path d="M16.0001 7.6C14.9334 7.6 13.7334 7.86667 12.8001 8.26667C11.8667 8.66667 10.8001 9.33333 10.1334 10.1333C9.33339 10.9333 8.80006 11.8667 8.26672 12.8" stroke="white" stroke-width="2.5" stroke-linecap="round" stroke-linejoin="round"/>
<path d="M16 7.6C16.5333 7.6 16.9333 7.6 17.4667 7.73333" stroke="white" stroke-width="2.5" stroke-linecap="round" stroke-linejoin="round"/>
<path d="M12.4 24.4L16 28" stroke="white" stroke-width="2.5" stroke-linecap="round" stroke-linejoin="round"/>
<path d="M19.2001 23.7333C20.2667 23.3333 21.2001 22.6667 21.8667 21.8667C22.6667 21.0667 23.2001 20.1333 23.7334 19.2" stroke="white" stroke-width="2.5" stroke-linecap="round" stroke-linejoin="round"/>
<path d="M12.4 24.4L16 28" stroke="white" stroke-width="2.5" stroke-linecap="round" stroke-linejoin="round"/>
<path d="M16 20.8L12.4 24.4" stroke="white" stroke-width="2.5" stroke-linecap="round" stroke-linejoin="round"/>
<path d="M16 24.4C17.0667 24.4 18.2667 24.1333 19.2 23.7333C20.2667 23.3333 21.2 22.6667 21.8667 21.8667C22.6667 21.0667 23.2 20.1333 23.7333 19.2" stroke="white" stroke-width="2.5" stroke-linecap="round" stroke-linejoin="round"/>
<path d="M16.0001 24.4C15.4668 24.4 15.0668 24.4 14.5334 24.2667" stroke="white" stroke-width="2.5" stroke-linecap="round" stroke-linejoin="round"/>
<path d="M8.26672 12.8C7.86672 13.8667 7.60006 14.9333 7.60006 16C7.60006 17.0667 7.86672 18.1333 8.26672 19.2" stroke="white" stroke-width="2.5" stroke-linecap="round" stroke-linejoin="round"/>
<path d="M8.26676 19.2C8.53342 19.8667 8.93342 20.4 9.33342 21.0667" stroke="white" stroke-width="2.5" stroke-linecap="round" stroke-linejoin="round"/>
<path d="M23.7335 12.8C24.1335 13.8667 24.4001 14.9333 24.4001 16C24.4001 17.0667 24.1335 18.1333 23.7335 19.2" stroke="white" stroke-width="2.5" stroke-linecap="round" stroke-linejoin="round"/>
<path d="M23.7334 12.8C23.4668 12.1333 23.0668 11.6 22.6668 10.9333" stroke="white" stroke-width="2.5" stroke-linecap="round" stroke-linejoin="round"/>
</svg>
