<svg width="24" height="24" viewBox="0 0 24 24" fill="none" xmlns="http://www.w3.org/2000/svg">
<path fill-rule="evenodd" clip-rule="evenodd" d="M4.69995 10.2C4.69995 13.4 8.59995 18.2 10.7 20.5C11.4 21.2 12.5 21.2 13.2 20.5C15.3 18.2 19.2 13.5 19.2 10.2C19.2 5.7 15.5 3 11.9 3C8.29995 3 4.69995 5.6 4.69995 10.2Z" stroke="white" stroke-width="2" stroke-linecap="round" stroke-linejoin="round"/>
<path fill-rule="evenodd" clip-rule="evenodd" d="M11.9999 12.4C13.1597 12.4 14.0999 11.4597 14.0999 10.3C14.0999 9.14015 13.1597 8.19995 11.9999 8.19995C10.8401 8.19995 9.8999 9.14015 9.8999 10.3C9.8999 11.4597 10.8401 12.4 11.9999 12.4Z" stroke="white" stroke-width="2" stroke-linecap="round" stroke-linejoin="round"/>
</svg>
