<svg width="369" height="43" viewBox="0 0 369 43" fill="none" xmlns="http://www.w3.org/2000/svg">
<rect x="256" width="113" height="43" rx="18" fill="#774DEE"/>
<path d="M279.36 18.384C279.307 18.4747 279.251 18.5413 279.192 18.584C279.133 18.6267 279.059 18.648 278.968 18.648C278.872 18.648 278.763 18.6053 278.64 18.52C278.517 18.4293 278.363 18.3307 278.176 18.224C277.995 18.112 277.776 18.0133 277.52 17.928C277.264 17.8373 276.957 17.792 276.6 17.792C276.264 17.792 275.968 17.8373 275.712 17.928C275.461 18.0133 275.251 18.1333 275.08 18.288C274.909 18.4373 274.779 18.616 274.688 18.824C274.603 19.0267 274.56 19.248 274.56 19.488C274.56 19.7973 274.637 20.0533 274.792 20.256C274.952 20.4587 275.16 20.632 275.416 20.776C275.672 20.92 275.963 21.0453 276.288 21.152C276.613 21.2587 276.947 21.3707 277.288 21.488C277.629 21.6 277.963 21.7307 278.288 21.88C278.613 22.0293 278.904 22.2187 279.16 22.448C279.416 22.672 279.621 22.9493 279.776 23.28C279.936 23.6053 280.016 24.0053 280.016 24.48C280.016 24.9867 279.928 25.4613 279.752 25.904C279.581 26.3467 279.331 26.7333 279 27.064C278.669 27.3947 278.261 27.656 277.776 27.848C277.296 28.0347 276.749 28.128 276.136 28.128C275.768 28.128 275.411 28.0907 275.064 28.016C274.717 27.9467 274.389 27.848 274.08 27.72C273.771 27.5867 273.48 27.4293 273.208 27.248C272.941 27.0613 272.701 26.8533 272.488 26.624L272.976 25.808C273.024 25.744 273.08 25.6907 273.144 25.648C273.213 25.6053 273.291 25.584 273.376 25.584C273.488 25.584 273.616 25.6427 273.76 25.76C273.909 25.8773 274.091 26.008 274.304 26.152C274.523 26.2907 274.781 26.4187 275.08 26.536C275.384 26.6533 275.752 26.712 276.184 26.712C276.536 26.712 276.851 26.6667 277.128 26.576C277.405 26.48 277.637 26.3467 277.824 26.176C278.016 26 278.163 25.7893 278.264 25.544C278.365 25.2987 278.416 25.0267 278.416 24.728C278.416 24.392 278.339 24.1173 278.184 23.904C278.029 23.6907 277.824 23.512 277.568 23.368C277.312 23.224 277.021 23.1013 276.696 23C276.371 22.8987 276.037 22.7947 275.696 22.688C275.355 22.576 275.021 22.448 274.696 22.304C274.371 22.16 274.08 21.9733 273.824 21.744C273.568 21.5093 273.363 21.2187 273.208 20.872C273.053 20.52 272.976 20.088 272.976 19.576C272.976 19.1653 273.056 18.768 273.216 18.384C273.376 18 273.608 17.6613 273.912 17.368C274.221 17.0693 274.6 16.832 275.048 16.656C275.496 16.4747 276.008 16.384 276.584 16.384C277.229 16.384 277.821 16.488 278.36 16.696C278.904 16.8987 279.376 17.192 279.776 17.576L279.36 18.384ZM283.984 28.128C283.328 28.128 282.821 27.944 282.464 27.576C282.112 27.208 281.936 26.6827 281.936 26V21.136H280.992C280.901 21.136 280.824 21.1093 280.76 21.056C280.701 20.9973 280.672 20.912 280.672 20.8V20.168L281.992 19.984L282.344 17.56C282.365 17.4693 282.405 17.4 282.464 17.352C282.528 17.2987 282.608 17.272 282.704 17.272H283.496V20H285.8V21.136H283.496V25.896C283.496 26.216 283.573 26.456 283.728 26.616C283.888 26.7707 284.09 26.848 284.336 26.848C284.48 26.848 284.602 26.8293 284.704 26.792C284.81 26.7547 284.901 26.7147 284.976 26.672C285.05 26.624 285.114 26.5813 285.168 26.544C285.221 26.5067 285.269 26.488 285.312 26.488C285.365 26.488 285.405 26.5013 285.432 26.528C285.464 26.5493 285.496 26.5867 285.528 26.64L285.992 27.392C285.736 27.6267 285.432 27.808 285.08 27.936C284.728 28.064 284.362 28.128 283.984 28.128ZM291.605 24.392C290.97 24.4133 290.431 24.464 289.989 24.544C289.546 24.6187 289.186 24.72 288.909 24.848C288.631 24.976 288.431 25.128 288.309 25.304C288.186 25.4747 288.125 25.6667 288.125 25.88C288.125 26.0827 288.157 26.2587 288.221 26.408C288.29 26.552 288.381 26.672 288.493 26.768C288.61 26.8587 288.746 26.9253 288.901 26.968C289.055 27.0107 289.223 27.032 289.405 27.032C289.645 27.032 289.863 27.008 290.061 26.96C290.263 26.912 290.453 26.8453 290.629 26.76C290.805 26.6693 290.973 26.56 291.133 26.432C291.293 26.304 291.45 26.1573 291.605 25.992V24.392ZM287.029 21.008C287.482 20.576 287.973 20.2533 288.501 20.04C289.034 19.8267 289.618 19.72 290.253 19.72C290.717 19.72 291.127 19.7973 291.485 19.952C291.842 20.1013 292.143 20.312 292.389 20.584C292.634 20.856 292.818 21.1813 292.941 21.56C293.069 21.9387 293.133 22.3573 293.133 22.816V28H292.437C292.282 28 292.165 27.976 292.085 27.928C292.005 27.8747 291.941 27.7787 291.893 27.64L291.725 26.928C291.517 27.12 291.311 27.2907 291.109 27.44C290.906 27.584 290.693 27.7093 290.469 27.816C290.25 27.9173 290.015 27.9947 289.765 28.048C289.514 28.1013 289.237 28.128 288.933 28.128C288.613 28.128 288.311 28.0853 288.029 28C287.751 27.9093 287.509 27.7733 287.301 27.592C287.093 27.4107 286.927 27.184 286.805 26.912C286.687 26.64 286.629 26.3227 286.629 25.96C286.629 25.64 286.714 25.3333 286.885 25.04C287.061 24.7413 287.343 24.4747 287.733 24.24C288.127 24.0053 288.639 23.8133 289.269 23.664C289.903 23.5147 290.682 23.4293 291.605 23.408V22.816C291.605 22.2027 291.474 21.744 291.213 21.44C290.951 21.136 290.567 20.984 290.061 20.984C289.719 20.984 289.431 21.0267 289.197 21.112C288.967 21.1973 288.767 21.2933 288.597 21.4C288.431 21.5013 288.285 21.5947 288.157 21.68C288.034 21.7653 287.906 21.808 287.773 21.808C287.666 21.808 287.573 21.7787 287.493 21.72C287.418 21.6613 287.357 21.592 287.309 21.512L287.029 21.008ZM296.693 21.432C296.954 20.8987 297.269 20.48 297.637 20.176C298.005 19.872 298.448 19.72 298.965 19.72C299.141 19.72 299.306 19.7413 299.461 19.784C299.621 19.8213 299.76 19.88 299.877 19.96L299.773 21.136C299.736 21.28 299.648 21.352 299.509 21.352C299.434 21.352 299.322 21.3387 299.173 21.312C299.024 21.28 298.864 21.264 298.693 21.264C298.442 21.264 298.221 21.3013 298.029 21.376C297.837 21.4453 297.664 21.552 297.509 21.696C297.36 21.8347 297.226 22.008 297.109 22.216C296.992 22.4187 296.882 22.6507 296.781 22.912V28H295.221V19.872H296.117C296.288 19.872 296.402 19.904 296.461 19.968C296.525 20.0267 296.57 20.1333 296.597 20.288L296.693 21.432ZM303.624 28.128C302.968 28.128 302.462 27.944 302.104 27.576C301.752 27.208 301.576 26.6827 301.576 26V21.136H300.632C300.542 21.136 300.464 21.1093 300.4 21.056C300.342 20.9973 300.312 20.912 300.312 20.8V20.168L301.632 19.984L301.984 17.56C302.006 17.4693 302.046 17.4 302.104 17.352C302.168 17.2987 302.248 17.272 302.344 17.272H303.136V20H305.44V21.136H303.136V25.896C303.136 26.216 303.214 26.456 303.368 26.616C303.528 26.7707 303.731 26.848 303.976 26.848C304.12 26.848 304.243 26.8293 304.344 26.792C304.451 26.7547 304.542 26.7147 304.616 26.672C304.691 26.624 304.755 26.5813 304.808 26.544C304.862 26.5067 304.91 26.488 304.952 26.488C305.006 26.488 305.046 26.5013 305.072 26.528C305.104 26.5493 305.136 26.5867 305.168 26.64L305.632 27.392C305.376 27.6267 305.072 27.808 304.72 27.936C304.368 28.064 304.003 28.128 303.624 28.128ZM318.372 26.616L318.364 28H311.244V16.512H318.364V17.896H312.956V21.536H317.308V22.872H312.956V26.616H318.372ZM325.07 21.84C324.814 21.504 324.537 21.2693 324.238 21.136C323.945 21.0027 323.614 20.936 323.246 20.936C322.532 20.936 321.977 21.1947 321.582 21.712C321.193 22.224 320.998 22.9733 320.998 23.96C320.998 24.4773 321.041 24.92 321.126 25.288C321.217 25.6507 321.345 25.9493 321.51 26.184C321.681 26.4133 321.889 26.584 322.134 26.696C322.38 26.8027 322.657 26.856 322.966 26.856C323.42 26.856 323.812 26.7547 324.142 26.552C324.473 26.3493 324.782 26.064 325.07 25.696V21.84ZM326.638 16.192V28H325.694C325.476 28 325.34 27.896 325.286 27.688L325.15 26.752C324.804 27.1627 324.409 27.4933 323.966 27.744C323.529 27.9893 323.022 28.112 322.446 28.112C321.982 28.112 321.561 28.0213 321.182 27.84C320.809 27.6587 320.489 27.3947 320.222 27.048C319.956 26.696 319.75 26.2613 319.606 25.744C319.462 25.2267 319.39 24.632 319.39 23.96C319.39 23.3573 319.47 22.7973 319.63 22.28C319.79 21.7627 320.022 21.3147 320.326 20.936C320.63 20.5573 320.998 20.2613 321.43 20.048C321.862 19.8293 322.35 19.72 322.894 19.72C323.385 19.72 323.801 19.8 324.142 19.96C324.489 20.12 324.798 20.3467 325.07 20.64V16.192H326.638ZM330.447 19.872V28H328.887V19.872H330.447ZM330.743 17.36C330.743 17.504 330.713 17.6427 330.655 17.776C330.596 17.904 330.516 18.0187 330.415 18.12C330.319 18.216 330.204 18.2933 330.071 18.352C329.937 18.4053 329.799 18.432 329.655 18.432C329.511 18.432 329.375 18.4053 329.247 18.352C329.119 18.2933 329.004 18.216 328.903 18.12C328.807 18.0187 328.729 17.904 328.671 17.776C328.617 17.6427 328.591 17.504 328.591 17.36C328.591 17.2107 328.617 17.072 328.671 16.944C328.729 16.8107 328.807 16.696 328.903 16.6C329.004 16.4987 329.119 16.4213 329.247 16.368C329.375 16.3093 329.511 16.28 329.655 16.28C329.799 16.28 329.937 16.3093 330.071 16.368C330.204 16.4213 330.319 16.4987 330.415 16.6C330.516 16.696 330.596 16.8107 330.655 16.944C330.713 17.072 330.743 17.2107 330.743 17.36ZM335.249 28.128C334.593 28.128 334.087 27.944 333.729 27.576C333.377 27.208 333.201 26.6827 333.201 26V21.136H332.257C332.167 21.136 332.089 21.1093 332.025 21.056C331.967 20.9973 331.937 20.912 331.937 20.8V20.168L333.257 19.984L333.609 17.56C333.631 17.4693 333.671 17.4 333.729 17.352C333.793 17.2987 333.873 17.272 333.969 17.272H334.761V20H337.065V21.136H334.761V25.896C334.761 26.216 334.839 26.456 334.993 26.616C335.153 26.7707 335.356 26.848 335.601 26.848C335.745 26.848 335.868 26.8293 335.969 26.792C336.076 26.7547 336.167 26.7147 336.241 26.672C336.316 26.624 336.38 26.5813 336.433 26.544C336.487 26.5067 336.535 26.488 336.577 26.488C336.631 26.488 336.671 26.5013 336.697 26.528C336.729 26.5493 336.761 26.5867 336.793 26.64L337.257 27.392C337.001 27.6267 336.697 27.808 336.345 27.936C335.993 28.064 335.628 28.128 335.249 28.128ZM341.919 19.744C342.517 19.744 343.055 19.8427 343.535 20.04C344.021 20.232 344.431 20.512 344.767 20.88C345.109 21.2427 345.37 21.6827 345.551 22.2C345.733 22.712 345.823 23.288 345.823 23.928C345.823 24.568 345.733 25.1467 345.551 25.664C345.37 26.1813 345.109 26.6213 344.767 26.984C344.431 27.3467 344.021 27.6267 343.535 27.824C343.055 28.016 342.517 28.112 341.919 28.112C341.317 28.112 340.773 28.016 340.287 27.824C339.807 27.6267 339.397 27.3467 339.055 26.984C338.714 26.6213 338.45 26.1813 338.263 25.664C338.082 25.1467 337.991 24.568 337.991 23.928C337.991 23.288 338.082 22.712 338.263 22.2C338.45 21.6827 338.714 21.2427 339.055 20.88C339.397 20.512 339.807 20.232 340.287 20.04C340.773 19.8427 341.317 19.744 341.919 19.744ZM341.919 26.896C342.687 26.896 343.261 26.6373 343.639 26.12C344.018 25.6027 344.207 24.8747 344.207 23.936C344.207 22.9973 344.018 22.2693 343.639 21.752C343.261 21.2293 342.687 20.968 341.919 20.968C341.141 20.968 340.559 21.2293 340.175 21.752C339.797 22.2693 339.607 22.9973 339.607 23.936C339.607 24.8747 339.797 25.6027 340.175 26.12C340.559 26.6373 341.141 26.896 341.919 26.896ZM349.037 21.432C349.298 20.8987 349.613 20.48 349.981 20.176C350.349 19.872 350.791 19.72 351.309 19.72C351.485 19.72 351.65 19.7413 351.805 19.784C351.965 19.8213 352.103 19.88 352.221 19.96L352.117 21.136C352.079 21.28 351.991 21.352 351.853 21.352C351.778 21.352 351.666 21.3387 351.517 21.312C351.367 21.28 351.207 21.264 351.037 21.264C350.786 21.264 350.565 21.3013 350.373 21.376C350.181 21.4453 350.007 21.552 349.853 21.696C349.703 21.8347 349.57 22.008 349.453 22.216C349.335 22.4187 349.226 22.6507 349.125 22.912V28H347.565V19.872H348.461C348.631 19.872 348.746 19.904 348.805 19.968C348.869 20.0267 348.914 20.1333 348.941 20.288L349.037 21.432Z" fill="white"/>
<path d="M7.58 31.3C6.46 31.3 5.46 31.16 4.58 30.88C3.7 30.58 2.95 30.19 2.33 29.71C1.73 29.23 1.26 28.69 0.92 28.09C0.6 27.47 0.43 26.83 0.41 26.17C0.41 25.99 0.47 25.85 0.59 25.75C0.71 25.65 0.86 25.6 1.04 25.6H1.46C1.62 25.6 1.77 25.64 1.91 25.72C2.07 25.8 2.19 25.99 2.27 26.29C2.49 27.15 2.88 27.82 3.44 28.3C4.02 28.76 4.67 29.08 5.39 29.26C6.13 29.42 6.86 29.5 7.58 29.5C9.12 29.5 10.38 29.13 11.36 28.39C12.36 27.65 12.86 26.54 12.86 25.06C12.86 23.58 12.41 22.52 11.51 21.88C10.63 21.24 9.42 20.92 7.88 20.92H5.24C5.04 20.92 4.88 20.86 4.76 20.74C4.64 20.62 4.58 20.46 4.58 20.26V19.81C4.58 19.65 4.6 19.52 4.64 19.42C4.7 19.3 4.77 19.19 4.85 19.09L11.03 11.8H1.97C1.77 11.8 1.61 11.74 1.49 11.62C1.37 11.5 1.31 11.34 1.31 11.14V10.69C1.31 10.47 1.37 10.3 1.49 10.18C1.61 10.06 1.77 10 1.97 10H13.16C13.38 10 13.55 10.06 13.67 10.18C13.79 10.3 13.85 10.47 13.85 10.69V11.14C13.85 11.26 13.82 11.37 13.76 11.47C13.72 11.55 13.67 11.63 13.61 11.71L7.28 19.12H7.88C9.26 19.12 10.46 19.34 11.48 19.78C12.52 20.2 13.32 20.85 13.88 21.73C14.46 22.61 14.75 23.72 14.75 25.06C14.75 26.38 14.44 27.51 13.82 28.45C13.2 29.37 12.35 30.08 11.27 30.58C10.19 31.06 8.96 31.3 7.58 31.3ZM19.7652 31C19.5652 31 19.4052 30.94 19.2852 30.82C19.1652 30.7 19.1052 30.54 19.1052 30.34V10.69C19.1052 10.47 19.1652 10.3 19.2852 10.18C19.4052 10.06 19.5652 10 19.7652 10H26.1552C28.2752 10 29.9352 10.31 31.1352 10.93C32.3352 11.55 33.1852 12.47 33.6852 13.69C34.2052 14.89 34.4752 16.36 34.4952 18.1C34.5152 19 34.5252 19.8 34.5252 20.5C34.5252 21.18 34.5152 21.97 34.4952 22.87C34.4552 24.71 34.1852 26.23 33.6852 27.43C33.1852 28.63 32.3452 29.53 31.1652 30.13C29.9852 30.71 28.3652 31 26.3052 31H19.7652ZM20.9952 29.2H26.1552C27.7552 29.2 29.0152 28.99 29.9352 28.57C30.8752 28.13 31.5452 27.44 31.9452 26.5C32.3652 25.54 32.5852 24.28 32.6052 22.72C32.6252 22.12 32.6352 21.6 32.6352 21.16C32.6352 20.7 32.6352 20.25 32.6352 19.81C32.6352 19.37 32.6252 18.85 32.6052 18.25C32.5652 16.05 32.0552 14.43 31.0752 13.39C30.0952 12.33 28.4052 11.8 26.0052 11.8H20.9952V29.2ZM46.5179 31.3C44.5179 31.3 42.8579 31.02 41.5379 30.46C40.2179 29.88 39.2179 29.13 38.5379 28.21C37.8579 27.29 37.4979 26.31 37.4579 25.27C37.4579 25.11 37.5179 24.97 37.6379 24.85C37.7779 24.71 37.9379 24.64 38.1179 24.64H41.8979C42.1779 24.64 42.3879 24.69 42.5279 24.79C42.6879 24.89 42.8279 25.02 42.9479 25.18C43.1079 25.48 43.3279 25.77 43.6079 26.05C43.9079 26.33 44.2879 26.56 44.7479 26.74C45.2279 26.9 45.8179 26.98 46.5179 26.98C47.6779 26.98 48.5479 26.8 49.1279 26.44C49.7279 26.08 50.0279 25.59 50.0279 24.97C50.0279 24.53 49.8679 24.17 49.5479 23.89C49.2279 23.59 48.7079 23.33 47.9879 23.11C47.2879 22.87 46.3479 22.63 45.1679 22.39C43.6479 22.07 42.3479 21.66 41.2679 21.16C40.2079 20.64 39.3979 19.97 38.8379 19.15C38.2779 18.31 37.9979 17.27 37.9979 16.03C37.9979 14.81 38.3379 13.72 39.0179 12.76C39.7179 11.8 40.6879 11.05 41.9279 10.51C43.1679 9.97 44.6379 9.7 46.3379 9.7C47.7179 9.7 48.9279 9.88 49.9679 10.24C51.0279 10.6 51.9179 11.08 52.6379 11.68C53.3579 12.28 53.8979 12.92 54.2579 13.6C54.6379 14.26 54.8379 14.91 54.8579 15.55C54.8579 15.71 54.7979 15.86 54.6779 16C54.5579 16.12 54.4079 16.18 54.2279 16.18H50.2679C50.0479 16.18 49.8579 16.14 49.6979 16.06C49.5379 15.98 49.3979 15.85 49.2779 15.67C49.1579 15.23 48.8379 14.85 48.3179 14.53C47.8179 14.19 47.1579 14.02 46.3379 14.02C45.4579 14.02 44.7679 14.18 44.2679 14.5C43.7879 14.8 43.5479 15.27 43.5479 15.91C43.5479 16.31 43.6779 16.66 43.9379 16.96C44.2179 17.26 44.6679 17.52 45.2879 17.74C45.9279 17.96 46.7979 18.19 47.8979 18.43C49.7179 18.77 51.1879 19.2 52.3079 19.72C53.4279 20.22 54.2479 20.88 54.7679 21.7C55.2879 22.5 55.5479 23.51 55.5479 24.73C55.5479 26.09 55.1579 27.27 54.3779 28.27C53.6179 29.25 52.5579 30 51.1979 30.52C49.8379 31.04 48.2779 31.3 46.5179 31.3ZM66.2012 31C64.9212 31 63.8112 30.8 62.8712 30.4C61.9512 29.98 61.2412 29.34 60.7412 28.48C60.2412 27.6 59.9912 26.47 59.9912 25.09V19.33H57.6512C57.4312 19.33 57.2412 19.26 57.0812 19.12C56.9412 18.98 56.8712 18.8 56.8712 18.58V16.15C56.8712 15.93 56.9412 15.75 57.0812 15.61C57.2412 15.47 57.4312 15.4 57.6512 15.4H59.9912V10.45C59.9912 10.23 60.0612 10.05 60.2012 9.91C60.3612 9.77 60.5412 9.7 60.7412 9.7H64.2212C64.4412 9.7 64.6212 9.77 64.7612 9.91C64.9012 10.05 64.9712 10.23 64.9712 10.45V15.4H68.7212C68.9412 15.4 69.1212 15.47 69.2612 15.61C69.4012 15.75 69.4712 15.93 69.4712 16.15V18.58C69.4712 18.8 69.4012 18.98 69.2612 19.12C69.1212 19.26 68.9412 19.33 68.7212 19.33H64.9712V24.67C64.9712 25.35 65.1012 25.89 65.3612 26.29C65.6212 26.69 66.0612 26.89 66.6812 26.89H68.9912C69.2112 26.89 69.3912 26.96 69.5312 27.1C69.6712 27.24 69.7412 27.42 69.7412 27.64V30.25C69.7412 30.47 69.6712 30.65 69.5312 30.79C69.3912 30.93 69.2112 31 68.9912 31H66.2012ZM72.9751 31C72.7551 31 72.5751 30.93 72.4351 30.79C72.2951 30.65 72.2251 30.47 72.2251 30.25V16.15C72.2251 15.95 72.2951 15.78 72.4351 15.64C72.5751 15.48 72.7551 15.4 72.9751 15.4H76.4251C76.6451 15.4 76.8251 15.48 76.9651 15.64C77.1051 15.78 77.1751 15.95 77.1751 16.15V17.35C77.7151 16.73 78.3551 16.25 79.0951 15.91C79.8551 15.57 80.7051 15.4 81.6451 15.4H82.9651C83.1651 15.4 83.3351 15.47 83.4751 15.61C83.6351 15.75 83.7151 15.93 83.7151 16.15V19.24C83.7151 19.44 83.6351 19.62 83.4751 19.78C83.3351 19.92 83.1651 19.99 82.9651 19.99H80.0551C79.2351 19.99 78.5951 20.22 78.1351 20.68C77.6951 21.12 77.4751 21.75 77.4751 22.57V30.25C77.4751 30.47 77.3951 30.65 77.2351 30.79C77.0951 30.93 76.9151 31 76.6951 31H72.9751ZM92.9309 31.3C90.5709 31.3 88.6909 30.66 87.2909 29.38C85.8909 28.1 85.1609 26.2 85.1009 23.68C85.1009 23.54 85.1009 23.36 85.1009 23.14C85.1009 22.92 85.1009 22.75 85.1009 22.63C85.1609 21.05 85.5109 19.7 86.1509 18.58C86.8109 17.44 87.7109 16.58 88.8509 16C90.0109 15.4 91.3609 15.1 92.9009 15.1C94.6609 15.1 96.1109 15.45 97.2509 16.15C98.4109 16.85 99.2809 17.8 99.8609 19C100.441 20.2 100.731 21.57 100.731 23.11V23.83C100.731 24.05 100.651 24.23 100.491 24.37C100.351 24.51 100.181 24.58 99.9809 24.58H90.3809C90.3809 24.6 90.3809 24.63 90.3809 24.67C90.3809 24.71 90.3809 24.75 90.3809 24.79C90.4009 25.37 90.5009 25.9 90.6809 26.38C90.8609 26.86 91.1409 27.24 91.5209 27.52C91.9009 27.8 92.3609 27.94 92.9009 27.94C93.3009 27.94 93.6309 27.88 93.8909 27.76C94.1709 27.62 94.4009 27.47 94.5809 27.31C94.7609 27.13 94.9009 26.98 95.0009 26.86C95.1809 26.66 95.3209 26.54 95.4209 26.5C95.5409 26.44 95.7209 26.41 95.9609 26.41H99.6809C99.8809 26.41 100.041 26.47 100.161 26.59C100.301 26.69 100.361 26.84 100.341 27.04C100.321 27.38 100.151 27.79 99.8309 28.27C99.5109 28.75 99.0409 29.23 98.4209 29.71C97.8209 30.17 97.0609 30.55 96.1409 30.85C95.2209 31.15 94.1509 31.3 92.9309 31.3ZM90.3809 21.61H95.4509V21.55C95.4509 20.91 95.3509 20.35 95.1509 19.87C94.9709 19.39 94.6809 19.02 94.2809 18.76C93.9009 18.5 93.4409 18.37 92.9009 18.37C92.3609 18.37 91.9009 18.5 91.5209 18.76C91.1609 19.02 90.8809 19.39 90.6809 19.87C90.4809 20.35 90.3809 20.91 90.3809 21.55V21.61ZM110.743 31.3C108.383 31.3 106.503 30.66 105.103 29.38C103.703 28.1 102.973 26.2 102.913 23.68C102.913 23.54 102.913 23.36 102.913 23.14C102.913 22.92 102.913 22.75 102.913 22.63C102.973 21.05 103.323 19.7 103.963 18.58C104.623 17.44 105.523 16.58 106.663 16C107.823 15.4 109.173 15.1 110.713 15.1C112.473 15.1 113.923 15.45 115.063 16.15C116.223 16.85 117.093 17.8 117.673 19C118.253 20.2 118.543 21.57 118.543 23.11V23.83C118.543 24.05 118.463 24.23 118.303 24.37C118.163 24.51 117.993 24.58 117.793 24.58H108.193C108.193 24.6 108.193 24.63 108.193 24.67C108.193 24.71 108.193 24.75 108.193 24.79C108.213 25.37 108.313 25.9 108.493 26.38C108.673 26.86 108.953 27.24 109.333 27.52C109.713 27.8 110.173 27.94 110.713 27.94C111.113 27.94 111.443 27.88 111.703 27.76C111.983 27.62 112.213 27.47 112.393 27.31C112.573 27.13 112.713 26.98 112.813 26.86C112.993 26.66 113.133 26.54 113.233 26.5C113.353 26.44 113.533 26.41 113.773 26.41H117.493C117.693 26.41 117.853 26.47 117.973 26.59C118.113 26.69 118.173 26.84 118.153 27.04C118.133 27.38 117.963 27.79 117.643 28.27C117.323 28.75 116.853 29.23 116.233 29.71C115.633 30.17 114.873 30.55 113.953 30.85C113.033 31.15 111.963 31.3 110.743 31.3ZM108.193 21.61H113.263V21.55C113.263 20.91 113.163 20.35 112.963 19.87C112.783 19.39 112.493 19.02 112.093 18.76C111.713 18.5 111.253 18.37 110.713 18.37C110.173 18.37 109.713 18.5 109.333 18.76C108.973 19.02 108.693 19.39 108.493 19.87C108.293 20.35 108.193 20.91 108.193 21.55V21.61ZM129.307 31C128.027 31 126.917 30.8 125.977 30.4C125.057 29.98 124.347 29.34 123.847 28.48C123.347 27.6 123.097 26.47 123.097 25.09V19.33H120.757C120.537 19.33 120.347 19.26 120.187 19.12C120.047 18.98 119.977 18.8 119.977 18.58V16.15C119.977 15.93 120.047 15.75 120.187 15.61C120.347 15.47 120.537 15.4 120.757 15.4H123.097V10.45C123.097 10.23 123.167 10.05 123.307 9.91C123.467 9.77 123.647 9.7 123.847 9.7H127.327C127.547 9.7 127.727 9.77 127.867 9.91C128.007 10.05 128.077 10.23 128.077 10.45V15.4H131.827C132.047 15.4 132.227 15.47 132.367 15.61C132.507 15.75 132.577 15.93 132.577 16.15V18.58C132.577 18.8 132.507 18.98 132.367 19.12C132.227 19.26 132.047 19.33 131.827 19.33H128.077V24.67C128.077 25.35 128.207 25.89 128.467 26.29C128.727 26.69 129.167 26.89 129.787 26.89H132.097C132.317 26.89 132.497 26.96 132.637 27.1C132.777 27.24 132.847 27.42 132.847 27.64V30.25C132.847 30.47 132.777 30.65 132.637 30.79C132.497 30.93 132.317 31 132.097 31H129.307ZM149.097 31C148.837 31 148.627 30.94 148.467 30.82C148.307 30.7 148.177 30.52 148.077 30.28L141.117 10.93C141.077 10.81 141.057 10.7 141.057 10.6C141.057 10.44 141.117 10.3 141.237 10.18C141.357 10.06 141.497 10 141.657 10H142.287C142.487 10 142.637 10.06 142.737 10.18C142.857 10.28 142.927 10.37 142.947 10.45L149.517 28.81L156.087 10.45C156.127 10.37 156.197 10.28 156.297 10.18C156.397 10.06 156.547 10 156.747 10H157.377C157.537 10 157.677 10.06 157.797 10.18C157.917 10.3 157.977 10.44 157.977 10.6C157.977 10.7 157.957 10.81 157.917 10.93L150.957 30.28C150.877 30.52 150.757 30.7 150.597 30.82C150.437 30.94 150.217 31 149.937 31H149.097ZM161.817 31C161.617 31 161.457 30.94 161.337 30.82C161.217 30.7 161.157 30.54 161.157 30.34V16.06C161.157 15.86 161.217 15.7 161.337 15.58C161.457 15.46 161.617 15.4 161.817 15.4H162.327C162.527 15.4 162.687 15.46 162.807 15.58C162.927 15.7 162.987 15.86 162.987 16.06V30.34C162.987 30.54 162.927 30.7 162.807 30.82C162.687 30.94 162.527 31 162.327 31H161.817ZM161.487 12.19C161.287 12.19 161.127 12.13 161.007 12.01C160.887 11.89 160.827 11.73 160.827 11.53V10.39C160.827 10.19 160.887 10.03 161.007 9.91C161.127 9.77 161.287 9.7 161.487 9.7H162.627C162.827 9.7 162.987 9.77 163.107 9.91C163.247 10.03 163.317 10.19 163.317 10.39V11.53C163.317 11.73 163.247 11.89 163.107 12.01C162.987 12.13 162.827 12.19 162.627 12.19H161.487ZM173.626 31.3C171.686 31.3 170.146 30.67 169.006 29.41C167.866 28.13 167.216 26.46 167.056 24.4C167.036 24.1 167.026 23.7 167.026 23.2C167.026 22.7 167.036 22.3 167.056 22C167.156 20.64 167.476 19.44 168.016 18.4C168.556 17.36 169.296 16.55 170.236 15.97C171.196 15.39 172.326 15.1 173.626 15.1C175.026 15.1 176.216 15.41 177.196 16.03C178.176 16.65 178.926 17.54 179.446 18.7C179.986 19.86 180.256 21.24 180.256 22.84V23.29C180.256 23.49 180.186 23.65 180.046 23.77C179.926 23.89 179.766 23.95 179.566 23.95H168.886C168.886 23.95 168.886 23.99 168.886 24.07C168.886 24.15 168.886 24.21 168.886 24.25C168.926 25.15 169.136 26.01 169.516 26.83C169.896 27.63 170.436 28.29 171.136 28.81C171.836 29.31 172.666 29.56 173.626 29.56C174.486 29.56 175.196 29.43 175.756 29.17C176.336 28.91 176.796 28.63 177.136 28.33C177.476 28.01 177.696 27.77 177.796 27.61C177.976 27.35 178.116 27.2 178.216 27.16C178.316 27.1 178.476 27.07 178.696 27.07H179.176C179.356 27.07 179.506 27.13 179.626 27.25C179.766 27.35 179.826 27.49 179.806 27.67C179.786 27.95 179.626 28.3 179.326 28.72C179.046 29.12 178.636 29.52 178.096 29.92C177.576 30.32 176.936 30.65 176.176 30.91C175.416 31.17 174.566 31.3 173.626 31.3ZM168.886 22.27H178.426V22.15C178.426 21.15 178.236 20.25 177.856 19.45C177.476 18.65 176.926 18.02 176.206 17.56C175.486 17.08 174.626 16.84 173.626 16.84C172.626 16.84 171.766 17.08 171.046 17.56C170.346 18.02 169.806 18.65 169.426 19.45C169.066 20.25 168.886 21.15 168.886 22.15V22.27ZM187.882 31C187.622 31 187.422 30.94 187.282 30.82C187.142 30.7 187.022 30.51 186.922 30.25L182.692 16.33C182.652 16.21 182.632 16.1 182.632 16C182.632 15.84 182.692 15.7 182.812 15.58C182.932 15.46 183.072 15.4 183.232 15.4H183.802C184.002 15.4 184.152 15.46 184.252 15.58C184.372 15.68 184.442 15.77 184.462 15.85L188.152 28.33L192.082 16C192.122 15.88 192.202 15.75 192.322 15.61C192.442 15.47 192.632 15.4 192.892 15.4H193.492C193.752 15.4 193.942 15.47 194.062 15.61C194.202 15.75 194.282 15.88 194.302 16L198.232 28.33L201.922 15.85C201.942 15.77 202.002 15.68 202.102 15.58C202.222 15.46 202.382 15.4 202.582 15.4H203.152C203.312 15.4 203.452 15.46 203.572 15.58C203.692 15.7 203.752 15.84 203.752 16C203.752 16.1 203.732 16.21 203.692 16.33L199.462 30.25C199.382 30.51 199.272 30.7 199.132 30.82C198.992 30.94 198.782 31 198.502 31H197.992C197.732 31 197.512 30.94 197.332 30.82C197.172 30.7 197.052 30.51 196.972 30.25L193.192 18.43L189.412 30.25C189.332 30.51 189.212 30.7 189.052 30.82C188.892 30.94 188.672 31 188.392 31H187.882ZM212.825 31.3C210.885 31.3 209.345 30.67 208.205 29.41C207.065 28.13 206.415 26.46 206.255 24.4C206.235 24.1 206.225 23.7 206.225 23.2C206.225 22.7 206.235 22.3 206.255 22C206.355 20.64 206.675 19.44 207.215 18.4C207.755 17.36 208.495 16.55 209.435 15.97C210.395 15.39 211.525 15.1 212.825 15.1C214.225 15.1 215.415 15.41 216.395 16.03C217.375 16.65 218.125 17.54 218.645 18.7C219.185 19.86 219.455 21.24 219.455 22.84V23.29C219.455 23.49 219.385 23.65 219.245 23.77C219.125 23.89 218.965 23.95 218.765 23.95H208.085C208.085 23.95 208.085 23.99 208.085 24.07C208.085 24.15 208.085 24.21 208.085 24.25C208.125 25.15 208.335 26.01 208.715 26.83C209.095 27.63 209.635 28.29 210.335 28.81C211.035 29.31 211.865 29.56 212.825 29.56C213.685 29.56 214.395 29.43 214.955 29.17C215.535 28.91 215.995 28.63 216.335 28.33C216.675 28.01 216.895 27.77 216.995 27.61C217.175 27.35 217.315 27.2 217.415 27.16C217.515 27.1 217.675 27.07 217.895 27.07H218.375C218.555 27.07 218.705 27.13 218.825 27.25C218.965 27.35 219.025 27.49 219.005 27.67C218.985 27.95 218.825 28.3 218.525 28.72C218.245 29.12 217.835 29.52 217.295 29.92C216.775 30.32 216.135 30.65 215.375 30.91C214.615 31.17 213.765 31.3 212.825 31.3ZM208.085 22.27H217.625V22.15C217.625 21.15 217.435 20.25 217.055 19.45C216.675 18.65 216.125 18.02 215.405 17.56C214.685 17.08 213.825 16.84 212.825 16.84C211.825 16.84 210.965 17.08 210.245 17.56C209.545 18.02 209.005 18.65 208.625 19.45C208.265 20.25 208.085 21.15 208.085 22.15V22.27ZM224.072 31C223.872 31 223.712 30.94 223.592 30.82C223.472 30.7 223.412 30.54 223.412 30.34V16.09C223.412 15.89 223.472 15.73 223.592 15.61C223.712 15.47 223.872 15.4 224.072 15.4H224.552C224.752 15.4 224.912 15.47 225.032 15.61C225.172 15.73 225.242 15.89 225.242 16.09V17.47C225.602 16.77 226.122 16.25 226.802 15.91C227.482 15.57 228.322 15.4 229.322 15.4H230.432C230.632 15.4 230.792 15.46 230.912 15.58C231.032 15.7 231.092 15.86 231.092 16.06V16.48C231.092 16.68 231.032 16.84 230.912 16.96C230.792 17.08 230.632 17.14 230.432 17.14H229.142C227.942 17.14 226.992 17.49 226.292 18.19C225.592 18.89 225.242 19.84 225.242 21.04V30.34C225.242 30.54 225.172 30.7 225.032 30.82C224.912 30.94 224.752 31 224.552 31H224.072Z" fill="white"/>
</svg>
