<svg width="55" height="22" viewBox="0 0 55 22" fill="none" xmlns="http://www.w3.org/2000/svg">
<path d="M0 11C0 4.92487 4.92487 0 11 0H44C50.0751 0 55 4.92487 55 11C55 17.0751 50.0751 22 44 22H11C4.92487 22 0 17.0751 0 11Z" fill="#8941FF"/>
<path d="M12.944 9H14.288L11.9 15H10.496L8.096 9H9.5L11.204 13.884L12.944 9ZM16.0307 7.992C15.7507 7.992 15.5347 7.924 15.3827 7.788C15.2387 7.644 15.1667 7.444 15.1667 7.188C15.1667 6.932 15.2387 6.736 15.3827 6.6C15.5347 6.464 15.7507 6.396 16.0307 6.396C16.3027 6.396 16.5107 6.464 16.6547 6.6C16.8067 6.736 16.8827 6.932 16.8827 7.188C16.8827 7.444 16.8067 7.644 16.6547 7.788C16.5107 7.924 16.3027 7.992 16.0307 7.992ZM16.6667 9V15H15.3827V9H16.6667ZM21.3157 15.12C20.7157 15.12 20.1877 14.996 19.7317 14.748C19.2757 14.5 18.9197 14.144 18.6637 13.68C18.4157 13.208 18.2917 12.648 18.2917 12C18.2917 11.352 18.4157 10.796 18.6637 10.332C18.9197 9.86 19.2717 9.5 19.7197 9.252C20.1677 9.004 20.6757 8.88 21.2437 8.88C21.8277 8.88 22.3237 9 22.7317 9.24C23.1397 9.48 23.4517 9.808 23.6677 10.224C23.8837 10.64 23.9917 11.112 23.9917 11.64C23.9917 11.784 23.9877 11.92 23.9797 12.048C23.9717 12.176 23.9597 12.288 23.9437 12.384H19.1197V11.4H23.3797L22.7437 11.592C22.7437 11.048 22.6077 10.632 22.3357 10.344C22.0637 10.048 21.6917 9.9 21.2197 9.9C20.8757 9.9 20.5757 9.98 20.3197 10.14C20.0637 10.3 19.8677 10.54 19.7317 10.86C19.5957 11.172 19.5277 11.556 19.5277 12.012C19.5277 12.46 19.5997 12.84 19.7437 13.152C19.8877 13.464 20.0917 13.7 20.3557 13.86C20.6197 14.02 20.9317 14.1 21.2917 14.1C21.6917 14.1 22.0157 14.024 22.2637 13.872C22.5117 13.72 22.7077 13.508 22.8517 13.236L23.8717 13.716C23.7277 14.004 23.5317 14.256 23.2837 14.472C23.0437 14.68 22.7557 14.84 22.4197 14.952C22.0837 15.064 21.7157 15.12 21.3157 15.12ZM33.0928 9H34.4848L32.4688 15H31.0648L29.5528 10.548L28.1248 15H26.7208L24.7168 9H26.0968L27.4648 13.74L28.9528 9H30.2368L31.7248 13.74L33.0928 9ZM38.1907 15.12C37.5907 15.12 37.0627 14.996 36.6067 14.748C36.1507 14.5 35.7947 14.144 35.5387 13.68C35.2907 13.208 35.1667 12.648 35.1667 12C35.1667 11.352 35.2907 10.796 35.5387 10.332C35.7947 9.86 36.1467 9.5 36.5947 9.252C37.0427 9.004 37.5507 8.88 38.1187 8.88C38.7027 8.88 39.1987 9 39.6067 9.24C40.0147 9.48 40.3267 9.808 40.5427 10.224C40.7587 10.64 40.8667 11.112 40.8667 11.64C40.8667 11.784 40.8627 11.92 40.8547 12.048C40.8467 12.176 40.8347 12.288 40.8187 12.384H35.9947V11.4H40.2547L39.6187 11.592C39.6187 11.048 39.4827 10.632 39.2107 10.344C38.9387 10.048 38.5667 9.9 38.0947 9.9C37.7507 9.9 37.4507 9.98 37.1947 10.14C36.9387 10.3 36.7427 10.54 36.6067 10.86C36.4707 11.172 36.4027 11.556 36.4027 12.012C36.4027 12.46 36.4747 12.84 36.6187 13.152C36.7627 13.464 36.9667 13.7 37.2307 13.86C37.4947 14.02 37.8067 14.1 38.1667 14.1C38.5667 14.1 38.8907 14.024 39.1387 13.872C39.3867 13.72 39.5827 13.508 39.7267 13.236L40.7467 13.716C40.6027 14.004 40.4067 14.256 40.1587 14.472C39.9187 14.68 39.6307 14.84 39.2947 14.952C38.9587 15.064 38.5907 15.12 38.1907 15.12ZM42.4882 15V9H43.5802L43.7002 10.08C43.8602 9.688 44.0962 9.392 44.4082 9.192C44.7282 8.984 45.1202 8.88 45.5842 8.88C45.7042 8.88 45.8242 8.892 45.9442 8.916C46.0642 8.932 46.1642 8.96 46.2442 9L46.0642 10.128C45.9762 10.096 45.8762 10.072 45.7642 10.056C45.6602 10.032 45.5162 10.02 45.3322 10.02C45.0842 10.02 44.8402 10.088 44.6002 10.224C44.3602 10.352 44.1602 10.548 44.0002 10.812C43.8482 11.076 43.7722 11.412 43.7722 11.82V15H42.4882Z" fill="white"/>
</svg>
